%TF.GenerationSoftware,KiCad,Pcbnew,(6.0.2)*%
%TF.CreationDate,2022-06-27T16:52:27+02:00*%
%TF.ProjectId,RowdyTestBoard2,526f7764-7954-4657-9374-426f61726432,rev?*%
%TF.SameCoordinates,Original*%
%TF.FileFunction,Legend,Bot*%
%TF.FilePolarity,Positive*%
%FSLAX46Y46*%
G04 Gerber Fmt 4.6, Leading zero omitted, Abs format (unit mm)*
G04 Created by KiCad (PCBNEW (6.0.2)) date 2022-06-27 16:52:27*
%MOMM*%
%LPD*%
G01*
G04 APERTURE LIST*
%ADD10C,0.150000*%
%ADD11C,0.254000*%
%ADD12C,0.120000*%
%ADD13C,0.100000*%
%ADD14C,0.200000*%
%ADD15C,0.152400*%
%ADD16C,0.050800*%
%ADD17C,0.127000*%
G04 APERTURE END LIST*
D10*
X139710847Y-85618580D02*
X139710847Y-84618580D01*
X139710847Y-85094771D02*
X139139419Y-85094771D01*
X139139419Y-85618580D02*
X139139419Y-84618580D01*
X138234657Y-85618580D02*
X138234657Y-85094771D01*
X138282276Y-84999533D01*
X138377514Y-84951914D01*
X138567990Y-84951914D01*
X138663228Y-84999533D01*
X138234657Y-85570961D02*
X138329895Y-85618580D01*
X138567990Y-85618580D01*
X138663228Y-85570961D01*
X138710847Y-85475723D01*
X138710847Y-85380485D01*
X138663228Y-85285247D01*
X138567990Y-85237628D01*
X138329895Y-85237628D01*
X138234657Y-85190009D01*
X137615609Y-85618580D02*
X137710847Y-85570961D01*
X137758466Y-85475723D01*
X137758466Y-84618580D01*
X137091800Y-85618580D02*
X137187038Y-85570961D01*
X137234657Y-85475723D01*
X137234657Y-84618580D01*
X135425133Y-85618580D02*
X135996561Y-85618580D01*
X135710847Y-85618580D02*
X135710847Y-84618580D01*
X135806085Y-84761438D01*
X135901323Y-84856676D01*
X135996561Y-84904295D01*
X191914805Y-127909580D02*
X192188615Y-127433390D01*
X192486234Y-127909580D02*
X192361234Y-126909580D01*
X191980282Y-126909580D01*
X191890996Y-126957200D01*
X191849329Y-127004819D01*
X191813615Y-127100057D01*
X191831472Y-127242914D01*
X191890996Y-127338152D01*
X191944567Y-127385771D01*
X192045758Y-127433390D01*
X192426710Y-127433390D01*
X191099329Y-127861961D02*
X191200520Y-127909580D01*
X191390996Y-127909580D01*
X191480282Y-127861961D01*
X191515996Y-127766723D01*
X191468377Y-127385771D01*
X191408853Y-127290533D01*
X191307663Y-127242914D01*
X191117186Y-127242914D01*
X191027901Y-127290533D01*
X190992186Y-127385771D01*
X191004091Y-127481009D01*
X191492186Y-127576247D01*
X190640996Y-127242914D02*
X190486234Y-127909580D01*
X190164805Y-127242914D01*
X189480282Y-127861961D02*
X189581472Y-127909580D01*
X189771948Y-127909580D01*
X189861234Y-127861961D01*
X189896948Y-127766723D01*
X189849329Y-127385771D01*
X189789805Y-127290533D01*
X189688615Y-127242914D01*
X189498139Y-127242914D01*
X189408853Y-127290533D01*
X189373139Y-127385771D01*
X189385044Y-127481009D01*
X189873139Y-127576247D01*
X189010044Y-127909580D02*
X188926710Y-127242914D01*
X188950520Y-127433390D02*
X188890996Y-127338152D01*
X188837425Y-127290533D01*
X188736234Y-127242914D01*
X188640996Y-127242914D01*
X188432663Y-127861961D02*
X188343377Y-127909580D01*
X188152901Y-127909580D01*
X188051710Y-127861961D01*
X187992186Y-127766723D01*
X187986234Y-127719104D01*
X188021948Y-127623866D01*
X188111234Y-127576247D01*
X188254091Y-127576247D01*
X188343377Y-127528628D01*
X188379091Y-127433390D01*
X188373139Y-127385771D01*
X188313615Y-127290533D01*
X188212425Y-127242914D01*
X188069567Y-127242914D01*
X187980282Y-127290533D01*
X187194567Y-127861961D02*
X187295758Y-127909580D01*
X187486234Y-127909580D01*
X187575520Y-127861961D01*
X187611234Y-127766723D01*
X187563615Y-127385771D01*
X187504091Y-127290533D01*
X187402901Y-127242914D01*
X187212425Y-127242914D01*
X187123139Y-127290533D01*
X187087425Y-127385771D01*
X187099329Y-127481009D01*
X187587425Y-127576247D01*
X185962425Y-127909580D02*
X185837425Y-126909580D01*
X185456472Y-126909580D01*
X185367186Y-126957200D01*
X185325520Y-127004819D01*
X185289805Y-127100057D01*
X185307663Y-127242914D01*
X185367186Y-127338152D01*
X185420758Y-127385771D01*
X185521948Y-127433390D01*
X185902901Y-127433390D01*
X184819567Y-127909580D02*
X184908853Y-127861961D01*
X184950520Y-127814342D01*
X184986234Y-127719104D01*
X184950520Y-127433390D01*
X184890996Y-127338152D01*
X184837425Y-127290533D01*
X184736234Y-127242914D01*
X184593377Y-127242914D01*
X184504091Y-127290533D01*
X184462425Y-127338152D01*
X184426710Y-127433390D01*
X184462425Y-127719104D01*
X184521948Y-127814342D01*
X184575520Y-127861961D01*
X184676710Y-127909580D01*
X184819567Y-127909580D01*
X183914805Y-127909580D02*
X184004091Y-127861961D01*
X184039805Y-127766723D01*
X183932663Y-126909580D01*
X183105282Y-127909580D02*
X183039805Y-127385771D01*
X183075520Y-127290533D01*
X183164805Y-127242914D01*
X183355282Y-127242914D01*
X183456472Y-127290533D01*
X183099329Y-127861961D02*
X183200520Y-127909580D01*
X183438615Y-127909580D01*
X183527901Y-127861961D01*
X183563615Y-127766723D01*
X183551710Y-127671485D01*
X183492186Y-127576247D01*
X183390996Y-127528628D01*
X183152901Y-127528628D01*
X183051710Y-127481009D01*
X182629091Y-127909580D02*
X182545758Y-127242914D01*
X182569567Y-127433390D02*
X182510044Y-127338152D01*
X182456472Y-127290533D01*
X182355282Y-127242914D01*
X182260044Y-127242914D01*
X182010044Y-127909580D02*
X181926710Y-127242914D01*
X181885044Y-126909580D02*
X181938615Y-126957200D01*
X181896948Y-127004819D01*
X181843377Y-126957200D01*
X181885044Y-126909580D01*
X181896948Y-127004819D01*
X181593377Y-127242914D02*
X181212425Y-127242914D01*
X181408853Y-126909580D02*
X181515996Y-127766723D01*
X181480282Y-127861961D01*
X181390996Y-127909580D01*
X181295758Y-127909580D01*
X180974329Y-127242914D02*
X180819567Y-127909580D01*
X180498139Y-127242914D02*
X180819567Y-127909580D01*
X180944567Y-128147676D01*
X180998139Y-128195295D01*
X181099329Y-128242914D01*
X164029780Y-105868742D02*
X164077400Y-105916361D01*
X164220257Y-105963980D01*
X164315495Y-105963980D01*
X164458352Y-105916361D01*
X164553590Y-105821123D01*
X164601209Y-105725885D01*
X164648828Y-105535409D01*
X164648828Y-105392552D01*
X164601209Y-105202076D01*
X164553590Y-105106838D01*
X164458352Y-105011600D01*
X164315495Y-104963980D01*
X164220257Y-104963980D01*
X164077400Y-105011600D01*
X164029780Y-105059219D01*
X163458352Y-105963980D02*
X163553590Y-105916361D01*
X163601209Y-105821123D01*
X163601209Y-104963980D01*
X163077400Y-105963980D02*
X163077400Y-104963980D01*
X162982161Y-105583028D02*
X162696447Y-105963980D01*
X162696447Y-105297314D02*
X163077400Y-105678266D01*
X162267876Y-105440171D02*
X161934542Y-105440171D01*
X161791685Y-105963980D02*
X162267876Y-105963980D01*
X162267876Y-104963980D01*
X161791685Y-104963980D01*
X161363114Y-105297314D02*
X161363114Y-105963980D01*
X161363114Y-105392552D02*
X161315495Y-105344933D01*
X161220257Y-105297314D01*
X161077400Y-105297314D01*
X160982161Y-105344933D01*
X160934542Y-105440171D01*
X160934542Y-105963980D01*
X160458352Y-105963980D02*
X160458352Y-104963980D01*
X159982161Y-105297314D02*
X159982161Y-105963980D01*
X159982161Y-105392552D02*
X159934542Y-105344933D01*
X159839304Y-105297314D01*
X159696447Y-105297314D01*
X159601209Y-105344933D01*
X159553590Y-105440171D01*
X159553590Y-105963980D01*
X153020542Y-122600980D02*
X153020542Y-121600980D01*
X152449114Y-122600980D01*
X152449114Y-121600980D01*
X151972923Y-122600980D02*
X151972923Y-121600980D01*
X151639590Y-122315266D01*
X151306257Y-121600980D01*
X151306257Y-122600980D01*
X150258638Y-122600980D02*
X150591971Y-122124790D01*
X150830066Y-122600980D02*
X150830066Y-121600980D01*
X150449114Y-121600980D01*
X150353876Y-121648600D01*
X150306257Y-121696219D01*
X150258638Y-121791457D01*
X150258638Y-121934314D01*
X150306257Y-122029552D01*
X150353876Y-122077171D01*
X150449114Y-122124790D01*
X150830066Y-122124790D01*
X153599923Y-114831761D02*
X153457066Y-114879380D01*
X153218971Y-114879380D01*
X153123733Y-114831761D01*
X153076114Y-114784142D01*
X153028495Y-114688904D01*
X153028495Y-114593666D01*
X153076114Y-114498428D01*
X153123733Y-114450809D01*
X153218971Y-114403190D01*
X153409447Y-114355571D01*
X153504685Y-114307952D01*
X153552304Y-114260333D01*
X153599923Y-114165095D01*
X153599923Y-114069857D01*
X153552304Y-113974619D01*
X153504685Y-113927000D01*
X153409447Y-113879380D01*
X153171352Y-113879380D01*
X153028495Y-113927000D01*
X152599923Y-114879380D02*
X152599923Y-113879380D01*
X152599923Y-114355571D02*
X152028495Y-114355571D01*
X152028495Y-114879380D02*
X152028495Y-113879380D01*
X150980876Y-114784142D02*
X151028495Y-114831761D01*
X151171352Y-114879380D01*
X151266590Y-114879380D01*
X151409447Y-114831761D01*
X151504685Y-114736523D01*
X151552304Y-114641285D01*
X151599923Y-114450809D01*
X151599923Y-114307952D01*
X151552304Y-114117476D01*
X151504685Y-114022238D01*
X151409447Y-113927000D01*
X151266590Y-113879380D01*
X151171352Y-113879380D01*
X151028495Y-113927000D01*
X150980876Y-113974619D01*
X150552304Y-114879380D02*
X150552304Y-113879380D01*
X150171352Y-113879380D01*
X150076114Y-113927000D01*
X150028495Y-113974619D01*
X149980876Y-114069857D01*
X149980876Y-114212714D01*
X150028495Y-114307952D01*
X150076114Y-114355571D01*
X150171352Y-114403190D01*
X150552304Y-114403190D01*
X176790219Y-105868742D02*
X176837838Y-105916361D01*
X176980695Y-105963980D01*
X177075933Y-105963980D01*
X177218790Y-105916361D01*
X177314028Y-105821123D01*
X177361647Y-105725885D01*
X177409266Y-105535409D01*
X177409266Y-105392552D01*
X177361647Y-105202076D01*
X177314028Y-105106838D01*
X177218790Y-105011600D01*
X177075933Y-104963980D01*
X176980695Y-104963980D01*
X176837838Y-105011600D01*
X176790219Y-105059219D01*
X176218790Y-105963980D02*
X176314028Y-105916361D01*
X176361647Y-105821123D01*
X176361647Y-104963980D01*
X175837838Y-105963980D02*
X175837838Y-104963980D01*
X175742600Y-105583028D02*
X175456885Y-105963980D01*
X175456885Y-105297314D02*
X175837838Y-105678266D01*
X175028314Y-105963980D02*
X175028314Y-104963980D01*
X174552123Y-105297314D02*
X174552123Y-105963980D01*
X174552123Y-105392552D02*
X174504504Y-105344933D01*
X174409266Y-105297314D01*
X174266409Y-105297314D01*
X174171171Y-105344933D01*
X174123552Y-105440171D01*
X174123552Y-105963980D01*
X152904676Y-118984780D02*
X152571342Y-119984780D01*
X152238009Y-118984780D01*
X151476104Y-119937161D02*
X151571342Y-119984780D01*
X151761819Y-119984780D01*
X151857057Y-119937161D01*
X151904676Y-119889542D01*
X151952295Y-119794304D01*
X151952295Y-119508590D01*
X151904676Y-119413352D01*
X151857057Y-119365733D01*
X151761819Y-119318114D01*
X151571342Y-119318114D01*
X151476104Y-119365733D01*
X150618961Y-119937161D02*
X150714200Y-119984780D01*
X150904676Y-119984780D01*
X150999914Y-119937161D01*
X151047533Y-119889542D01*
X151095152Y-119794304D01*
X151095152Y-119508590D01*
X151047533Y-119413352D01*
X150999914Y-119365733D01*
X150904676Y-119318114D01*
X150714200Y-119318114D01*
X150618961Y-119365733D01*
X166284066Y-114907961D02*
X166141209Y-114955580D01*
X165903114Y-114955580D01*
X165807876Y-114907961D01*
X165760257Y-114860342D01*
X165712638Y-114765104D01*
X165712638Y-114669866D01*
X165760257Y-114574628D01*
X165807876Y-114527009D01*
X165903114Y-114479390D01*
X166093590Y-114431771D01*
X166188828Y-114384152D01*
X166236447Y-114336533D01*
X166284066Y-114241295D01*
X166284066Y-114146057D01*
X166236447Y-114050819D01*
X166188828Y-114003200D01*
X166093590Y-113955580D01*
X165855495Y-113955580D01*
X165712638Y-114003200D01*
X165426923Y-113955580D02*
X164855495Y-113955580D01*
X165141209Y-114955580D02*
X165141209Y-113955580D01*
X163950733Y-114860342D02*
X163998352Y-114907961D01*
X164141209Y-114955580D01*
X164236447Y-114955580D01*
X164379304Y-114907961D01*
X164474542Y-114812723D01*
X164522161Y-114717485D01*
X164569780Y-114527009D01*
X164569780Y-114384152D01*
X164522161Y-114193676D01*
X164474542Y-114098438D01*
X164379304Y-114003200D01*
X164236447Y-113955580D01*
X164141209Y-113955580D01*
X163998352Y-114003200D01*
X163950733Y-114050819D01*
X163522161Y-114955580D02*
X163522161Y-113955580D01*
X163141209Y-113955580D01*
X163045971Y-114003200D01*
X162998352Y-114050819D01*
X162950733Y-114146057D01*
X162950733Y-114288914D01*
X162998352Y-114384152D01*
X163045971Y-114431771D01*
X163141209Y-114479390D01*
X163522161Y-114479390D01*
X164552000Y-108532561D02*
X164409142Y-108580180D01*
X164171047Y-108580180D01*
X164075809Y-108532561D01*
X164028190Y-108484942D01*
X163980571Y-108389704D01*
X163980571Y-108294466D01*
X164028190Y-108199228D01*
X164075809Y-108151609D01*
X164171047Y-108103990D01*
X164361523Y-108056371D01*
X164456761Y-108008752D01*
X164504380Y-107961133D01*
X164552000Y-107865895D01*
X164552000Y-107770657D01*
X164504380Y-107675419D01*
X164456761Y-107627800D01*
X164361523Y-107580180D01*
X164123428Y-107580180D01*
X163980571Y-107627800D01*
X163552000Y-108056371D02*
X163218666Y-108056371D01*
X163075809Y-108580180D02*
X163552000Y-108580180D01*
X163552000Y-107580180D01*
X163075809Y-107580180D01*
X162075809Y-108580180D02*
X162409142Y-108103990D01*
X162647238Y-108580180D02*
X162647238Y-107580180D01*
X162266285Y-107580180D01*
X162171047Y-107627800D01*
X162123428Y-107675419D01*
X162075809Y-107770657D01*
X162075809Y-107913514D01*
X162123428Y-108008752D01*
X162171047Y-108056371D01*
X162266285Y-108103990D01*
X162647238Y-108103990D01*
X161456761Y-107580180D02*
X161266285Y-107580180D01*
X161171047Y-107627800D01*
X161075809Y-107723038D01*
X161028190Y-107913514D01*
X161028190Y-108246847D01*
X161075809Y-108437323D01*
X161171047Y-108532561D01*
X161266285Y-108580180D01*
X161456761Y-108580180D01*
X161552000Y-108532561D01*
X161647238Y-108437323D01*
X161694857Y-108246847D01*
X161694857Y-107913514D01*
X161647238Y-107723038D01*
X161552000Y-107627800D01*
X161456761Y-107580180D01*
X160171047Y-107913514D02*
X160171047Y-108580180D01*
X160599619Y-107913514D02*
X160599619Y-108437323D01*
X160552000Y-108532561D01*
X160456761Y-108580180D01*
X160313904Y-108580180D01*
X160218666Y-108532561D01*
X160171047Y-108484942D01*
X159837714Y-107913514D02*
X159456761Y-107913514D01*
X159694857Y-107580180D02*
X159694857Y-108437323D01*
X159647238Y-108532561D01*
X159552000Y-108580180D01*
X159456761Y-108580180D01*
X165353904Y-119134000D02*
X165449142Y-119086380D01*
X165592000Y-119086380D01*
X165734857Y-119134000D01*
X165830095Y-119229238D01*
X165877714Y-119324476D01*
X165925333Y-119514952D01*
X165925333Y-119657809D01*
X165877714Y-119848285D01*
X165830095Y-119943523D01*
X165734857Y-120038761D01*
X165592000Y-120086380D01*
X165496761Y-120086380D01*
X165353904Y-120038761D01*
X165306285Y-119991142D01*
X165306285Y-119657809D01*
X165496761Y-119657809D01*
X164877714Y-120086380D02*
X164877714Y-119086380D01*
X164306285Y-120086380D01*
X164306285Y-119086380D01*
X163830095Y-120086380D02*
X163830095Y-119086380D01*
X163592000Y-119086380D01*
X163449142Y-119134000D01*
X163353904Y-119229238D01*
X163306285Y-119324476D01*
X163258666Y-119514952D01*
X163258666Y-119657809D01*
X163306285Y-119848285D01*
X163353904Y-119943523D01*
X163449142Y-120038761D01*
X163592000Y-120086380D01*
X163830095Y-120086380D01*
X188961447Y-85618580D02*
X188961447Y-84618580D01*
X188961447Y-85094771D02*
X188390019Y-85094771D01*
X188390019Y-85618580D02*
X188390019Y-84618580D01*
X187485257Y-85618580D02*
X187485257Y-85094771D01*
X187532876Y-84999533D01*
X187628114Y-84951914D01*
X187818590Y-84951914D01*
X187913828Y-84999533D01*
X187485257Y-85570961D02*
X187580495Y-85618580D01*
X187818590Y-85618580D01*
X187913828Y-85570961D01*
X187961447Y-85475723D01*
X187961447Y-85380485D01*
X187913828Y-85285247D01*
X187818590Y-85237628D01*
X187580495Y-85237628D01*
X187485257Y-85190009D01*
X186866209Y-85618580D02*
X186961447Y-85570961D01*
X187009066Y-85475723D01*
X187009066Y-84618580D01*
X186342400Y-85618580D02*
X186437638Y-85570961D01*
X186485257Y-85475723D01*
X186485257Y-84618580D01*
X185247161Y-84713819D02*
X185199542Y-84666200D01*
X185104304Y-84618580D01*
X184866209Y-84618580D01*
X184770971Y-84666200D01*
X184723352Y-84713819D01*
X184675733Y-84809057D01*
X184675733Y-84904295D01*
X184723352Y-85047152D01*
X185294780Y-85618580D01*
X184675733Y-85618580D01*
X144576704Y-54160800D02*
X144671942Y-54113180D01*
X144814800Y-54113180D01*
X144957657Y-54160800D01*
X145052895Y-54256038D01*
X145100514Y-54351276D01*
X145148133Y-54541752D01*
X145148133Y-54684609D01*
X145100514Y-54875085D01*
X145052895Y-54970323D01*
X144957657Y-55065561D01*
X144814800Y-55113180D01*
X144719561Y-55113180D01*
X144576704Y-55065561D01*
X144529085Y-55017942D01*
X144529085Y-54684609D01*
X144719561Y-54684609D01*
X144100514Y-55113180D02*
X144100514Y-54113180D01*
X143529085Y-55113180D01*
X143529085Y-54113180D01*
X143052895Y-55113180D02*
X143052895Y-54113180D01*
X142814800Y-54113180D01*
X142671942Y-54160800D01*
X142576704Y-54256038D01*
X142529085Y-54351276D01*
X142481466Y-54541752D01*
X142481466Y-54684609D01*
X142529085Y-54875085D01*
X142576704Y-54970323D01*
X142671942Y-55065561D01*
X142814800Y-55113180D01*
X143052895Y-55113180D01*
X180115790Y-103474780D02*
X180115790Y-102474780D01*
X179544361Y-103474780D01*
X179544361Y-102474780D01*
X179115790Y-103427161D02*
X178972933Y-103474780D01*
X178734838Y-103474780D01*
X178639600Y-103427161D01*
X178591980Y-103379542D01*
X178544361Y-103284304D01*
X178544361Y-103189066D01*
X178591980Y-103093828D01*
X178639600Y-103046209D01*
X178734838Y-102998590D01*
X178925314Y-102950971D01*
X179020552Y-102903352D01*
X179068171Y-102855733D01*
X179115790Y-102760495D01*
X179115790Y-102665257D01*
X179068171Y-102570019D01*
X179020552Y-102522400D01*
X178925314Y-102474780D01*
X178687219Y-102474780D01*
X178544361Y-102522400D01*
X178115790Y-102950971D02*
X177782457Y-102950971D01*
X177639600Y-103474780D02*
X178115790Y-103474780D01*
X178115790Y-102474780D01*
X177639600Y-102474780D01*
X176639600Y-103474780D02*
X176972933Y-102998590D01*
X177211028Y-103474780D02*
X177211028Y-102474780D01*
X176830076Y-102474780D01*
X176734838Y-102522400D01*
X176687219Y-102570019D01*
X176639600Y-102665257D01*
X176639600Y-102808114D01*
X176687219Y-102903352D01*
X176734838Y-102950971D01*
X176830076Y-102998590D01*
X177211028Y-102998590D01*
X176020552Y-102474780D02*
X175830076Y-102474780D01*
X175734838Y-102522400D01*
X175639600Y-102617638D01*
X175591980Y-102808114D01*
X175591980Y-103141447D01*
X175639600Y-103331923D01*
X175734838Y-103427161D01*
X175830076Y-103474780D01*
X176020552Y-103474780D01*
X176115790Y-103427161D01*
X176211028Y-103331923D01*
X176258647Y-103141447D01*
X176258647Y-102808114D01*
X176211028Y-102617638D01*
X176115790Y-102522400D01*
X176020552Y-102474780D01*
X174734838Y-102808114D02*
X174734838Y-103474780D01*
X175163409Y-102808114D02*
X175163409Y-103331923D01*
X175115790Y-103427161D01*
X175020552Y-103474780D01*
X174877695Y-103474780D01*
X174782457Y-103427161D01*
X174734838Y-103379542D01*
X174401504Y-102808114D02*
X174020552Y-102808114D01*
X174258647Y-102474780D02*
X174258647Y-103331923D01*
X174211028Y-103427161D01*
X174115790Y-103474780D01*
X174020552Y-103474780D01*
X163829904Y-102497000D02*
X163925142Y-102449380D01*
X164068000Y-102449380D01*
X164210857Y-102497000D01*
X164306095Y-102592238D01*
X164353714Y-102687476D01*
X164401333Y-102877952D01*
X164401333Y-103020809D01*
X164353714Y-103211285D01*
X164306095Y-103306523D01*
X164210857Y-103401761D01*
X164068000Y-103449380D01*
X163972761Y-103449380D01*
X163829904Y-103401761D01*
X163782285Y-103354142D01*
X163782285Y-103020809D01*
X163972761Y-103020809D01*
X163353714Y-103449380D02*
X163353714Y-102449380D01*
X162782285Y-103449380D01*
X162782285Y-102449380D01*
X162306095Y-103449380D02*
X162306095Y-102449380D01*
X162068000Y-102449380D01*
X161925142Y-102497000D01*
X161829904Y-102592238D01*
X161782285Y-102687476D01*
X161734666Y-102877952D01*
X161734666Y-103020809D01*
X161782285Y-103211285D01*
X161829904Y-103306523D01*
X161925142Y-103401761D01*
X162068000Y-103449380D01*
X162306095Y-103449380D01*
X156867076Y-51801780D02*
X156533742Y-52801780D01*
X156200409Y-51801780D01*
X155438504Y-52754161D02*
X155533742Y-52801780D01*
X155724219Y-52801780D01*
X155819457Y-52754161D01*
X155867076Y-52706542D01*
X155914695Y-52611304D01*
X155914695Y-52325590D01*
X155867076Y-52230352D01*
X155819457Y-52182733D01*
X155724219Y-52135114D01*
X155533742Y-52135114D01*
X155438504Y-52182733D01*
X154581361Y-52754161D02*
X154676600Y-52801780D01*
X154867076Y-52801780D01*
X154962314Y-52754161D01*
X155009933Y-52706542D01*
X155057552Y-52611304D01*
X155057552Y-52325590D01*
X155009933Y-52230352D01*
X154962314Y-52182733D01*
X154867076Y-52135114D01*
X154676600Y-52135114D01*
X154581361Y-52182733D01*
X139685447Y-135605780D02*
X139685447Y-134605780D01*
X139685447Y-135081971D02*
X139114019Y-135081971D01*
X139114019Y-135605780D02*
X139114019Y-134605780D01*
X138209257Y-135605780D02*
X138209257Y-135081971D01*
X138256876Y-134986733D01*
X138352114Y-134939114D01*
X138542590Y-134939114D01*
X138637828Y-134986733D01*
X138209257Y-135558161D02*
X138304495Y-135605780D01*
X138542590Y-135605780D01*
X138637828Y-135558161D01*
X138685447Y-135462923D01*
X138685447Y-135367685D01*
X138637828Y-135272447D01*
X138542590Y-135224828D01*
X138304495Y-135224828D01*
X138209257Y-135177209D01*
X137590209Y-135605780D02*
X137685447Y-135558161D01*
X137733066Y-135462923D01*
X137733066Y-134605780D01*
X137066400Y-135605780D02*
X137161638Y-135558161D01*
X137209257Y-135462923D01*
X137209257Y-134605780D01*
X136018780Y-134605780D02*
X135399733Y-134605780D01*
X135733066Y-134986733D01*
X135590209Y-134986733D01*
X135494971Y-135034352D01*
X135447352Y-135081971D01*
X135399733Y-135177209D01*
X135399733Y-135415304D01*
X135447352Y-135510542D01*
X135494971Y-135558161D01*
X135590209Y-135605780D01*
X135875923Y-135605780D01*
X135971161Y-135558161D01*
X136018780Y-135510542D01*
X189215447Y-135580380D02*
X189215447Y-134580380D01*
X189215447Y-135056571D02*
X188644019Y-135056571D01*
X188644019Y-135580380D02*
X188644019Y-134580380D01*
X187739257Y-135580380D02*
X187739257Y-135056571D01*
X187786876Y-134961333D01*
X187882114Y-134913714D01*
X188072590Y-134913714D01*
X188167828Y-134961333D01*
X187739257Y-135532761D02*
X187834495Y-135580380D01*
X188072590Y-135580380D01*
X188167828Y-135532761D01*
X188215447Y-135437523D01*
X188215447Y-135342285D01*
X188167828Y-135247047D01*
X188072590Y-135199428D01*
X187834495Y-135199428D01*
X187739257Y-135151809D01*
X187120209Y-135580380D02*
X187215447Y-135532761D01*
X187263066Y-135437523D01*
X187263066Y-134580380D01*
X186596400Y-135580380D02*
X186691638Y-135532761D01*
X186739257Y-135437523D01*
X186739257Y-134580380D01*
X185024971Y-134913714D02*
X185024971Y-135580380D01*
X185263066Y-134532761D02*
X185501161Y-135247047D01*
X184882114Y-135247047D01*
X153191980Y-117470180D02*
X153191980Y-116470180D01*
X152953885Y-116470180D01*
X152811028Y-116517800D01*
X152715790Y-116613038D01*
X152668171Y-116708276D01*
X152620552Y-116898752D01*
X152620552Y-117041609D01*
X152668171Y-117232085D01*
X152715790Y-117327323D01*
X152811028Y-117422561D01*
X152953885Y-117470180D01*
X153191980Y-117470180D01*
X151763409Y-117470180D02*
X151763409Y-116946371D01*
X151811028Y-116851133D01*
X151906266Y-116803514D01*
X152096742Y-116803514D01*
X152191980Y-116851133D01*
X151763409Y-117422561D02*
X151858647Y-117470180D01*
X152096742Y-117470180D01*
X152191980Y-117422561D01*
X152239600Y-117327323D01*
X152239600Y-117232085D01*
X152191980Y-117136847D01*
X152096742Y-117089228D01*
X151858647Y-117089228D01*
X151763409Y-117041609D01*
X151430076Y-116803514D02*
X151049123Y-116803514D01*
X151287219Y-116470180D02*
X151287219Y-117327323D01*
X151239600Y-117422561D01*
X151144361Y-117470180D01*
X151049123Y-117470180D01*
X150287219Y-117470180D02*
X150287219Y-116946371D01*
X150334838Y-116851133D01*
X150430076Y-116803514D01*
X150620552Y-116803514D01*
X150715790Y-116851133D01*
X150287219Y-117422561D02*
X150382457Y-117470180D01*
X150620552Y-117470180D01*
X150715790Y-117422561D01*
X150763409Y-117327323D01*
X150763409Y-117232085D01*
X150715790Y-117136847D01*
X150620552Y-117089228D01*
X150382457Y-117089228D01*
X150287219Y-117041609D01*
X165879304Y-117495580D02*
X165879304Y-116495580D01*
X165307876Y-117495580D01*
X165307876Y-116495580D01*
X164641209Y-116495580D02*
X164450733Y-116495580D01*
X164355495Y-116543200D01*
X164260257Y-116638438D01*
X164212638Y-116828914D01*
X164212638Y-117162247D01*
X164260257Y-117352723D01*
X164355495Y-117447961D01*
X164450733Y-117495580D01*
X164641209Y-117495580D01*
X164736447Y-117447961D01*
X164831685Y-117352723D01*
X164879304Y-117162247D01*
X164879304Y-116828914D01*
X164831685Y-116638438D01*
X164736447Y-116543200D01*
X164641209Y-116495580D01*
X163784066Y-116971771D02*
X163450733Y-116971771D01*
X163307876Y-117495580D02*
X163784066Y-117495580D01*
X163784066Y-116495580D01*
X163307876Y-116495580D01*
X164896752Y-122747019D02*
X164991990Y-122699400D01*
X165087228Y-122604161D01*
X165230085Y-122461304D01*
X165325323Y-122413685D01*
X165420561Y-122413685D01*
X165372942Y-122651780D02*
X165468180Y-122604161D01*
X165563419Y-122508923D01*
X165611038Y-122318447D01*
X165611038Y-121985114D01*
X165563419Y-121794638D01*
X165468180Y-121699400D01*
X165372942Y-121651780D01*
X165182466Y-121651780D01*
X165087228Y-121699400D01*
X164991990Y-121794638D01*
X164944371Y-121985114D01*
X164944371Y-122318447D01*
X164991990Y-122508923D01*
X165087228Y-122604161D01*
X165182466Y-122651780D01*
X165372942Y-122651780D01*
X164515800Y-122651780D02*
X164515800Y-121651780D01*
X164515800Y-122127971D02*
X163944371Y-122127971D01*
X163944371Y-122651780D02*
X163944371Y-121651780D01*
X163420561Y-121651780D02*
X163515800Y-121842257D01*
X164071276Y-99985580D02*
X164547466Y-99985580D01*
X164595085Y-100461771D01*
X164547466Y-100414152D01*
X164452228Y-100366533D01*
X164214133Y-100366533D01*
X164118895Y-100414152D01*
X164071276Y-100461771D01*
X164023657Y-100557009D01*
X164023657Y-100795104D01*
X164071276Y-100890342D01*
X164118895Y-100937961D01*
X164214133Y-100985580D01*
X164452228Y-100985580D01*
X164547466Y-100937961D01*
X164595085Y-100890342D01*
X163737942Y-99985580D02*
X163404609Y-100985580D01*
X163071276Y-99985580D01*
X176679076Y-108580180D02*
X176679076Y-107580180D01*
X176107647Y-108580180D01*
X176107647Y-107580180D01*
X175631457Y-108580180D02*
X175631457Y-107580180D01*
X175250504Y-107580180D01*
X175155266Y-107627800D01*
X175107647Y-107675419D01*
X175060028Y-107770657D01*
X175060028Y-107913514D01*
X175107647Y-108008752D01*
X175155266Y-108056371D01*
X175250504Y-108103990D01*
X175631457Y-108103990D01*
X174155266Y-108580180D02*
X174631457Y-108580180D01*
X174631457Y-107580180D01*
X175818704Y-100061780D02*
X175199657Y-100061780D01*
X175532990Y-100442733D01*
X175390133Y-100442733D01*
X175294895Y-100490352D01*
X175247276Y-100537971D01*
X175199657Y-100633209D01*
X175199657Y-100871304D01*
X175247276Y-100966542D01*
X175294895Y-101014161D01*
X175390133Y-101061780D01*
X175675847Y-101061780D01*
X175771085Y-101014161D01*
X175818704Y-100966542D01*
X174913942Y-100061780D02*
X174580609Y-101061780D01*
X174247276Y-100061780D01*
%TO.C,J3*%
X145138733Y-50760380D02*
X145138733Y-51474666D01*
X145186352Y-51617523D01*
X145281590Y-51712761D01*
X145424447Y-51760380D01*
X145519685Y-51760380D01*
X144757780Y-50760380D02*
X144138733Y-50760380D01*
X144472066Y-51141333D01*
X144329209Y-51141333D01*
X144233971Y-51188952D01*
X144186352Y-51236571D01*
X144138733Y-51331809D01*
X144138733Y-51569904D01*
X144186352Y-51665142D01*
X144233971Y-51712761D01*
X144329209Y-51760380D01*
X144614923Y-51760380D01*
X144710161Y-51712761D01*
X144757780Y-51665142D01*
%TO.C,C4*%
X134223542Y-89165133D02*
X134271161Y-89117514D01*
X134318780Y-88974657D01*
X134318780Y-88879419D01*
X134271161Y-88736561D01*
X134175923Y-88641323D01*
X134080685Y-88593704D01*
X133890209Y-88546085D01*
X133747352Y-88546085D01*
X133556876Y-88593704D01*
X133461638Y-88641323D01*
X133366400Y-88736561D01*
X133318780Y-88879419D01*
X133318780Y-88974657D01*
X133366400Y-89117514D01*
X133414019Y-89165133D01*
X133652114Y-90022276D02*
X134318780Y-90022276D01*
X133271161Y-89784180D02*
X133985447Y-89546085D01*
X133985447Y-90165133D01*
%TO.C,C2*%
X182376066Y-123445542D02*
X182423685Y-123493161D01*
X182566542Y-123540780D01*
X182661780Y-123540780D01*
X182804638Y-123493161D01*
X182899876Y-123397923D01*
X182947495Y-123302685D01*
X182995114Y-123112209D01*
X182995114Y-122969352D01*
X182947495Y-122778876D01*
X182899876Y-122683638D01*
X182804638Y-122588400D01*
X182661780Y-122540780D01*
X182566542Y-122540780D01*
X182423685Y-122588400D01*
X182376066Y-122636019D01*
X181995114Y-122636019D02*
X181947495Y-122588400D01*
X181852257Y-122540780D01*
X181614161Y-122540780D01*
X181518923Y-122588400D01*
X181471304Y-122636019D01*
X181423685Y-122731257D01*
X181423685Y-122826495D01*
X181471304Y-122969352D01*
X182042733Y-123540780D01*
X181423685Y-123540780D01*
%TO.C,R4*%
X176839266Y-68200780D02*
X177172600Y-67724590D01*
X177410695Y-68200780D02*
X177410695Y-67200780D01*
X177029742Y-67200780D01*
X176934504Y-67248400D01*
X176886885Y-67296019D01*
X176839266Y-67391257D01*
X176839266Y-67534114D01*
X176886885Y-67629352D01*
X176934504Y-67676971D01*
X177029742Y-67724590D01*
X177410695Y-67724590D01*
X175982123Y-67534114D02*
X175982123Y-68200780D01*
X176220219Y-67153161D02*
X176458314Y-67867447D01*
X175839266Y-67867447D01*
%TO.C,J1*%
X169751333Y-97579380D02*
X169751333Y-98293666D01*
X169798952Y-98436523D01*
X169894190Y-98531761D01*
X170037047Y-98579380D01*
X170132285Y-98579380D01*
X168751333Y-98579380D02*
X169322761Y-98579380D01*
X169037047Y-98579380D02*
X169037047Y-97579380D01*
X169132285Y-97722238D01*
X169227523Y-97817476D01*
X169322761Y-97865095D01*
%TO.C,Q8*%
X174870219Y-71673961D02*
X174822600Y-71578723D01*
X174727361Y-71483485D01*
X174584504Y-71340628D01*
X174536885Y-71245390D01*
X174536885Y-71150152D01*
X174774980Y-71197771D02*
X174727361Y-71102533D01*
X174632123Y-71007295D01*
X174441647Y-70959676D01*
X174108314Y-70959676D01*
X173917838Y-71007295D01*
X173822600Y-71102533D01*
X173774980Y-71197771D01*
X173774980Y-71388247D01*
X173822600Y-71483485D01*
X173917838Y-71578723D01*
X174108314Y-71626342D01*
X174441647Y-71626342D01*
X174632123Y-71578723D01*
X174727361Y-71483485D01*
X174774980Y-71388247D01*
X174774980Y-71197771D01*
X174203552Y-72197771D02*
X174155933Y-72102533D01*
X174108314Y-72054914D01*
X174013076Y-72007295D01*
X173965457Y-72007295D01*
X173870219Y-72054914D01*
X173822600Y-72102533D01*
X173774980Y-72197771D01*
X173774980Y-72388247D01*
X173822600Y-72483485D01*
X173870219Y-72531104D01*
X173965457Y-72578723D01*
X174013076Y-72578723D01*
X174108314Y-72531104D01*
X174155933Y-72483485D01*
X174203552Y-72388247D01*
X174203552Y-72197771D01*
X174251171Y-72102533D01*
X174298790Y-72054914D01*
X174394028Y-72007295D01*
X174584504Y-72007295D01*
X174679742Y-72054914D01*
X174727361Y-72102533D01*
X174774980Y-72197771D01*
X174774980Y-72388247D01*
X174727361Y-72483485D01*
X174679742Y-72531104D01*
X174584504Y-72578723D01*
X174394028Y-72578723D01*
X174298790Y-72531104D01*
X174251171Y-72483485D01*
X174203552Y-72388247D01*
%TO.C,Q12*%
X185625019Y-145732571D02*
X185577400Y-145637333D01*
X185482161Y-145542095D01*
X185339304Y-145399238D01*
X185291685Y-145304000D01*
X185291685Y-145208761D01*
X185529780Y-145256380D02*
X185482161Y-145161142D01*
X185386923Y-145065904D01*
X185196447Y-145018285D01*
X184863114Y-145018285D01*
X184672638Y-145065904D01*
X184577400Y-145161142D01*
X184529780Y-145256380D01*
X184529780Y-145446857D01*
X184577400Y-145542095D01*
X184672638Y-145637333D01*
X184863114Y-145684952D01*
X185196447Y-145684952D01*
X185386923Y-145637333D01*
X185482161Y-145542095D01*
X185529780Y-145446857D01*
X185529780Y-145256380D01*
X185529780Y-146637333D02*
X185529780Y-146065904D01*
X185529780Y-146351619D02*
X184529780Y-146351619D01*
X184672638Y-146256380D01*
X184767876Y-146161142D01*
X184815495Y-146065904D01*
X184625019Y-147018285D02*
X184577400Y-147065904D01*
X184529780Y-147161142D01*
X184529780Y-147399238D01*
X184577400Y-147494476D01*
X184625019Y-147542095D01*
X184720257Y-147589714D01*
X184815495Y-147589714D01*
X184958352Y-147542095D01*
X185529780Y-146970666D01*
X185529780Y-147589714D01*
%TO.C,Q10*%
X135714019Y-146011971D02*
X135666400Y-145916733D01*
X135571161Y-145821495D01*
X135428304Y-145678638D01*
X135380685Y-145583400D01*
X135380685Y-145488161D01*
X135618780Y-145535780D02*
X135571161Y-145440542D01*
X135475923Y-145345304D01*
X135285447Y-145297685D01*
X134952114Y-145297685D01*
X134761638Y-145345304D01*
X134666400Y-145440542D01*
X134618780Y-145535780D01*
X134618780Y-145726257D01*
X134666400Y-145821495D01*
X134761638Y-145916733D01*
X134952114Y-145964352D01*
X135285447Y-145964352D01*
X135475923Y-145916733D01*
X135571161Y-145821495D01*
X135618780Y-145726257D01*
X135618780Y-145535780D01*
X135618780Y-146916733D02*
X135618780Y-146345304D01*
X135618780Y-146631019D02*
X134618780Y-146631019D01*
X134761638Y-146535780D01*
X134856876Y-146440542D01*
X134904495Y-146345304D01*
X134618780Y-147535780D02*
X134618780Y-147631019D01*
X134666400Y-147726257D01*
X134714019Y-147773876D01*
X134809257Y-147821495D01*
X134999733Y-147869114D01*
X135237828Y-147869114D01*
X135428304Y-147821495D01*
X135523542Y-147773876D01*
X135571161Y-147726257D01*
X135618780Y-147631019D01*
X135618780Y-147535780D01*
X135571161Y-147440542D01*
X135523542Y-147392923D01*
X135428304Y-147345304D01*
X135237828Y-147297685D01*
X134999733Y-147297685D01*
X134809257Y-147345304D01*
X134714019Y-147392923D01*
X134666400Y-147440542D01*
X134618780Y-147535780D01*
%TO.C,Q3*%
X116028419Y-116058961D02*
X115980800Y-115963723D01*
X115885561Y-115868485D01*
X115742704Y-115725628D01*
X115695085Y-115630390D01*
X115695085Y-115535152D01*
X115933180Y-115582771D02*
X115885561Y-115487533D01*
X115790323Y-115392295D01*
X115599847Y-115344676D01*
X115266514Y-115344676D01*
X115076038Y-115392295D01*
X114980800Y-115487533D01*
X114933180Y-115582771D01*
X114933180Y-115773247D01*
X114980800Y-115868485D01*
X115076038Y-115963723D01*
X115266514Y-116011342D01*
X115599847Y-116011342D01*
X115790323Y-115963723D01*
X115885561Y-115868485D01*
X115933180Y-115773247D01*
X115933180Y-115582771D01*
X114933180Y-116344676D02*
X114933180Y-116963723D01*
X115314133Y-116630390D01*
X115314133Y-116773247D01*
X115361752Y-116868485D01*
X115409371Y-116916104D01*
X115504609Y-116963723D01*
X115742704Y-116963723D01*
X115837942Y-116916104D01*
X115885561Y-116868485D01*
X115933180Y-116773247D01*
X115933180Y-116487533D01*
X115885561Y-116392295D01*
X115837942Y-116344676D01*
%TO.C,C6*%
X134223542Y-138822133D02*
X134271161Y-138774514D01*
X134318780Y-138631657D01*
X134318780Y-138536419D01*
X134271161Y-138393561D01*
X134175923Y-138298323D01*
X134080685Y-138250704D01*
X133890209Y-138203085D01*
X133747352Y-138203085D01*
X133556876Y-138250704D01*
X133461638Y-138298323D01*
X133366400Y-138393561D01*
X133318780Y-138536419D01*
X133318780Y-138631657D01*
X133366400Y-138774514D01*
X133414019Y-138822133D01*
X133318780Y-139679276D02*
X133318780Y-139488800D01*
X133366400Y-139393561D01*
X133414019Y-139345942D01*
X133556876Y-139250704D01*
X133747352Y-139203085D01*
X134128304Y-139203085D01*
X134223542Y-139250704D01*
X134271161Y-139298323D01*
X134318780Y-139393561D01*
X134318780Y-139584038D01*
X134271161Y-139679276D01*
X134223542Y-139726895D01*
X134128304Y-139774514D01*
X133890209Y-139774514D01*
X133794971Y-139726895D01*
X133747352Y-139679276D01*
X133699733Y-139584038D01*
X133699733Y-139393561D01*
X133747352Y-139298323D01*
X133794971Y-139250704D01*
X133890209Y-139203085D01*
D11*
%TO.C,IC2*%
X188844161Y-93840323D02*
X188844161Y-92570323D01*
X187513685Y-93719371D02*
X187574161Y-93779847D01*
X187755590Y-93840323D01*
X187876542Y-93840323D01*
X188057971Y-93779847D01*
X188178923Y-93658895D01*
X188239400Y-93537942D01*
X188299876Y-93296038D01*
X188299876Y-93114609D01*
X188239400Y-92872704D01*
X188178923Y-92751752D01*
X188057971Y-92630800D01*
X187876542Y-92570323D01*
X187755590Y-92570323D01*
X187574161Y-92630800D01*
X187513685Y-92691276D01*
X187029876Y-92691276D02*
X186969400Y-92630800D01*
X186848447Y-92570323D01*
X186546066Y-92570323D01*
X186425114Y-92630800D01*
X186364638Y-92691276D01*
X186304161Y-92812228D01*
X186304161Y-92933180D01*
X186364638Y-93114609D01*
X187090352Y-93840323D01*
X186304161Y-93840323D01*
D10*
%TO.C,R6*%
X195938380Y-87246933D02*
X195462190Y-86913600D01*
X195938380Y-86675504D02*
X194938380Y-86675504D01*
X194938380Y-87056457D01*
X194986000Y-87151695D01*
X195033619Y-87199314D01*
X195128857Y-87246933D01*
X195271714Y-87246933D01*
X195366952Y-87199314D01*
X195414571Y-87151695D01*
X195462190Y-87056457D01*
X195462190Y-86675504D01*
X194938380Y-88104076D02*
X194938380Y-87913600D01*
X194986000Y-87818361D01*
X195033619Y-87770742D01*
X195176476Y-87675504D01*
X195366952Y-87627885D01*
X195747904Y-87627885D01*
X195843142Y-87675504D01*
X195890761Y-87723123D01*
X195938380Y-87818361D01*
X195938380Y-88008838D01*
X195890761Y-88104076D01*
X195843142Y-88151695D01*
X195747904Y-88199314D01*
X195509809Y-88199314D01*
X195414571Y-88151695D01*
X195366952Y-88104076D01*
X195319333Y-88008838D01*
X195319333Y-87818361D01*
X195366952Y-87723123D01*
X195414571Y-87675504D01*
X195509809Y-87627885D01*
%TO.C,Q2*%
X116028419Y-91058961D02*
X115980800Y-90963723D01*
X115885561Y-90868485D01*
X115742704Y-90725628D01*
X115695085Y-90630390D01*
X115695085Y-90535152D01*
X115933180Y-90582771D02*
X115885561Y-90487533D01*
X115790323Y-90392295D01*
X115599847Y-90344676D01*
X115266514Y-90344676D01*
X115076038Y-90392295D01*
X114980800Y-90487533D01*
X114933180Y-90582771D01*
X114933180Y-90773247D01*
X114980800Y-90868485D01*
X115076038Y-90963723D01*
X115266514Y-91011342D01*
X115599847Y-91011342D01*
X115790323Y-90963723D01*
X115885561Y-90868485D01*
X115933180Y-90773247D01*
X115933180Y-90582771D01*
X115028419Y-91392295D02*
X114980800Y-91439914D01*
X114933180Y-91535152D01*
X114933180Y-91773247D01*
X114980800Y-91868485D01*
X115028419Y-91916104D01*
X115123657Y-91963723D01*
X115218895Y-91963723D01*
X115361752Y-91916104D01*
X115933180Y-91344676D01*
X115933180Y-91963723D01*
%TO.C,R3*%
X152111866Y-68556380D02*
X152445200Y-68080190D01*
X152683295Y-68556380D02*
X152683295Y-67556380D01*
X152302342Y-67556380D01*
X152207104Y-67604000D01*
X152159485Y-67651619D01*
X152111866Y-67746857D01*
X152111866Y-67889714D01*
X152159485Y-67984952D01*
X152207104Y-68032571D01*
X152302342Y-68080190D01*
X152683295Y-68080190D01*
X151778533Y-67556380D02*
X151159485Y-67556380D01*
X151492819Y-67937333D01*
X151349961Y-67937333D01*
X151254723Y-67984952D01*
X151207104Y-68032571D01*
X151159485Y-68127809D01*
X151159485Y-68365904D01*
X151207104Y-68461142D01*
X151254723Y-68508761D01*
X151349961Y-68556380D01*
X151635676Y-68556380D01*
X151730914Y-68508761D01*
X151778533Y-68461142D01*
%TO.C,Q4*%
X116028419Y-141058961D02*
X115980800Y-140963723D01*
X115885561Y-140868485D01*
X115742704Y-140725628D01*
X115695085Y-140630390D01*
X115695085Y-140535152D01*
X115933180Y-140582771D02*
X115885561Y-140487533D01*
X115790323Y-140392295D01*
X115599847Y-140344676D01*
X115266514Y-140344676D01*
X115076038Y-140392295D01*
X114980800Y-140487533D01*
X114933180Y-140582771D01*
X114933180Y-140773247D01*
X114980800Y-140868485D01*
X115076038Y-140963723D01*
X115266514Y-141011342D01*
X115599847Y-141011342D01*
X115790323Y-140963723D01*
X115885561Y-140868485D01*
X115933180Y-140773247D01*
X115933180Y-140582771D01*
X115266514Y-141868485D02*
X115933180Y-141868485D01*
X114885561Y-141630390D02*
X115599847Y-141392295D01*
X115599847Y-142011342D01*
%TO.C,C7*%
X184697666Y-137881142D02*
X184745285Y-137928761D01*
X184888142Y-137976380D01*
X184983380Y-137976380D01*
X185126238Y-137928761D01*
X185221476Y-137833523D01*
X185269095Y-137738285D01*
X185316714Y-137547809D01*
X185316714Y-137404952D01*
X185269095Y-137214476D01*
X185221476Y-137119238D01*
X185126238Y-137024000D01*
X184983380Y-136976380D01*
X184888142Y-136976380D01*
X184745285Y-137024000D01*
X184697666Y-137071619D01*
X184364333Y-136976380D02*
X183697666Y-136976380D01*
X184126238Y-137976380D01*
%TO.C,Q7*%
X150115819Y-72205761D02*
X150068200Y-72110523D01*
X149972961Y-72015285D01*
X149830104Y-71872428D01*
X149782485Y-71777190D01*
X149782485Y-71681952D01*
X150020580Y-71729571D02*
X149972961Y-71634333D01*
X149877723Y-71539095D01*
X149687247Y-71491476D01*
X149353914Y-71491476D01*
X149163438Y-71539095D01*
X149068200Y-71634333D01*
X149020580Y-71729571D01*
X149020580Y-71920047D01*
X149068200Y-72015285D01*
X149163438Y-72110523D01*
X149353914Y-72158142D01*
X149687247Y-72158142D01*
X149877723Y-72110523D01*
X149972961Y-72015285D01*
X150020580Y-71920047D01*
X150020580Y-71729571D01*
X149020580Y-72491476D02*
X149020580Y-73158142D01*
X150020580Y-72729571D01*
%TO.C,R8*%
X196065380Y-137094933D02*
X195589190Y-136761600D01*
X196065380Y-136523504D02*
X195065380Y-136523504D01*
X195065380Y-136904457D01*
X195113000Y-136999695D01*
X195160619Y-137047314D01*
X195255857Y-137094933D01*
X195398714Y-137094933D01*
X195493952Y-137047314D01*
X195541571Y-136999695D01*
X195589190Y-136904457D01*
X195589190Y-136523504D01*
X195493952Y-137666361D02*
X195446333Y-137571123D01*
X195398714Y-137523504D01*
X195303476Y-137475885D01*
X195255857Y-137475885D01*
X195160619Y-137523504D01*
X195113000Y-137571123D01*
X195065380Y-137666361D01*
X195065380Y-137856838D01*
X195113000Y-137952076D01*
X195160619Y-137999695D01*
X195255857Y-138047314D01*
X195303476Y-138047314D01*
X195398714Y-137999695D01*
X195446333Y-137952076D01*
X195493952Y-137856838D01*
X195493952Y-137666361D01*
X195541571Y-137571123D01*
X195589190Y-137523504D01*
X195684428Y-137475885D01*
X195874904Y-137475885D01*
X195970142Y-137523504D01*
X196017761Y-137571123D01*
X196065380Y-137666361D01*
X196065380Y-137856838D01*
X196017761Y-137952076D01*
X195970142Y-137999695D01*
X195874904Y-138047314D01*
X195684428Y-138047314D01*
X195589190Y-137999695D01*
X195541571Y-137952076D01*
X195493952Y-137856838D01*
%TO.C,R2*%
X127079666Y-68472180D02*
X127413000Y-67995990D01*
X127651095Y-68472180D02*
X127651095Y-67472180D01*
X127270142Y-67472180D01*
X127174904Y-67519800D01*
X127127285Y-67567419D01*
X127079666Y-67662657D01*
X127079666Y-67805514D01*
X127127285Y-67900752D01*
X127174904Y-67948371D01*
X127270142Y-67995990D01*
X127651095Y-67995990D01*
X126698714Y-67567419D02*
X126651095Y-67519800D01*
X126555857Y-67472180D01*
X126317761Y-67472180D01*
X126222523Y-67519800D01*
X126174904Y-67567419D01*
X126127285Y-67662657D01*
X126127285Y-67757895D01*
X126174904Y-67900752D01*
X126746333Y-68472180D01*
X126127285Y-68472180D01*
%TO.C,J2*%
X158600733Y-123829380D02*
X158600733Y-124543666D01*
X158648352Y-124686523D01*
X158743590Y-124781761D01*
X158886447Y-124829380D01*
X158981685Y-124829380D01*
X158172161Y-123924619D02*
X158124542Y-123877000D01*
X158029304Y-123829380D01*
X157791209Y-123829380D01*
X157695971Y-123877000D01*
X157648352Y-123924619D01*
X157600733Y-124019857D01*
X157600733Y-124115095D01*
X157648352Y-124257952D01*
X158219780Y-124829380D01*
X157600733Y-124829380D01*
%TO.C,R5*%
X195531980Y-62164933D02*
X195055790Y-61831600D01*
X195531980Y-61593504D02*
X194531980Y-61593504D01*
X194531980Y-61974457D01*
X194579600Y-62069695D01*
X194627219Y-62117314D01*
X194722457Y-62164933D01*
X194865314Y-62164933D01*
X194960552Y-62117314D01*
X195008171Y-62069695D01*
X195055790Y-61974457D01*
X195055790Y-61593504D01*
X194531980Y-63069695D02*
X194531980Y-62593504D01*
X195008171Y-62545885D01*
X194960552Y-62593504D01*
X194912933Y-62688742D01*
X194912933Y-62926838D01*
X194960552Y-63022076D01*
X195008171Y-63069695D01*
X195103409Y-63117314D01*
X195341504Y-63117314D01*
X195436742Y-63069695D01*
X195484361Y-63022076D01*
X195531980Y-62926838D01*
X195531980Y-62688742D01*
X195484361Y-62593504D01*
X195436742Y-62545885D01*
%TO.C,Q13*%
X191482028Y-60462219D02*
X191577266Y-60414600D01*
X191672504Y-60319361D01*
X191815361Y-60176504D01*
X191910600Y-60128885D01*
X192005838Y-60128885D01*
X191958219Y-60366980D02*
X192053457Y-60319361D01*
X192148695Y-60224123D01*
X192196314Y-60033647D01*
X192196314Y-59700314D01*
X192148695Y-59509838D01*
X192053457Y-59414600D01*
X191958219Y-59366980D01*
X191767742Y-59366980D01*
X191672504Y-59414600D01*
X191577266Y-59509838D01*
X191529647Y-59700314D01*
X191529647Y-60033647D01*
X191577266Y-60224123D01*
X191672504Y-60319361D01*
X191767742Y-60366980D01*
X191958219Y-60366980D01*
X190577266Y-60366980D02*
X191148695Y-60366980D01*
X190862980Y-60366980D02*
X190862980Y-59366980D01*
X190958219Y-59509838D01*
X191053457Y-59605076D01*
X191148695Y-59652695D01*
X190243933Y-59366980D02*
X189624885Y-59366980D01*
X189958219Y-59747933D01*
X189815361Y-59747933D01*
X189720123Y-59795552D01*
X189672504Y-59843171D01*
X189624885Y-59938409D01*
X189624885Y-60176504D01*
X189672504Y-60271742D01*
X189720123Y-60319361D01*
X189815361Y-60366980D01*
X190101076Y-60366980D01*
X190196314Y-60319361D01*
X190243933Y-60271742D01*
D11*
%TO.C,IC1*%
X138552161Y-93781323D02*
X138552161Y-92511323D01*
X137221685Y-93660371D02*
X137282161Y-93720847D01*
X137463590Y-93781323D01*
X137584542Y-93781323D01*
X137765971Y-93720847D01*
X137886923Y-93599895D01*
X137947400Y-93478942D01*
X138007876Y-93237038D01*
X138007876Y-93055609D01*
X137947400Y-92813704D01*
X137886923Y-92692752D01*
X137765971Y-92571800D01*
X137584542Y-92511323D01*
X137463590Y-92511323D01*
X137282161Y-92571800D01*
X137221685Y-92632276D01*
X136012161Y-93781323D02*
X136737876Y-93781323D01*
X136375019Y-93781323D02*
X136375019Y-92511323D01*
X136495971Y-92692752D01*
X136616923Y-92813704D01*
X136737876Y-92874180D01*
D10*
%TO.C,R7*%
X195531980Y-112202933D02*
X195055790Y-111869600D01*
X195531980Y-111631504D02*
X194531980Y-111631504D01*
X194531980Y-112012457D01*
X194579600Y-112107695D01*
X194627219Y-112155314D01*
X194722457Y-112202933D01*
X194865314Y-112202933D01*
X194960552Y-112155314D01*
X195008171Y-112107695D01*
X195055790Y-112012457D01*
X195055790Y-111631504D01*
X194531980Y-112536266D02*
X194531980Y-113202933D01*
X195531980Y-112774361D01*
%TO.C,Q16*%
X192015428Y-135462219D02*
X192110666Y-135414600D01*
X192205904Y-135319361D01*
X192348761Y-135176504D01*
X192444000Y-135128885D01*
X192539238Y-135128885D01*
X192491619Y-135366980D02*
X192586857Y-135319361D01*
X192682095Y-135224123D01*
X192729714Y-135033647D01*
X192729714Y-134700314D01*
X192682095Y-134509838D01*
X192586857Y-134414600D01*
X192491619Y-134366980D01*
X192301142Y-134366980D01*
X192205904Y-134414600D01*
X192110666Y-134509838D01*
X192063047Y-134700314D01*
X192063047Y-135033647D01*
X192110666Y-135224123D01*
X192205904Y-135319361D01*
X192301142Y-135366980D01*
X192491619Y-135366980D01*
X191110666Y-135366980D02*
X191682095Y-135366980D01*
X191396380Y-135366980D02*
X191396380Y-134366980D01*
X191491619Y-134509838D01*
X191586857Y-134605076D01*
X191682095Y-134652695D01*
X190253523Y-134366980D02*
X190444000Y-134366980D01*
X190539238Y-134414600D01*
X190586857Y-134462219D01*
X190682095Y-134605076D01*
X190729714Y-134795552D01*
X190729714Y-135176504D01*
X190682095Y-135271742D01*
X190634476Y-135319361D01*
X190539238Y-135366980D01*
X190348761Y-135366980D01*
X190253523Y-135319361D01*
X190205904Y-135271742D01*
X190158285Y-135176504D01*
X190158285Y-134938409D01*
X190205904Y-134843171D01*
X190253523Y-134795552D01*
X190348761Y-134747933D01*
X190539238Y-134747933D01*
X190634476Y-134795552D01*
X190682095Y-134843171D01*
X190729714Y-134938409D01*
%TO.C,C5*%
X184261542Y-88939133D02*
X184309161Y-88891514D01*
X184356780Y-88748657D01*
X184356780Y-88653419D01*
X184309161Y-88510561D01*
X184213923Y-88415323D01*
X184118685Y-88367704D01*
X183928209Y-88320085D01*
X183785352Y-88320085D01*
X183594876Y-88367704D01*
X183499638Y-88415323D01*
X183404400Y-88510561D01*
X183356780Y-88653419D01*
X183356780Y-88748657D01*
X183404400Y-88891514D01*
X183452019Y-88939133D01*
X183356780Y-89843895D02*
X183356780Y-89367704D01*
X183832971Y-89320085D01*
X183785352Y-89367704D01*
X183737733Y-89462942D01*
X183737733Y-89701038D01*
X183785352Y-89796276D01*
X183832971Y-89843895D01*
X183928209Y-89891514D01*
X184166304Y-89891514D01*
X184261542Y-89843895D01*
X184309161Y-89796276D01*
X184356780Y-89701038D01*
X184356780Y-89462942D01*
X184309161Y-89367704D01*
X184261542Y-89320085D01*
%TO.C,U1*%
X119876884Y-99716542D02*
X119876884Y-100527660D01*
X119829172Y-100623086D01*
X119781459Y-100670798D01*
X119686033Y-100718511D01*
X119495182Y-100718511D01*
X119399756Y-100670798D01*
X119352044Y-100623086D01*
X119304331Y-100527660D01*
X119304331Y-99716542D01*
X118302362Y-100718511D02*
X118874915Y-100718511D01*
X118588639Y-100718511D02*
X118588639Y-99716542D01*
X118684064Y-99859681D01*
X118779490Y-99955106D01*
X118874915Y-100002819D01*
%TO.C,Q15*%
X191482028Y-110462219D02*
X191577266Y-110414600D01*
X191672504Y-110319361D01*
X191815361Y-110176504D01*
X191910600Y-110128885D01*
X192005838Y-110128885D01*
X191958219Y-110366980D02*
X192053457Y-110319361D01*
X192148695Y-110224123D01*
X192196314Y-110033647D01*
X192196314Y-109700314D01*
X192148695Y-109509838D01*
X192053457Y-109414600D01*
X191958219Y-109366980D01*
X191767742Y-109366980D01*
X191672504Y-109414600D01*
X191577266Y-109509838D01*
X191529647Y-109700314D01*
X191529647Y-110033647D01*
X191577266Y-110224123D01*
X191672504Y-110319361D01*
X191767742Y-110366980D01*
X191958219Y-110366980D01*
X190577266Y-110366980D02*
X191148695Y-110366980D01*
X190862980Y-110366980D02*
X190862980Y-109366980D01*
X190958219Y-109509838D01*
X191053457Y-109605076D01*
X191148695Y-109652695D01*
X189672504Y-109366980D02*
X190148695Y-109366980D01*
X190196314Y-109843171D01*
X190148695Y-109795552D01*
X190053457Y-109747933D01*
X189815361Y-109747933D01*
X189720123Y-109795552D01*
X189672504Y-109843171D01*
X189624885Y-109938409D01*
X189624885Y-110176504D01*
X189672504Y-110271742D01*
X189720123Y-110319361D01*
X189815361Y-110366980D01*
X190053457Y-110366980D01*
X190148695Y-110319361D01*
X190196314Y-110271742D01*
%TO.C,U2*%
X181941604Y-123691662D02*
X181941604Y-124502780D01*
X181893892Y-124598206D01*
X181846179Y-124645918D01*
X181750753Y-124693631D01*
X181559902Y-124693631D01*
X181464476Y-124645918D01*
X181416764Y-124598206D01*
X181369051Y-124502780D01*
X181369051Y-123691662D01*
X180939635Y-123787088D02*
X180891923Y-123739375D01*
X180796497Y-123691662D01*
X180557933Y-123691662D01*
X180462507Y-123739375D01*
X180414795Y-123787088D01*
X180367082Y-123882513D01*
X180367082Y-123977939D01*
X180414795Y-124121077D01*
X180987348Y-124693631D01*
X180367082Y-124693631D01*
%TO.C,Q14*%
X191888428Y-85462219D02*
X191983666Y-85414600D01*
X192078904Y-85319361D01*
X192221761Y-85176504D01*
X192317000Y-85128885D01*
X192412238Y-85128885D01*
X192364619Y-85366980D02*
X192459857Y-85319361D01*
X192555095Y-85224123D01*
X192602714Y-85033647D01*
X192602714Y-84700314D01*
X192555095Y-84509838D01*
X192459857Y-84414600D01*
X192364619Y-84366980D01*
X192174142Y-84366980D01*
X192078904Y-84414600D01*
X191983666Y-84509838D01*
X191936047Y-84700314D01*
X191936047Y-85033647D01*
X191983666Y-85224123D01*
X192078904Y-85319361D01*
X192174142Y-85366980D01*
X192364619Y-85366980D01*
X190983666Y-85366980D02*
X191555095Y-85366980D01*
X191269380Y-85366980D02*
X191269380Y-84366980D01*
X191364619Y-84509838D01*
X191459857Y-84605076D01*
X191555095Y-84652695D01*
X190126523Y-84700314D02*
X190126523Y-85366980D01*
X190364619Y-84319361D02*
X190602714Y-85033647D01*
X189983666Y-85033647D01*
%TO.C,Q6*%
X125020619Y-72102561D02*
X124973000Y-72007323D01*
X124877761Y-71912085D01*
X124734904Y-71769228D01*
X124687285Y-71673990D01*
X124687285Y-71578752D01*
X124925380Y-71626371D02*
X124877761Y-71531133D01*
X124782523Y-71435895D01*
X124592047Y-71388276D01*
X124258714Y-71388276D01*
X124068238Y-71435895D01*
X123973000Y-71531133D01*
X123925380Y-71626371D01*
X123925380Y-71816847D01*
X123973000Y-71912085D01*
X124068238Y-72007323D01*
X124258714Y-72054942D01*
X124592047Y-72054942D01*
X124782523Y-72007323D01*
X124877761Y-71912085D01*
X124925380Y-71816847D01*
X124925380Y-71626371D01*
X123925380Y-72912085D02*
X123925380Y-72721609D01*
X123973000Y-72626371D01*
X124020619Y-72578752D01*
X124163476Y-72483514D01*
X124353952Y-72435895D01*
X124734904Y-72435895D01*
X124830142Y-72483514D01*
X124877761Y-72531133D01*
X124925380Y-72626371D01*
X124925380Y-72816847D01*
X124877761Y-72912085D01*
X124830142Y-72959704D01*
X124734904Y-73007323D01*
X124496809Y-73007323D01*
X124401571Y-72959704D01*
X124353952Y-72912085D01*
X124306333Y-72816847D01*
X124306333Y-72626371D01*
X124353952Y-72531133D01*
X124401571Y-72483514D01*
X124496809Y-72435895D01*
%TO.C,Q9*%
X110669619Y-146640561D02*
X110622000Y-146545323D01*
X110526761Y-146450085D01*
X110383904Y-146307228D01*
X110336285Y-146211990D01*
X110336285Y-146116752D01*
X110574380Y-146164371D02*
X110526761Y-146069133D01*
X110431523Y-145973895D01*
X110241047Y-145926276D01*
X109907714Y-145926276D01*
X109717238Y-145973895D01*
X109622000Y-146069133D01*
X109574380Y-146164371D01*
X109574380Y-146354847D01*
X109622000Y-146450085D01*
X109717238Y-146545323D01*
X109907714Y-146592942D01*
X110241047Y-146592942D01*
X110431523Y-146545323D01*
X110526761Y-146450085D01*
X110574380Y-146354847D01*
X110574380Y-146164371D01*
X110574380Y-147069133D02*
X110574380Y-147259609D01*
X110526761Y-147354847D01*
X110479142Y-147402466D01*
X110336285Y-147497704D01*
X110145809Y-147545323D01*
X109764857Y-147545323D01*
X109669619Y-147497704D01*
X109622000Y-147450085D01*
X109574380Y-147354847D01*
X109574380Y-147164371D01*
X109622000Y-147069133D01*
X109669619Y-147021514D01*
X109764857Y-146973895D01*
X110002952Y-146973895D01*
X110098190Y-147021514D01*
X110145809Y-147069133D01*
X110193428Y-147164371D01*
X110193428Y-147354847D01*
X110145809Y-147450085D01*
X110098190Y-147497704D01*
X110002952Y-147545323D01*
%TO.C,Q11*%
X160656819Y-146113571D02*
X160609200Y-146018333D01*
X160513961Y-145923095D01*
X160371104Y-145780238D01*
X160323485Y-145685000D01*
X160323485Y-145589761D01*
X160561580Y-145637380D02*
X160513961Y-145542142D01*
X160418723Y-145446904D01*
X160228247Y-145399285D01*
X159894914Y-145399285D01*
X159704438Y-145446904D01*
X159609200Y-145542142D01*
X159561580Y-145637380D01*
X159561580Y-145827857D01*
X159609200Y-145923095D01*
X159704438Y-146018333D01*
X159894914Y-146065952D01*
X160228247Y-146065952D01*
X160418723Y-146018333D01*
X160513961Y-145923095D01*
X160561580Y-145827857D01*
X160561580Y-145637380D01*
X160561580Y-147018333D02*
X160561580Y-146446904D01*
X160561580Y-146732619D02*
X159561580Y-146732619D01*
X159704438Y-146637380D01*
X159799676Y-146542142D01*
X159847295Y-146446904D01*
X160561580Y-147970714D02*
X160561580Y-147399285D01*
X160561580Y-147685000D02*
X159561580Y-147685000D01*
X159704438Y-147589761D01*
X159799676Y-147494523D01*
X159847295Y-147399285D01*
%TO.C,Q5*%
X103798619Y-73920361D02*
X103751000Y-73825123D01*
X103655761Y-73729885D01*
X103512904Y-73587028D01*
X103465285Y-73491790D01*
X103465285Y-73396552D01*
X103703380Y-73444171D02*
X103655761Y-73348933D01*
X103560523Y-73253695D01*
X103370047Y-73206076D01*
X103036714Y-73206076D01*
X102846238Y-73253695D01*
X102751000Y-73348933D01*
X102703380Y-73444171D01*
X102703380Y-73634647D01*
X102751000Y-73729885D01*
X102846238Y-73825123D01*
X103036714Y-73872742D01*
X103370047Y-73872742D01*
X103560523Y-73825123D01*
X103655761Y-73729885D01*
X103703380Y-73634647D01*
X103703380Y-73444171D01*
X102703380Y-74777504D02*
X102703380Y-74301314D01*
X103179571Y-74253695D01*
X103131952Y-74301314D01*
X103084333Y-74396552D01*
X103084333Y-74634647D01*
X103131952Y-74729885D01*
X103179571Y-74777504D01*
X103274809Y-74825123D01*
X103512904Y-74825123D01*
X103608142Y-74777504D01*
X103655761Y-74729885D01*
X103703380Y-74634647D01*
X103703380Y-74396552D01*
X103655761Y-74301314D01*
X103608142Y-74253695D01*
%TO.C,Q1*%
X116028419Y-66058961D02*
X115980800Y-65963723D01*
X115885561Y-65868485D01*
X115742704Y-65725628D01*
X115695085Y-65630390D01*
X115695085Y-65535152D01*
X115933180Y-65582771D02*
X115885561Y-65487533D01*
X115790323Y-65392295D01*
X115599847Y-65344676D01*
X115266514Y-65344676D01*
X115076038Y-65392295D01*
X114980800Y-65487533D01*
X114933180Y-65582771D01*
X114933180Y-65773247D01*
X114980800Y-65868485D01*
X115076038Y-65963723D01*
X115266514Y-66011342D01*
X115599847Y-66011342D01*
X115790323Y-65963723D01*
X115885561Y-65868485D01*
X115933180Y-65773247D01*
X115933180Y-65582771D01*
X115933180Y-66963723D02*
X115933180Y-66392295D01*
X115933180Y-66678009D02*
X114933180Y-66678009D01*
X115076038Y-66582771D01*
X115171276Y-66487533D01*
X115218895Y-66392295D01*
D11*
%TO.C,IC4*%
X192171561Y-141138123D02*
X192171561Y-139868123D01*
X190841085Y-141017171D02*
X190901561Y-141077647D01*
X191082990Y-141138123D01*
X191203942Y-141138123D01*
X191385371Y-141077647D01*
X191506323Y-140956695D01*
X191566800Y-140835742D01*
X191627276Y-140593838D01*
X191627276Y-140412409D01*
X191566800Y-140170504D01*
X191506323Y-140049552D01*
X191385371Y-139928600D01*
X191203942Y-139868123D01*
X191082990Y-139868123D01*
X190901561Y-139928600D01*
X190841085Y-139989076D01*
X189752514Y-140291457D02*
X189752514Y-141138123D01*
X190054895Y-139807647D02*
X190357276Y-140714790D01*
X189571085Y-140714790D01*
D10*
%TO.C,U3*%
X154133189Y-92939579D02*
X154133189Y-93458389D01*
X154102671Y-93519425D01*
X154072153Y-93549944D01*
X154011116Y-93580462D01*
X153889043Y-93580462D01*
X153828007Y-93549944D01*
X153797489Y-93519425D01*
X153766970Y-93458389D01*
X153766970Y-92939579D01*
X153522825Y-92939579D02*
X153126087Y-92939579D01*
X153339715Y-93183725D01*
X153248160Y-93183725D01*
X153187124Y-93214243D01*
X153156606Y-93244761D01*
X153126087Y-93305798D01*
X153126087Y-93458389D01*
X153156606Y-93519425D01*
X153187124Y-93549944D01*
X153248160Y-93580462D01*
X153431270Y-93580462D01*
X153492306Y-93549944D01*
X153522825Y-93519425D01*
%TO.C,C3*%
X158017466Y-97617342D02*
X158065085Y-97664961D01*
X158207942Y-97712580D01*
X158303180Y-97712580D01*
X158446038Y-97664961D01*
X158541276Y-97569723D01*
X158588895Y-97474485D01*
X158636514Y-97284009D01*
X158636514Y-97141152D01*
X158588895Y-96950676D01*
X158541276Y-96855438D01*
X158446038Y-96760200D01*
X158303180Y-96712580D01*
X158207942Y-96712580D01*
X158065085Y-96760200D01*
X158017466Y-96807819D01*
X157684133Y-96712580D02*
X157065085Y-96712580D01*
X157398419Y-97093533D01*
X157255561Y-97093533D01*
X157160323Y-97141152D01*
X157112704Y-97188771D01*
X157065085Y-97284009D01*
X157065085Y-97522104D01*
X157112704Y-97617342D01*
X157160323Y-97664961D01*
X157255561Y-97712580D01*
X157541276Y-97712580D01*
X157636514Y-97664961D01*
X157684133Y-97617342D01*
%TO.C,R1*%
X103239866Y-68448180D02*
X103573200Y-67971990D01*
X103811295Y-68448180D02*
X103811295Y-67448180D01*
X103430342Y-67448180D01*
X103335104Y-67495800D01*
X103287485Y-67543419D01*
X103239866Y-67638657D01*
X103239866Y-67781514D01*
X103287485Y-67876752D01*
X103335104Y-67924371D01*
X103430342Y-67971990D01*
X103811295Y-67971990D01*
X102287485Y-68448180D02*
X102858914Y-68448180D01*
X102573200Y-68448180D02*
X102573200Y-67448180D01*
X102668438Y-67591038D01*
X102763676Y-67686276D01*
X102858914Y-67733895D01*
%TO.C,C1*%
X118082542Y-105156933D02*
X118130161Y-105109314D01*
X118177780Y-104966457D01*
X118177780Y-104871219D01*
X118130161Y-104728361D01*
X118034923Y-104633123D01*
X117939685Y-104585504D01*
X117749209Y-104537885D01*
X117606352Y-104537885D01*
X117415876Y-104585504D01*
X117320638Y-104633123D01*
X117225400Y-104728361D01*
X117177780Y-104871219D01*
X117177780Y-104966457D01*
X117225400Y-105109314D01*
X117273019Y-105156933D01*
X118177780Y-106109314D02*
X118177780Y-105537885D01*
X118177780Y-105823600D02*
X117177780Y-105823600D01*
X117320638Y-105728361D01*
X117415876Y-105633123D01*
X117463495Y-105537885D01*
D11*
%TO.C,IC3*%
X142031961Y-140680923D02*
X142031961Y-139410923D01*
X140701485Y-140559971D02*
X140761961Y-140620447D01*
X140943390Y-140680923D01*
X141064342Y-140680923D01*
X141245771Y-140620447D01*
X141366723Y-140499495D01*
X141427200Y-140378542D01*
X141487676Y-140136638D01*
X141487676Y-139955209D01*
X141427200Y-139713304D01*
X141366723Y-139592352D01*
X141245771Y-139471400D01*
X141064342Y-139410923D01*
X140943390Y-139410923D01*
X140761961Y-139471400D01*
X140701485Y-139531876D01*
X140278152Y-139410923D02*
X139491961Y-139410923D01*
X139915295Y-139894733D01*
X139733866Y-139894733D01*
X139612914Y-139955209D01*
X139552438Y-140015685D01*
X139491961Y-140136638D01*
X139491961Y-140439019D01*
X139552438Y-140559971D01*
X139612914Y-140620447D01*
X139733866Y-140680923D01*
X140096723Y-140680923D01*
X140217676Y-140620447D01*
X140278152Y-140559971D01*
D12*
%TO.C,J3*%
X152561600Y-61172400D02*
X147361600Y-61172400D01*
X147361600Y-60602400D02*
X147361600Y-61172400D01*
X152561600Y-58062400D02*
X152561600Y-59082400D01*
X147361600Y-52982400D02*
X147361600Y-54002400D01*
X152561600Y-50892400D02*
X147361600Y-50892400D01*
X147361600Y-55522400D02*
X147361600Y-56542400D01*
X152561600Y-55522400D02*
X152561600Y-56542400D01*
X154001600Y-51462400D02*
X152561600Y-51462400D01*
X147361600Y-50892400D02*
X147361600Y-51462400D01*
X152561600Y-60602400D02*
X152561600Y-61172400D01*
X152561600Y-50892400D02*
X152561600Y-51462400D01*
X152561600Y-52982400D02*
X152561600Y-54002400D01*
X147361600Y-58062400D02*
X147361600Y-59082400D01*
%TO.C,C4*%
X135386400Y-89223964D02*
X135386400Y-89439636D01*
X134666400Y-89223964D02*
X134666400Y-89439636D01*
%TO.C,C2*%
X181948148Y-122350200D02*
X182470652Y-122350200D01*
X181948148Y-120880200D02*
X182470652Y-120880200D01*
%TO.C,R4*%
X176909858Y-68655900D02*
X176435342Y-68655900D01*
X176909858Y-69700900D02*
X176435342Y-69700900D01*
%TO.C,J1*%
X166818000Y-103757000D02*
X166818000Y-104777000D01*
X172018000Y-99127000D02*
X166818000Y-99127000D01*
X166818000Y-108837000D02*
X166818000Y-109407000D01*
X166818000Y-106297000D02*
X166818000Y-107317000D01*
X172018000Y-106297000D02*
X172018000Y-107317000D01*
X172018000Y-108837000D02*
X172018000Y-109407000D01*
X172018000Y-99127000D02*
X172018000Y-99697000D01*
X172018000Y-101217000D02*
X172018000Y-102237000D01*
X172018000Y-103757000D02*
X172018000Y-104777000D01*
X172018000Y-109407000D02*
X166818000Y-109407000D01*
X173458000Y-99697000D02*
X172018000Y-99697000D01*
X166818000Y-101217000D02*
X166818000Y-102237000D01*
X166818000Y-99127000D02*
X166818000Y-99697000D01*
%TO.C,Q8*%
X175122400Y-71913600D02*
X175122400Y-70238600D01*
X175122400Y-71913600D02*
X175122400Y-72563600D01*
X178242400Y-71913600D02*
X178242400Y-72563600D01*
X178242400Y-71913600D02*
X178242400Y-71263600D01*
%TO.C,Q12*%
X189037400Y-146304000D02*
X189037400Y-146954000D01*
X185917400Y-146304000D02*
X185917400Y-146954000D01*
X189037400Y-146304000D02*
X189037400Y-145654000D01*
X185917400Y-146304000D02*
X185917400Y-144629000D01*
%TO.C,Q10*%
X139126400Y-146583400D02*
X139126400Y-147233400D01*
X136006400Y-146583400D02*
X136006400Y-144908400D01*
X136006400Y-146583400D02*
X136006400Y-147233400D01*
X139126400Y-146583400D02*
X139126400Y-145933400D01*
%TO.C,Q3*%
X111520800Y-116154200D02*
X111520800Y-116804200D01*
X111520800Y-116154200D02*
X111520800Y-115504200D01*
X114640800Y-116154200D02*
X114640800Y-115504200D01*
X114640800Y-116154200D02*
X114640800Y-117829200D01*
%TO.C,C6*%
X134666400Y-138880964D02*
X134666400Y-139096636D01*
X135386400Y-138880964D02*
X135386400Y-139096636D01*
D13*
%TO.C,IC2*%
X186677400Y-89236800D02*
X186677400Y-89736800D01*
X188277400Y-89736800D02*
X188277400Y-89236800D01*
X188277400Y-89236800D02*
X188277400Y-89236800D01*
D14*
X187977400Y-91286800D02*
X187977400Y-91286800D01*
D13*
X188277400Y-89236800D02*
X188277400Y-89736800D01*
D14*
X187977400Y-91186800D02*
X187977400Y-91186800D01*
D13*
X186677400Y-89736800D02*
X186677400Y-89236800D01*
X186677400Y-89236800D02*
X186677400Y-89236800D01*
X186677400Y-89736800D02*
X186677400Y-89736800D01*
D14*
X187977400Y-91286800D02*
X187977400Y-91286800D01*
D13*
X188277400Y-89736800D02*
X188277400Y-89736800D01*
D14*
X187977400Y-91186800D02*
G75*
G03*
X187977400Y-91286800I0J-50000D01*
G01*
X187977400Y-91186800D02*
G75*
G03*
X187977400Y-91286800I0J-50000D01*
G01*
X187977400Y-91286800D02*
G75*
G03*
X187977400Y-91186800I0J50000D01*
G01*
D12*
%TO.C,R6*%
X194578500Y-87650858D02*
X194578500Y-87176342D01*
X193533500Y-87650858D02*
X193533500Y-87176342D01*
%TO.C,Q2*%
X111520800Y-91154200D02*
X111520800Y-91804200D01*
X111520800Y-91154200D02*
X111520800Y-90504200D01*
X114640800Y-91154200D02*
X114640800Y-92829200D01*
X114640800Y-91154200D02*
X114640800Y-90504200D01*
%TO.C,R3*%
X152182458Y-70056500D02*
X151707942Y-70056500D01*
X152182458Y-69011500D02*
X151707942Y-69011500D01*
%TO.C,Q4*%
X111520800Y-141154200D02*
X111520800Y-140504200D01*
X111520800Y-141154200D02*
X111520800Y-141804200D01*
X114640800Y-141154200D02*
X114640800Y-140504200D01*
X114640800Y-141154200D02*
X114640800Y-142829200D01*
%TO.C,C7*%
X184638836Y-139044000D02*
X184423164Y-139044000D01*
X184638836Y-138324000D02*
X184423164Y-138324000D01*
%TO.C,Q7*%
X153528200Y-72301000D02*
X153528200Y-71651000D01*
X150408200Y-72301000D02*
X150408200Y-72951000D01*
X150408200Y-72301000D02*
X150408200Y-70626000D01*
X153528200Y-72301000D02*
X153528200Y-72951000D01*
%TO.C,R8*%
X193660500Y-137498858D02*
X193660500Y-137024342D01*
X194705500Y-137498858D02*
X194705500Y-137024342D01*
%TO.C,R2*%
X127150258Y-69972300D02*
X126675742Y-69972300D01*
X127150258Y-68927300D02*
X126675742Y-68927300D01*
%TO.C,J2*%
X160867400Y-121287000D02*
X160867400Y-120267000D01*
X155667400Y-118747000D02*
X155667400Y-117727000D01*
X154227400Y-122807000D02*
X155667400Y-122807000D01*
X160867400Y-116207000D02*
X160867400Y-115187000D01*
X155667400Y-113097000D02*
X160867400Y-113097000D01*
X155667400Y-113667000D02*
X155667400Y-113097000D01*
X160867400Y-123377000D02*
X160867400Y-122807000D01*
X155667400Y-121287000D02*
X155667400Y-120267000D01*
X155667400Y-123377000D02*
X160867400Y-123377000D01*
X155667400Y-116207000D02*
X155667400Y-115187000D01*
X155667400Y-123377000D02*
X155667400Y-122807000D01*
X160867400Y-113667000D02*
X160867400Y-113097000D01*
X160867400Y-118747000D02*
X160867400Y-117727000D01*
%TO.C,R5*%
X194172100Y-62568858D02*
X194172100Y-62094342D01*
X193127100Y-62568858D02*
X193127100Y-62094342D01*
%TO.C,Q13*%
X190910600Y-63874600D02*
X190260600Y-63874600D01*
X190910600Y-63874600D02*
X191560600Y-63874600D01*
X190910600Y-60754600D02*
X192585600Y-60754600D01*
X190910600Y-60754600D02*
X190260600Y-60754600D01*
D13*
%TO.C,IC1*%
X138239400Y-89804800D02*
X138239400Y-89804800D01*
X138239400Y-89304800D02*
X138239400Y-89804800D01*
X136639400Y-89804800D02*
X136639400Y-89804800D01*
X136639400Y-89804800D02*
X136639400Y-89304800D01*
D14*
X137939400Y-91254800D02*
X137939400Y-91254800D01*
D13*
X136639400Y-89304800D02*
X136639400Y-89804800D01*
X136639400Y-89304800D02*
X136639400Y-89304800D01*
D14*
X137939400Y-91354800D02*
X137939400Y-91354800D01*
X137939400Y-91354800D02*
X137939400Y-91354800D01*
D13*
X138239400Y-89804800D02*
X138239400Y-89304800D01*
X138239400Y-89304800D02*
X138239400Y-89304800D01*
D14*
X137939400Y-91254800D02*
G75*
G03*
X137939400Y-91354800I0J-50000D01*
G01*
X137939400Y-91354800D02*
G75*
G03*
X137939400Y-91254800I0J50000D01*
G01*
X137939400Y-91254800D02*
G75*
G03*
X137939400Y-91354800I0J-50000D01*
G01*
D12*
%TO.C,R7*%
X193127100Y-112606858D02*
X193127100Y-112132342D01*
X194172100Y-112606858D02*
X194172100Y-112132342D01*
%TO.C,Q16*%
X191444000Y-135754600D02*
X193119000Y-135754600D01*
X191444000Y-138874600D02*
X192094000Y-138874600D01*
X191444000Y-138874600D02*
X190794000Y-138874600D01*
X191444000Y-135754600D02*
X190794000Y-135754600D01*
%TO.C,C5*%
X184704400Y-88997964D02*
X184704400Y-89213636D01*
X185424400Y-88997964D02*
X185424400Y-89213636D01*
D15*
%TO.C,U1*%
X130556000Y-97673200D02*
X130556000Y-101584800D01*
D16*
X120396000Y-98028800D02*
X130556000Y-98028800D01*
D15*
X120396000Y-100264000D02*
X120396000Y-101584800D01*
X120396000Y-97673200D02*
X120396000Y-98994000D01*
X130556000Y-101584800D02*
X120396000Y-101584800D01*
X120396000Y-97673200D02*
X130556000Y-97673200D01*
X120396000Y-100264000D02*
G75*
G03*
X120396000Y-98994000I0J635000D01*
G01*
D12*
%TO.C,Q15*%
X190910600Y-113874600D02*
X190260600Y-113874600D01*
X190910600Y-113874600D02*
X191560600Y-113874600D01*
X190910600Y-110754600D02*
X190260600Y-110754600D01*
X190910600Y-110754600D02*
X192585600Y-110754600D01*
D15*
%TO.C,U2*%
X170027600Y-122920800D02*
X180187600Y-122920800D01*
X180187600Y-126832400D02*
X180187600Y-125511600D01*
X180187600Y-126832400D02*
X170027600Y-126832400D01*
X180187600Y-124241600D02*
X180187600Y-122920800D01*
X170027600Y-126832400D02*
X170027600Y-122920800D01*
D16*
X180187600Y-126476800D02*
X170027600Y-126476800D01*
D15*
X180187600Y-124241600D02*
G75*
G03*
X180187600Y-125511600I0J-635000D01*
G01*
D12*
%TO.C,Q14*%
X191317000Y-88874600D02*
X191967000Y-88874600D01*
X191317000Y-85754600D02*
X190667000Y-85754600D01*
X191317000Y-85754600D02*
X192992000Y-85754600D01*
X191317000Y-88874600D02*
X190667000Y-88874600D01*
%TO.C,Q6*%
X128433000Y-72197800D02*
X128433000Y-72847800D01*
X125313000Y-72197800D02*
X125313000Y-70522800D01*
X125313000Y-72197800D02*
X125313000Y-72847800D01*
X128433000Y-72197800D02*
X128433000Y-71547800D01*
%TO.C,Q9*%
X110962000Y-146735800D02*
X110962000Y-145060800D01*
X114082000Y-146735800D02*
X114082000Y-147385800D01*
X110962000Y-146735800D02*
X110962000Y-147385800D01*
X114082000Y-146735800D02*
X114082000Y-146085800D01*
%TO.C,Q11*%
X164069200Y-146685000D02*
X164069200Y-147335000D01*
X160949200Y-146685000D02*
X160949200Y-145010000D01*
X160949200Y-146685000D02*
X160949200Y-147335000D01*
X164069200Y-146685000D02*
X164069200Y-146035000D01*
%TO.C,Q5*%
X100370200Y-72263000D02*
X100370200Y-70588000D01*
X103490200Y-72263000D02*
X103490200Y-72913000D01*
X100370200Y-72263000D02*
X100370200Y-72913000D01*
X103490200Y-72263000D02*
X103490200Y-71613000D01*
%TO.C,Q1*%
X111520800Y-66154200D02*
X111520800Y-65504200D01*
X111520800Y-66154200D02*
X111520800Y-66804200D01*
X114640800Y-66154200D02*
X114640800Y-65504200D01*
X114640800Y-66154200D02*
X114640800Y-67829200D01*
D13*
%TO.C,IC4*%
X186677400Y-139619800D02*
X186677400Y-139119800D01*
X186677400Y-139119800D02*
X186677400Y-139119800D01*
X186677400Y-139619800D02*
X186677400Y-139619800D01*
X188277400Y-139619800D02*
X188277400Y-139619800D01*
D14*
X187977400Y-141169800D02*
X187977400Y-141169800D01*
X187977400Y-141169800D02*
X187977400Y-141169800D01*
D13*
X188277400Y-139619800D02*
X188277400Y-139119800D01*
X188277400Y-139119800D02*
X188277400Y-139119800D01*
X186677400Y-139119800D02*
X186677400Y-139619800D01*
D14*
X187977400Y-141069800D02*
X187977400Y-141069800D01*
D13*
X188277400Y-139119800D02*
X188277400Y-139619800D01*
D14*
X187977400Y-141169800D02*
G75*
G03*
X187977400Y-141069800I0J50000D01*
G01*
X187977400Y-141069800D02*
G75*
G03*
X187977400Y-141169800I0J-50000D01*
G01*
X187977400Y-141069800D02*
G75*
G03*
X187977400Y-141169800I0J-50000D01*
G01*
D17*
%TO.C,U3*%
X145672800Y-94204400D02*
X155672800Y-94204400D01*
X155672800Y-94204400D02*
X155672800Y-97704400D01*
X154672800Y-99704400D02*
X155672800Y-99704400D01*
X155672800Y-103204400D02*
X145672800Y-103204400D01*
X155672800Y-97704400D02*
X155672800Y-99704400D01*
X155672800Y-97704400D02*
X154672800Y-97704400D01*
X155672800Y-99704400D02*
X155672800Y-103204400D01*
X145672800Y-103204400D02*
X145672800Y-94204400D01*
X154672800Y-97704400D02*
X154672800Y-99704400D01*
D12*
%TO.C,C3*%
X157589548Y-94845200D02*
X158112052Y-94845200D01*
X157589548Y-96315200D02*
X158112052Y-96315200D01*
%TO.C,R1*%
X102080458Y-70056500D02*
X101605942Y-70056500D01*
X102080458Y-69011500D02*
X101605942Y-69011500D01*
%TO.C,C1*%
X120140400Y-105062348D02*
X120140400Y-105584852D01*
X118670400Y-105062348D02*
X118670400Y-105584852D01*
D13*
%TO.C,IC3*%
X138239400Y-139588800D02*
X138239400Y-139588800D01*
D14*
X137939400Y-141138800D02*
X137939400Y-141138800D01*
D13*
X136639400Y-139088800D02*
X136639400Y-139088800D01*
X138239400Y-139088800D02*
X138239400Y-139088800D01*
X138239400Y-139088800D02*
X138239400Y-139588800D01*
X136639400Y-139088800D02*
X136639400Y-139588800D01*
D14*
X137939400Y-141038800D02*
X137939400Y-141038800D01*
X137939400Y-141138800D02*
X137939400Y-141138800D01*
D13*
X136639400Y-139588800D02*
X136639400Y-139088800D01*
X136639400Y-139588800D02*
X136639400Y-139588800D01*
X138239400Y-139588800D02*
X138239400Y-139088800D01*
D14*
X137939400Y-141038800D02*
G75*
G03*
X137939400Y-141138800I0J-50000D01*
G01*
X137939400Y-141138800D02*
G75*
G03*
X137939400Y-141038800I0J50000D01*
G01*
X137939400Y-141038800D02*
G75*
G03*
X137939400Y-141138800I0J-50000D01*
G01*
%TD*%
M02*
