M48
; DRILL file {KiCad (6.0.2-0)} date Wednesday, 06 July 2022 at 16:44:42
; FORMAT={-:-/ absolute / inch / decimal}
; #@! TF.CreationDate,2022-07-06T16:44:42+02:00
; #@! TF.GenerationSoftware,Kicad,Pcbnew,(6.0.2-0)
; #@! TF.FileFunction,Plated,1,4,PTH
FMAT,2
INCH
; #@! TA.AperFunction,Plated,PTH,ViaDrill
T1C0.0157
%
G90
G05
T1
X3.9805Y-4.693
X3.988Y-2.685
X4.013Y-2.95
X4.057Y-4.727
X4.3898Y-4.9025
X4.3898Y-2.9345
X4.3909Y-5.8874
X4.3909Y-3.9195
X4.408Y-4.439
X4.408Y-2.471
X4.4091Y-5.4239
X4.4091Y-3.456
X4.4286Y-4.9036
X4.4286Y-2.9357
X4.4297Y-5.8886
X4.4297Y-3.9206
X4.449Y-4.427
X4.449Y-2.459
X4.4501Y-5.4119
X4.4501Y-3.444
X4.704Y-4.019
X4.832Y-3.7
X4.834Y-4.705
X4.842Y-3.74
X4.865Y-4.113
X4.875Y-3.77
X4.881Y-4.697
X4.9Y-2.82
X4.914Y-4.11
X4.9155Y-4.159
X4.919Y-5.588
X4.9235Y-4.697
X4.981Y-3.902
X4.984Y-4.15
X4.9842Y-3.9412
X4.99Y-2.681
X4.995Y-2.939
X4.998Y-3.725
X5.005Y-4.805
X5.094Y-3.971
X5.169Y-4.019
X5.3719Y-4.8984
X5.3719Y-2.9305
X5.3749Y-5.8814
X5.3749Y-3.9135
X5.3901Y-4.4349
X5.3901Y-2.467
X5.3931Y-5.4179
X5.3931Y-3.45
X5.4107Y-4.8996
X5.4107Y-2.9316
X5.4137Y-5.8826
X5.4137Y-3.9146
X5.4311Y-4.4229
X5.4311Y-2.455
X5.4341Y-5.4059
X5.4341Y-3.438
X5.856Y-5.604
X5.892Y-2.82
X5.893Y-3.848
X5.905Y-5.514
X5.971Y-3.847
X5.9802Y-2.6835
X5.983Y-2.944
X6.032Y-4.774
X6.106Y-2.017
X6.2207Y-3.8897
X6.3598Y-4.9009
X6.3598Y-2.933
X6.3609Y-5.8859
X6.3609Y-3.918
X6.378Y-4.4375
X6.378Y-2.4695
X6.3791Y-5.4224
X6.3791Y-3.4545
X6.3986Y-4.9021
X6.3986Y-2.9342
X6.3997Y-5.8871
X6.3997Y-3.9191
X6.419Y-4.4255
X6.419Y-2.4575
X6.4201Y-5.4104
X6.4201Y-3.4425
X6.608Y-5.855
X6.642Y-3.91
X6.769Y-5.082
X6.7823Y-5.1357
X6.816Y-5.686
X6.827Y-4.946
X6.845Y-3.902
X6.852Y-2.804
X6.861Y-4.578
X6.862Y-5.097
X6.882Y-5.682
X6.892Y-3.529
X6.8925Y-5.13
X6.938Y-5.572
X6.956Y-2.931
X6.9601Y-2.6752
X7.02Y-4.866
X7.067Y-4.864
X7.1315Y-5.8525
X7.1819Y-4.9238
X7.3419Y-4.8969
X7.3419Y-2.929
X7.3449Y-5.8799
X7.3449Y-3.912
X7.3601Y-4.4334
X7.3601Y-2.4655
X7.3631Y-5.4164
X7.3631Y-3.4485
X7.3807Y-4.8981
X7.3807Y-2.9301
X7.3837Y-5.8811
X7.3837Y-3.9131
X7.4011Y-4.4214
X7.4011Y-2.4535
X7.4041Y-5.4044
X7.4041Y-3.4365
X7.664Y-4.016
X7.678Y-3.072
X7.84Y-2.288
X7.848Y-5.269
T0
M30
