%TF.GenerationSoftware,KiCad,Pcbnew,(6.0.2)*%
%TF.CreationDate,2022-06-27T16:52:27+02:00*%
%TF.ProjectId,RowdyTestBoard2,526f7764-7954-4657-9374-426f61726432,rev?*%
%TF.SameCoordinates,Original*%
%TF.FileFunction,Soldermask,Bot*%
%TF.FilePolarity,Negative*%
%FSLAX46Y46*%
G04 Gerber Fmt 4.6, Leading zero omitted, Abs format (unit mm)*
G04 Created by KiCad (PCBNEW (6.0.2)) date 2022-06-27 16:52:27*
%MOMM*%
%LPD*%
G01*
G04 APERTURE LIST*
G04 Aperture macros list*
%AMRoundRect*
0 Rectangle with rounded corners*
0 $1 Rounding radius*
0 $2 $3 $4 $5 $6 $7 $8 $9 X,Y pos of 4 corners*
0 Add a 4 corners polygon primitive as box body*
4,1,4,$2,$3,$4,$5,$6,$7,$8,$9,$2,$3,0*
0 Add four circle primitives for the rounded corners*
1,1,$1+$1,$2,$3*
1,1,$1+$1,$4,$5*
1,1,$1+$1,$6,$7*
1,1,$1+$1,$8,$9*
0 Add four rect primitives between the rounded corners*
20,1,$1+$1,$2,$3,$4,$5,0*
20,1,$1+$1,$4,$5,$6,$7,0*
20,1,$1+$1,$6,$7,$8,$9,0*
20,1,$1+$1,$8,$9,$2,$3,0*%
G04 Aperture macros list end*
%ADD10R,3.150000X1.000000*%
%ADD11RoundRect,0.140000X-0.170000X0.140000X-0.170000X-0.140000X0.170000X-0.140000X0.170000X0.140000X0*%
%ADD12RoundRect,0.250000X-0.250000X-0.475000X0.250000X-0.475000X0.250000X0.475000X-0.250000X0.475000X0*%
%ADD13RoundRect,0.200000X0.200000X0.275000X-0.200000X0.275000X-0.200000X-0.275000X0.200000X-0.275000X0*%
%ADD14RoundRect,0.150000X-0.150000X0.587500X-0.150000X-0.587500X0.150000X-0.587500X0.150000X0.587500X0*%
%ADD15RoundRect,0.150000X0.150000X-0.587500X0.150000X0.587500X-0.150000X0.587500X-0.150000X-0.587500X0*%
%ADD16R,0.375000X0.500000*%
%ADD17RoundRect,0.200000X0.275000X-0.200000X0.275000X0.200000X-0.275000X0.200000X-0.275000X-0.200000X0*%
%ADD18RoundRect,0.140000X0.140000X0.170000X-0.140000X0.170000X-0.140000X-0.170000X0.140000X-0.170000X0*%
%ADD19RoundRect,0.150000X0.587500X0.150000X-0.587500X0.150000X-0.587500X-0.150000X0.587500X-0.150000X0*%
%ADD20R,0.600000X1.200000*%
%ADD21R,0.500000X2.000000*%
%ADD22RoundRect,0.250000X-0.475000X0.250000X-0.475000X-0.250000X0.475000X-0.250000X0.475000X0.250000X0*%
G04 APERTURE END LIST*
D10*
%TO.C,J3*%
X152486600Y-52222400D03*
X147436600Y-52222400D03*
X152486600Y-54762400D03*
X147436600Y-54762400D03*
X152486600Y-57302400D03*
X147436600Y-57302400D03*
X152486600Y-59842400D03*
X147436600Y-59842400D03*
%TD*%
D11*
%TO.C,C4*%
X135026400Y-88851800D03*
X135026400Y-89811800D03*
%TD*%
D12*
%TO.C,C2*%
X181259400Y-121615200D03*
X183159400Y-121615200D03*
%TD*%
D13*
%TO.C,R4*%
X177497600Y-69178400D03*
X175847600Y-69178400D03*
%TD*%
D10*
%TO.C,J1*%
X171943000Y-100457000D03*
X166893000Y-100457000D03*
X171943000Y-102997000D03*
X166893000Y-102997000D03*
X171943000Y-105537000D03*
X166893000Y-105537000D03*
X171943000Y-108077000D03*
X166893000Y-108077000D03*
%TD*%
D14*
%TO.C,Q8*%
X175732400Y-70976100D03*
X177632400Y-70976100D03*
X176682400Y-72851100D03*
%TD*%
%TO.C,Q12*%
X186527400Y-145366500D03*
X188427400Y-145366500D03*
X187477400Y-147241500D03*
%TD*%
%TO.C,Q10*%
X136616400Y-145645900D03*
X138516400Y-145645900D03*
X137566400Y-147520900D03*
%TD*%
D15*
%TO.C,Q3*%
X114030800Y-117091700D03*
X112130800Y-117091700D03*
X113080800Y-115216700D03*
%TD*%
D11*
%TO.C,C6*%
X135026400Y-138508800D03*
X135026400Y-139468800D03*
%TD*%
D16*
%TO.C,IC2*%
X187977400Y-90336800D03*
X187477400Y-90336800D03*
X186977400Y-90336800D03*
X186977400Y-88636800D03*
X187977400Y-88636800D03*
%TD*%
D17*
%TO.C,R6*%
X194056000Y-88238600D03*
X194056000Y-86588600D03*
%TD*%
D15*
%TO.C,Q2*%
X114030800Y-92091700D03*
X112130800Y-92091700D03*
X113080800Y-90216700D03*
%TD*%
D13*
%TO.C,R3*%
X152770200Y-69534000D03*
X151120200Y-69534000D03*
%TD*%
D15*
%TO.C,Q4*%
X114030800Y-142091700D03*
X112130800Y-142091700D03*
X113080800Y-140216700D03*
%TD*%
D18*
%TO.C,C7*%
X185011000Y-138684000D03*
X184051000Y-138684000D03*
%TD*%
D14*
%TO.C,Q7*%
X151018200Y-71363500D03*
X152918200Y-71363500D03*
X151968200Y-73238500D03*
%TD*%
D17*
%TO.C,R8*%
X194183000Y-138086600D03*
X194183000Y-136436600D03*
%TD*%
D13*
%TO.C,R2*%
X127738000Y-69449800D03*
X126088000Y-69449800D03*
%TD*%
D10*
%TO.C,J2*%
X155742400Y-122047000D03*
X160792400Y-122047000D03*
X155742400Y-119507000D03*
X160792400Y-119507000D03*
X155742400Y-116967000D03*
X160792400Y-116967000D03*
X155742400Y-114427000D03*
X160792400Y-114427000D03*
%TD*%
D17*
%TO.C,R5*%
X193649600Y-63156600D03*
X193649600Y-61506600D03*
%TD*%
D19*
%TO.C,Q13*%
X191848100Y-61364600D03*
X191848100Y-63264600D03*
X189973100Y-62314600D03*
%TD*%
D16*
%TO.C,IC1*%
X137939400Y-90404800D03*
X137439400Y-90404800D03*
X136939400Y-90404800D03*
X136939400Y-88704800D03*
X137939400Y-88704800D03*
%TD*%
D17*
%TO.C,R7*%
X193649600Y-113194600D03*
X193649600Y-111544600D03*
%TD*%
D19*
%TO.C,Q16*%
X192381500Y-136364600D03*
X192381500Y-138264600D03*
X190506500Y-137314600D03*
%TD*%
D11*
%TO.C,C5*%
X185064400Y-88625800D03*
X185064400Y-89585800D03*
%TD*%
D20*
%TO.C,U1*%
X121031000Y-96829000D03*
X122301000Y-96829000D03*
X123571000Y-96829000D03*
X124841000Y-96829000D03*
X126111000Y-96829000D03*
X127381000Y-96829000D03*
X128651000Y-96829000D03*
X129921000Y-96829000D03*
X129921000Y-102429000D03*
X128651000Y-102429000D03*
X127381000Y-102429000D03*
X126111000Y-102429000D03*
X124841000Y-102429000D03*
X123571000Y-102429000D03*
X122301000Y-102429000D03*
X121031000Y-102429000D03*
%TD*%
D19*
%TO.C,Q15*%
X191848100Y-111364600D03*
X191848100Y-113264600D03*
X189973100Y-112314600D03*
%TD*%
D20*
%TO.C,U2*%
X179552600Y-127676600D03*
X178282600Y-127676600D03*
X177012600Y-127676600D03*
X175742600Y-127676600D03*
X174472600Y-127676600D03*
X173202600Y-127676600D03*
X171932600Y-127676600D03*
X170662600Y-127676600D03*
X170662600Y-122076600D03*
X171932600Y-122076600D03*
X173202600Y-122076600D03*
X174472600Y-122076600D03*
X175742600Y-122076600D03*
X177012600Y-122076600D03*
X178282600Y-122076600D03*
X179552600Y-122076600D03*
%TD*%
D19*
%TO.C,Q14*%
X192254500Y-86364600D03*
X192254500Y-88264600D03*
X190379500Y-87314600D03*
%TD*%
D14*
%TO.C,Q6*%
X125923000Y-71260300D03*
X127823000Y-71260300D03*
X126873000Y-73135300D03*
%TD*%
%TO.C,Q9*%
X111572000Y-145798300D03*
X113472000Y-145798300D03*
X112522000Y-147673300D03*
%TD*%
%TO.C,Q11*%
X161559200Y-145747500D03*
X163459200Y-145747500D03*
X162509200Y-147622500D03*
%TD*%
%TO.C,Q5*%
X100980200Y-71325500D03*
X102880200Y-71325500D03*
X101930200Y-73200500D03*
%TD*%
D15*
%TO.C,Q1*%
X114030800Y-67091700D03*
X112130800Y-67091700D03*
X113080800Y-65216700D03*
%TD*%
D16*
%TO.C,IC4*%
X187977400Y-140219800D03*
X187477400Y-140219800D03*
X186977400Y-140219800D03*
X186977400Y-138519800D03*
X187977400Y-138519800D03*
%TD*%
D21*
%TO.C,U3*%
X155117800Y-101804400D03*
X153847800Y-101804400D03*
X152577800Y-101804400D03*
X151307800Y-101804400D03*
X150037800Y-101804400D03*
X148767800Y-101804400D03*
X147497800Y-101804400D03*
X146227800Y-101804400D03*
X146227800Y-95604400D03*
X147497800Y-95604400D03*
X148767800Y-95604400D03*
X150037800Y-95604400D03*
X151307800Y-95604400D03*
X152577800Y-95604400D03*
X153847800Y-95604400D03*
X155117800Y-95604400D03*
%TD*%
D12*
%TO.C,C3*%
X156900800Y-95580200D03*
X158800800Y-95580200D03*
%TD*%
D13*
%TO.C,R1*%
X102668200Y-69534000D03*
X101018200Y-69534000D03*
%TD*%
D22*
%TO.C,C1*%
X119405400Y-104373600D03*
X119405400Y-106273600D03*
%TD*%
D16*
%TO.C,IC3*%
X137939400Y-140188800D03*
X137439400Y-140188800D03*
X136939400Y-140188800D03*
X136939400Y-138488800D03*
X137939400Y-138488800D03*
%TD*%
M02*
