%TF.GenerationSoftware,KiCad,Pcbnew,(6.0.2)*%
%TF.CreationDate,2022-06-27T16:52:26+02:00*%
%TF.ProjectId,RowdyTestBoard2,526f7764-7954-4657-9374-426f61726432,rev?*%
%TF.SameCoordinates,Original*%
%TF.FileFunction,Legend,Top*%
%TF.FilePolarity,Positive*%
%FSLAX46Y46*%
G04 Gerber Fmt 4.6, Leading zero omitted, Abs format (unit mm)*
G04 Created by KiCad (PCBNEW (6.0.2)) date 2022-06-27 16:52:26*
%MOMM*%
%LPD*%
G01*
G04 APERTURE LIST*
%ADD10C,0.200000*%
%ADD11C,0.300000*%
%ADD12C,0.150000*%
G04 APERTURE END LIST*
D10*
X149445320Y-62397770D02*
G75*
G03*
X149445320Y-62397770I-12000000J0D01*
G01*
X174565525Y-87479980D02*
G75*
G03*
X174565525Y-87479980I-12000000J0D01*
G01*
X124499920Y-112486230D02*
G75*
G03*
X124499920Y-112486230I-12000000J0D01*
G01*
X124500000Y-62500000D02*
G75*
G03*
X124500000Y-62500000I-12000000J0D01*
G01*
X199559125Y-87327580D02*
G75*
G03*
X199559125Y-87327580I-12000000J0D01*
G01*
X124527920Y-87518370D02*
G75*
G03*
X124527920Y-87518370I-12000000J0D01*
G01*
X100101400Y-62500000D02*
X199644000Y-62500000D01*
X124527840Y-137504600D02*
G75*
G03*
X124527840Y-137504600I-12000000J0D01*
G01*
X199559045Y-137313810D02*
G75*
G03*
X199559045Y-137313810I-12000000J0D01*
G01*
X149521440Y-137352200D02*
G75*
G03*
X149521440Y-137352200I-12000000J0D01*
G01*
X149445240Y-112384000D02*
G75*
G03*
X149445240Y-112384000I-12000000J0D01*
G01*
X187502800Y-50215800D02*
X187500000Y-149758400D01*
X100228400Y-112500000D02*
X199771000Y-112496600D01*
X199482845Y-112345610D02*
G75*
G03*
X199482845Y-112345610I-12000000J0D01*
G01*
X162500000Y-50215800D02*
X162500000Y-149758400D01*
X149521520Y-87365970D02*
G75*
G03*
X149521520Y-87365970I-12000000J0D01*
G01*
X100228400Y-137500000D02*
X199771000Y-137490200D01*
X174565445Y-137466210D02*
G75*
G03*
X174565445Y-137466210I-12000000J0D01*
G01*
X174537525Y-112447840D02*
G75*
G03*
X174537525Y-112447840I-12000000J0D01*
G01*
X100228400Y-87500000D02*
X199771000Y-87500000D01*
X112496600Y-50215800D02*
X112500000Y-149783800D01*
X174537605Y-62461610D02*
G75*
G03*
X174537605Y-62461610I-12000000J0D01*
G01*
X199482925Y-62359380D02*
G75*
G03*
X199482925Y-62359380I-12000000J0D01*
G01*
X137500000Y-50215800D02*
X137500000Y-149733000D01*
D11*
X156229085Y-130980571D02*
X155371942Y-130980571D01*
X155800514Y-130980571D02*
X155800514Y-129480571D01*
X155657657Y-129694857D01*
X155514800Y-129837714D01*
X155371942Y-129909142D01*
X157586228Y-129480571D02*
X156871942Y-129480571D01*
X156800514Y-130194857D01*
X156871942Y-130123428D01*
X157014800Y-130052000D01*
X157371942Y-130052000D01*
X157514800Y-130123428D01*
X157586228Y-130194857D01*
X157657657Y-130337714D01*
X157657657Y-130694857D01*
X157586228Y-130837714D01*
X157514800Y-130909142D01*
X157371942Y-130980571D01*
X157014800Y-130980571D01*
X156871942Y-130909142D01*
X156800514Y-130837714D01*
D12*
X158972761Y-110535980D02*
X158972761Y-109535980D01*
X159448952Y-109869314D02*
X159448952Y-110535980D01*
X159448952Y-109964552D02*
X159496571Y-109916933D01*
X159591809Y-109869314D01*
X159734666Y-109869314D01*
X159829904Y-109916933D01*
X159877523Y-110012171D01*
X159877523Y-110535980D01*
X161020380Y-110631219D02*
X160925142Y-110583600D01*
X160829904Y-110488361D01*
X160687047Y-110345504D01*
X160591809Y-110297885D01*
X160496571Y-110297885D01*
X160544190Y-110535980D02*
X160448952Y-110488361D01*
X160353714Y-110393123D01*
X160306095Y-110202647D01*
X160306095Y-109869314D01*
X160353714Y-109678838D01*
X160448952Y-109583600D01*
X160544190Y-109535980D01*
X160734666Y-109535980D01*
X160829904Y-109583600D01*
X160925142Y-109678838D01*
X160972761Y-109869314D01*
X160972761Y-110202647D01*
X160925142Y-110393123D01*
X160829904Y-110488361D01*
X160734666Y-110535980D01*
X160544190Y-110535980D01*
X161306095Y-109535980D02*
X161972761Y-109535980D01*
X161544190Y-110535980D01*
X163306095Y-109535980D02*
X163496571Y-109535980D01*
X163591809Y-109583600D01*
X163687047Y-109678838D01*
X163734666Y-109869314D01*
X163734666Y-110202647D01*
X163687047Y-110393123D01*
X163591809Y-110488361D01*
X163496571Y-110535980D01*
X163306095Y-110535980D01*
X163210857Y-110488361D01*
X163115619Y-110393123D01*
X163068000Y-110202647D01*
X163068000Y-109869314D01*
X163115619Y-109678838D01*
X163210857Y-109583600D01*
X163306095Y-109535980D01*
X164591809Y-109869314D02*
X164591809Y-110535980D01*
X164163238Y-109869314D02*
X164163238Y-110393123D01*
X164210857Y-110488361D01*
X164306095Y-110535980D01*
X164448952Y-110535980D01*
X164544190Y-110488361D01*
X164591809Y-110440742D01*
X164925142Y-109869314D02*
X165306095Y-109869314D01*
X165068000Y-109535980D02*
X165068000Y-110393123D01*
X165115619Y-110488361D01*
X165210857Y-110535980D01*
X165306095Y-110535980D01*
X166306095Y-110631219D02*
X166210857Y-110583600D01*
X166115619Y-110488361D01*
X165972761Y-110345504D01*
X165877523Y-110297885D01*
X165782285Y-110297885D01*
X165829904Y-110535980D02*
X165734666Y-110488361D01*
X165639428Y-110393123D01*
X165591809Y-110202647D01*
X165591809Y-109869314D01*
X165639428Y-109678838D01*
X165734666Y-109583600D01*
X165829904Y-109535980D01*
X166020380Y-109535980D01*
X166115619Y-109583600D01*
X166210857Y-109678838D01*
X166258476Y-109869314D01*
X166258476Y-110202647D01*
X166210857Y-110393123D01*
X166115619Y-110488361D01*
X166020380Y-110535980D01*
X165829904Y-110535980D01*
X166591809Y-109535980D02*
X167210857Y-109535980D01*
X166877523Y-109916933D01*
X167020380Y-109916933D01*
X167115619Y-109964552D01*
X167163238Y-110012171D01*
X167210857Y-110107409D01*
X167210857Y-110345504D01*
X167163238Y-110440742D01*
X167115619Y-110488361D01*
X167020380Y-110535980D01*
X166734666Y-110535980D01*
X166639428Y-110488361D01*
X166591809Y-110440742D01*
X108909361Y-135377180D02*
X108909361Y-134377180D01*
X109385552Y-134710514D02*
X109385552Y-135377180D01*
X109385552Y-134805752D02*
X109433171Y-134758133D01*
X109528409Y-134710514D01*
X109671266Y-134710514D01*
X109766504Y-134758133D01*
X109814123Y-134853371D01*
X109814123Y-135377180D01*
X110956980Y-135472419D02*
X110861742Y-135424800D01*
X110766504Y-135329561D01*
X110623647Y-135186704D01*
X110528409Y-135139085D01*
X110433171Y-135139085D01*
X110480790Y-135377180D02*
X110385552Y-135329561D01*
X110290314Y-135234323D01*
X110242695Y-135043847D01*
X110242695Y-134710514D01*
X110290314Y-134520038D01*
X110385552Y-134424800D01*
X110480790Y-134377180D01*
X110671266Y-134377180D01*
X110766504Y-134424800D01*
X110861742Y-134520038D01*
X110909361Y-134710514D01*
X110909361Y-135043847D01*
X110861742Y-135234323D01*
X110766504Y-135329561D01*
X110671266Y-135377180D01*
X110480790Y-135377180D01*
X111814123Y-134377180D02*
X111337933Y-134377180D01*
X111290314Y-134853371D01*
X111337933Y-134805752D01*
X111433171Y-134758133D01*
X111671266Y-134758133D01*
X111766504Y-134805752D01*
X111814123Y-134853371D01*
X111861742Y-134948609D01*
X111861742Y-135186704D01*
X111814123Y-135281942D01*
X111766504Y-135329561D01*
X111671266Y-135377180D01*
X111433171Y-135377180D01*
X111337933Y-135329561D01*
X111290314Y-135281942D01*
X113242695Y-134377180D02*
X113433171Y-134377180D01*
X113528409Y-134424800D01*
X113623647Y-134520038D01*
X113671266Y-134710514D01*
X113671266Y-135043847D01*
X113623647Y-135234323D01*
X113528409Y-135329561D01*
X113433171Y-135377180D01*
X113242695Y-135377180D01*
X113147457Y-135329561D01*
X113052219Y-135234323D01*
X113004600Y-135043847D01*
X113004600Y-134710514D01*
X113052219Y-134520038D01*
X113147457Y-134424800D01*
X113242695Y-134377180D01*
X114528409Y-134710514D02*
X114528409Y-135377180D01*
X114099838Y-134710514D02*
X114099838Y-135234323D01*
X114147457Y-135329561D01*
X114242695Y-135377180D01*
X114385552Y-135377180D01*
X114480790Y-135329561D01*
X114528409Y-135281942D01*
X114861742Y-134710514D02*
X115242695Y-134710514D01*
X115004600Y-134377180D02*
X115004600Y-135234323D01*
X115052219Y-135329561D01*
X115147457Y-135377180D01*
X115242695Y-135377180D01*
X116242695Y-135472419D02*
X116147457Y-135424800D01*
X116052219Y-135329561D01*
X115909361Y-135186704D01*
X115814123Y-135139085D01*
X115718885Y-135139085D01*
X115766504Y-135377180D02*
X115671266Y-135329561D01*
X115576028Y-135234323D01*
X115528409Y-135043847D01*
X115528409Y-134710514D01*
X115576028Y-134520038D01*
X115671266Y-134424800D01*
X115766504Y-134377180D01*
X115956980Y-134377180D01*
X116052219Y-134424800D01*
X116147457Y-134520038D01*
X116195076Y-134710514D01*
X116195076Y-135043847D01*
X116147457Y-135234323D01*
X116052219Y-135329561D01*
X115956980Y-135377180D01*
X115766504Y-135377180D01*
X117052219Y-134710514D02*
X117052219Y-135377180D01*
X116814123Y-134329561D02*
X116576028Y-135043847D01*
X117195076Y-135043847D01*
X108909361Y-85415380D02*
X108909361Y-84415380D01*
X109385552Y-84748714D02*
X109385552Y-85415380D01*
X109385552Y-84843952D02*
X109433171Y-84796333D01*
X109528409Y-84748714D01*
X109671266Y-84748714D01*
X109766504Y-84796333D01*
X109814123Y-84891571D01*
X109814123Y-85415380D01*
X110956980Y-85510619D02*
X110861742Y-85463000D01*
X110766504Y-85367761D01*
X110623647Y-85224904D01*
X110528409Y-85177285D01*
X110433171Y-85177285D01*
X110480790Y-85415380D02*
X110385552Y-85367761D01*
X110290314Y-85272523D01*
X110242695Y-85082047D01*
X110242695Y-84748714D01*
X110290314Y-84558238D01*
X110385552Y-84463000D01*
X110480790Y-84415380D01*
X110671266Y-84415380D01*
X110766504Y-84463000D01*
X110861742Y-84558238D01*
X110909361Y-84748714D01*
X110909361Y-85082047D01*
X110861742Y-85272523D01*
X110766504Y-85367761D01*
X110671266Y-85415380D01*
X110480790Y-85415380D01*
X111814123Y-84415380D02*
X111337933Y-84415380D01*
X111290314Y-84891571D01*
X111337933Y-84843952D01*
X111433171Y-84796333D01*
X111671266Y-84796333D01*
X111766504Y-84843952D01*
X111814123Y-84891571D01*
X111861742Y-84986809D01*
X111861742Y-85224904D01*
X111814123Y-85320142D01*
X111766504Y-85367761D01*
X111671266Y-85415380D01*
X111433171Y-85415380D01*
X111337933Y-85367761D01*
X111290314Y-85320142D01*
X113242695Y-84415380D02*
X113433171Y-84415380D01*
X113528409Y-84463000D01*
X113623647Y-84558238D01*
X113671266Y-84748714D01*
X113671266Y-85082047D01*
X113623647Y-85272523D01*
X113528409Y-85367761D01*
X113433171Y-85415380D01*
X113242695Y-85415380D01*
X113147457Y-85367761D01*
X113052219Y-85272523D01*
X113004600Y-85082047D01*
X113004600Y-84748714D01*
X113052219Y-84558238D01*
X113147457Y-84463000D01*
X113242695Y-84415380D01*
X114528409Y-84748714D02*
X114528409Y-85415380D01*
X114099838Y-84748714D02*
X114099838Y-85272523D01*
X114147457Y-85367761D01*
X114242695Y-85415380D01*
X114385552Y-85415380D01*
X114480790Y-85367761D01*
X114528409Y-85320142D01*
X114861742Y-84748714D02*
X115242695Y-84748714D01*
X115004600Y-84415380D02*
X115004600Y-85272523D01*
X115052219Y-85367761D01*
X115147457Y-85415380D01*
X115242695Y-85415380D01*
X116242695Y-85510619D02*
X116147457Y-85463000D01*
X116052219Y-85367761D01*
X115909361Y-85224904D01*
X115814123Y-85177285D01*
X115718885Y-85177285D01*
X115766504Y-85415380D02*
X115671266Y-85367761D01*
X115576028Y-85272523D01*
X115528409Y-85082047D01*
X115528409Y-84748714D01*
X115576028Y-84558238D01*
X115671266Y-84463000D01*
X115766504Y-84415380D01*
X115956980Y-84415380D01*
X116052219Y-84463000D01*
X116147457Y-84558238D01*
X116195076Y-84748714D01*
X116195076Y-85082047D01*
X116147457Y-85272523D01*
X116052219Y-85367761D01*
X115956980Y-85415380D01*
X115766504Y-85415380D01*
X116576028Y-84510619D02*
X116623647Y-84463000D01*
X116718885Y-84415380D01*
X116956980Y-84415380D01*
X117052219Y-84463000D01*
X117099838Y-84510619D01*
X117147457Y-84605857D01*
X117147457Y-84701095D01*
X117099838Y-84843952D01*
X116528409Y-85415380D01*
X117147457Y-85415380D01*
X157250584Y-89368380D02*
X157441060Y-89368380D01*
X157530346Y-89416000D01*
X157613679Y-89511238D01*
X157637489Y-89701714D01*
X157595822Y-90035047D01*
X157524394Y-90225523D01*
X157417251Y-90320761D01*
X157316060Y-90368380D01*
X157125584Y-90368380D01*
X157036298Y-90320761D01*
X156952965Y-90225523D01*
X156929155Y-90035047D01*
X156970822Y-89701714D01*
X157042251Y-89511238D01*
X157149394Y-89416000D01*
X157250584Y-89368380D01*
X158494632Y-89701714D02*
X158411298Y-90368380D01*
X158066060Y-89701714D02*
X158000584Y-90225523D01*
X158036298Y-90320761D01*
X158125584Y-90368380D01*
X158268441Y-90368380D01*
X158369632Y-90320761D01*
X158423203Y-90273142D01*
X158827965Y-89701714D02*
X159208917Y-89701714D01*
X159012489Y-89368380D02*
X158905346Y-90225523D01*
X158941060Y-90320761D01*
X159030346Y-90368380D01*
X159125584Y-90368380D01*
X160113679Y-90463619D02*
X160024394Y-90416000D01*
X159941060Y-90320761D01*
X159816060Y-90177904D01*
X159726775Y-90130285D01*
X159631536Y-90130285D01*
X159649394Y-90368380D02*
X159560108Y-90320761D01*
X159476775Y-90225523D01*
X159452965Y-90035047D01*
X159494632Y-89701714D01*
X159566060Y-89511238D01*
X159673203Y-89416000D01*
X159774394Y-89368380D01*
X159964870Y-89368380D01*
X160054155Y-89416000D01*
X160137489Y-89511238D01*
X160161298Y-89701714D01*
X160119632Y-90035047D01*
X160048203Y-90225523D01*
X159941060Y-90320761D01*
X159839870Y-90368380D01*
X159649394Y-90368380D01*
X161030346Y-90368380D02*
X160458917Y-90368380D01*
X160744632Y-90368380D02*
X160869632Y-89368380D01*
X160756536Y-89511238D01*
X160649394Y-89606476D01*
X160548203Y-89654095D01*
X161982727Y-90368380D02*
X161411298Y-90368380D01*
X161697013Y-90368380D02*
X161822013Y-89368380D01*
X161708917Y-89511238D01*
X161601775Y-89606476D01*
X161500584Y-89654095D01*
X163173203Y-90368380D02*
X163298203Y-89368380D01*
X163732727Y-89701714D02*
X163649394Y-90368380D01*
X163720822Y-89796952D02*
X163774394Y-89749333D01*
X163875584Y-89701714D01*
X164018441Y-89701714D01*
X164107727Y-89749333D01*
X164143441Y-89844571D01*
X164077965Y-90368380D01*
X165208917Y-90463619D02*
X165119632Y-90416000D01*
X165036298Y-90320761D01*
X164911298Y-90177904D01*
X164822013Y-90130285D01*
X164726775Y-90130285D01*
X164744632Y-90368380D02*
X164655346Y-90320761D01*
X164572013Y-90225523D01*
X164548203Y-90035047D01*
X164589870Y-89701714D01*
X164661298Y-89511238D01*
X164768441Y-89416000D01*
X164869632Y-89368380D01*
X165060108Y-89368380D01*
X165149394Y-89416000D01*
X165232727Y-89511238D01*
X165256536Y-89701714D01*
X165214870Y-90035047D01*
X165143441Y-90225523D01*
X165036298Y-90320761D01*
X164935108Y-90368380D01*
X164744632Y-90368380D01*
X166125584Y-90368380D02*
X165554155Y-90368380D01*
X165839870Y-90368380D02*
X165964870Y-89368380D01*
X165851775Y-89511238D01*
X165744632Y-89606476D01*
X165643441Y-89654095D01*
X167066060Y-89701714D02*
X166982727Y-90368380D01*
X166875584Y-89320761D02*
X166548203Y-90035047D01*
X167167251Y-90035047D01*
X182218784Y-139431780D02*
X182409260Y-139431780D01*
X182498546Y-139479400D01*
X182581879Y-139574638D01*
X182605689Y-139765114D01*
X182564022Y-140098447D01*
X182492594Y-140288923D01*
X182385451Y-140384161D01*
X182284260Y-140431780D01*
X182093784Y-140431780D01*
X182004498Y-140384161D01*
X181921165Y-140288923D01*
X181897355Y-140098447D01*
X181939022Y-139765114D01*
X182010451Y-139574638D01*
X182117594Y-139479400D01*
X182218784Y-139431780D01*
X183462832Y-139765114D02*
X183379498Y-140431780D01*
X183034260Y-139765114D02*
X182968784Y-140288923D01*
X183004498Y-140384161D01*
X183093784Y-140431780D01*
X183236641Y-140431780D01*
X183337832Y-140384161D01*
X183391403Y-140336542D01*
X183796165Y-139765114D02*
X184177117Y-139765114D01*
X183980689Y-139431780D02*
X183873546Y-140288923D01*
X183909260Y-140384161D01*
X183998546Y-140431780D01*
X184093784Y-140431780D01*
X185081879Y-140527019D02*
X184992594Y-140479400D01*
X184909260Y-140384161D01*
X184784260Y-140241304D01*
X184694975Y-140193685D01*
X184599736Y-140193685D01*
X184617594Y-140431780D02*
X184528308Y-140384161D01*
X184444975Y-140288923D01*
X184421165Y-140098447D01*
X184462832Y-139765114D01*
X184534260Y-139574638D01*
X184641403Y-139479400D01*
X184742594Y-139431780D01*
X184933070Y-139431780D01*
X185022355Y-139479400D01*
X185105689Y-139574638D01*
X185129498Y-139765114D01*
X185087832Y-140098447D01*
X185016403Y-140288923D01*
X184909260Y-140384161D01*
X184808070Y-140431780D01*
X184617594Y-140431780D01*
X185998546Y-140431780D02*
X185427117Y-140431780D01*
X185712832Y-140431780D02*
X185837832Y-139431780D01*
X185724736Y-139574638D01*
X185617594Y-139669876D01*
X185516403Y-139717495D01*
X186492594Y-139527019D02*
X186546165Y-139479400D01*
X186647355Y-139431780D01*
X186885451Y-139431780D01*
X186974736Y-139479400D01*
X187016403Y-139527019D01*
X187052117Y-139622257D01*
X187040213Y-139717495D01*
X186974736Y-139860352D01*
X186331879Y-140431780D01*
X186950927Y-140431780D01*
X188141403Y-140431780D02*
X188266403Y-139431780D01*
X188700927Y-139765114D02*
X188617594Y-140431780D01*
X188689022Y-139860352D02*
X188742594Y-139812733D01*
X188843784Y-139765114D01*
X188986641Y-139765114D01*
X189075927Y-139812733D01*
X189111641Y-139907971D01*
X189046165Y-140431780D01*
X190177117Y-140527019D02*
X190087832Y-140479400D01*
X190004498Y-140384161D01*
X189879498Y-140241304D01*
X189790213Y-140193685D01*
X189694975Y-140193685D01*
X189712832Y-140431780D02*
X189623546Y-140384161D01*
X189540213Y-140288923D01*
X189516403Y-140098447D01*
X189558070Y-139765114D01*
X189629498Y-139574638D01*
X189736641Y-139479400D01*
X189837832Y-139431780D01*
X190028308Y-139431780D01*
X190117594Y-139479400D01*
X190200927Y-139574638D01*
X190224736Y-139765114D01*
X190183070Y-140098447D01*
X190111641Y-140288923D01*
X190004498Y-140384161D01*
X189903308Y-140431780D01*
X189712832Y-140431780D01*
X191093784Y-140431780D02*
X190522355Y-140431780D01*
X190808070Y-140431780D02*
X190933070Y-139431780D01*
X190819975Y-139574638D01*
X190712832Y-139669876D01*
X190611641Y-139717495D01*
X192075927Y-139431780D02*
X191885451Y-139431780D01*
X191784260Y-139479400D01*
X191730689Y-139527019D01*
X191617594Y-139669876D01*
X191546165Y-139860352D01*
X191498546Y-140241304D01*
X191534260Y-140336542D01*
X191575927Y-140384161D01*
X191665213Y-140431780D01*
X191855689Y-140431780D01*
X191956879Y-140384161D01*
X192010451Y-140336542D01*
X192069975Y-140241304D01*
X192099736Y-140003209D01*
X192064022Y-139907971D01*
X192022355Y-139860352D01*
X191933070Y-139812733D01*
X191742594Y-139812733D01*
X191641403Y-139860352D01*
X191587832Y-139907971D01*
X191528308Y-140003209D01*
X157174384Y-139431780D02*
X157364860Y-139431780D01*
X157454146Y-139479400D01*
X157537479Y-139574638D01*
X157561289Y-139765114D01*
X157519622Y-140098447D01*
X157448194Y-140288923D01*
X157341051Y-140384161D01*
X157239860Y-140431780D01*
X157049384Y-140431780D01*
X156960098Y-140384161D01*
X156876765Y-140288923D01*
X156852955Y-140098447D01*
X156894622Y-139765114D01*
X156966051Y-139574638D01*
X157073194Y-139479400D01*
X157174384Y-139431780D01*
X158418432Y-139765114D02*
X158335098Y-140431780D01*
X157989860Y-139765114D02*
X157924384Y-140288923D01*
X157960098Y-140384161D01*
X158049384Y-140431780D01*
X158192241Y-140431780D01*
X158293432Y-140384161D01*
X158347003Y-140336542D01*
X158751765Y-139765114D02*
X159132717Y-139765114D01*
X158936289Y-139431780D02*
X158829146Y-140288923D01*
X158864860Y-140384161D01*
X158954146Y-140431780D01*
X159049384Y-140431780D01*
X160037479Y-140527019D02*
X159948194Y-140479400D01*
X159864860Y-140384161D01*
X159739860Y-140241304D01*
X159650575Y-140193685D01*
X159555336Y-140193685D01*
X159573194Y-140431780D02*
X159483908Y-140384161D01*
X159400575Y-140288923D01*
X159376765Y-140098447D01*
X159418432Y-139765114D01*
X159489860Y-139574638D01*
X159597003Y-139479400D01*
X159698194Y-139431780D01*
X159888670Y-139431780D01*
X159977955Y-139479400D01*
X160061289Y-139574638D01*
X160085098Y-139765114D01*
X160043432Y-140098447D01*
X159972003Y-140288923D01*
X159864860Y-140384161D01*
X159763670Y-140431780D01*
X159573194Y-140431780D01*
X160954146Y-140431780D02*
X160382717Y-140431780D01*
X160668432Y-140431780D02*
X160793432Y-139431780D01*
X160680336Y-139574638D01*
X160573194Y-139669876D01*
X160472003Y-139717495D01*
X161906527Y-140431780D02*
X161335098Y-140431780D01*
X161620813Y-140431780D02*
X161745813Y-139431780D01*
X161632717Y-139574638D01*
X161525575Y-139669876D01*
X161424384Y-139717495D01*
X163097003Y-140431780D02*
X163222003Y-139431780D01*
X163656527Y-139765114D02*
X163573194Y-140431780D01*
X163644622Y-139860352D02*
X163698194Y-139812733D01*
X163799384Y-139765114D01*
X163942241Y-139765114D01*
X164031527Y-139812733D01*
X164067241Y-139907971D01*
X164001765Y-140431780D01*
X165132717Y-140527019D02*
X165043432Y-140479400D01*
X164960098Y-140384161D01*
X164835098Y-140241304D01*
X164745813Y-140193685D01*
X164650575Y-140193685D01*
X164668432Y-140431780D02*
X164579146Y-140384161D01*
X164495813Y-140288923D01*
X164472003Y-140098447D01*
X164513670Y-139765114D01*
X164585098Y-139574638D01*
X164692241Y-139479400D01*
X164793432Y-139431780D01*
X164983908Y-139431780D01*
X165073194Y-139479400D01*
X165156527Y-139574638D01*
X165180336Y-139765114D01*
X165138670Y-140098447D01*
X165067241Y-140288923D01*
X164960098Y-140384161D01*
X164858908Y-140431780D01*
X164668432Y-140431780D01*
X166049384Y-140431780D02*
X165477955Y-140431780D01*
X165763670Y-140431780D02*
X165888670Y-139431780D01*
X165775575Y-139574638D01*
X165668432Y-139669876D01*
X165567241Y-139717495D01*
X167031527Y-139431780D02*
X166841051Y-139431780D01*
X166739860Y-139479400D01*
X166686289Y-139527019D01*
X166573194Y-139669876D01*
X166501765Y-139860352D01*
X166454146Y-140241304D01*
X166489860Y-140336542D01*
X166531527Y-140384161D01*
X166620813Y-140431780D01*
X166811289Y-140431780D01*
X166912479Y-140384161D01*
X166966051Y-140336542D01*
X167025575Y-140241304D01*
X167055336Y-140003209D01*
X167019622Y-139907971D01*
X166977955Y-139860352D01*
X166888670Y-139812733D01*
X166698194Y-139812733D01*
X166597003Y-139860352D01*
X166543432Y-139907971D01*
X166483908Y-140003209D01*
X133928361Y-60421780D02*
X133928361Y-59421780D01*
X134404552Y-59755114D02*
X134404552Y-60421780D01*
X134404552Y-59850352D02*
X134452171Y-59802733D01*
X134547409Y-59755114D01*
X134690266Y-59755114D01*
X134785504Y-59802733D01*
X134833123Y-59897971D01*
X134833123Y-60421780D01*
X135975980Y-60517019D02*
X135880742Y-60469400D01*
X135785504Y-60374161D01*
X135642647Y-60231304D01*
X135547409Y-60183685D01*
X135452171Y-60183685D01*
X135499790Y-60421780D02*
X135404552Y-60374161D01*
X135309314Y-60278923D01*
X135261695Y-60088447D01*
X135261695Y-59755114D01*
X135309314Y-59564638D01*
X135404552Y-59469400D01*
X135499790Y-59421780D01*
X135690266Y-59421780D01*
X135785504Y-59469400D01*
X135880742Y-59564638D01*
X135928361Y-59755114D01*
X135928361Y-60088447D01*
X135880742Y-60278923D01*
X135785504Y-60374161D01*
X135690266Y-60421780D01*
X135499790Y-60421780D01*
X136785504Y-59421780D02*
X136595028Y-59421780D01*
X136499790Y-59469400D01*
X136452171Y-59517019D01*
X136356933Y-59659876D01*
X136309314Y-59850352D01*
X136309314Y-60231304D01*
X136356933Y-60326542D01*
X136404552Y-60374161D01*
X136499790Y-60421780D01*
X136690266Y-60421780D01*
X136785504Y-60374161D01*
X136833123Y-60326542D01*
X136880742Y-60231304D01*
X136880742Y-59993209D01*
X136833123Y-59897971D01*
X136785504Y-59850352D01*
X136690266Y-59802733D01*
X136499790Y-59802733D01*
X136404552Y-59850352D01*
X136356933Y-59897971D01*
X136309314Y-59993209D01*
X138261695Y-59421780D02*
X138452171Y-59421780D01*
X138547409Y-59469400D01*
X138642647Y-59564638D01*
X138690266Y-59755114D01*
X138690266Y-60088447D01*
X138642647Y-60278923D01*
X138547409Y-60374161D01*
X138452171Y-60421780D01*
X138261695Y-60421780D01*
X138166457Y-60374161D01*
X138071219Y-60278923D01*
X138023600Y-60088447D01*
X138023600Y-59755114D01*
X138071219Y-59564638D01*
X138166457Y-59469400D01*
X138261695Y-59421780D01*
X139547409Y-59755114D02*
X139547409Y-60421780D01*
X139118838Y-59755114D02*
X139118838Y-60278923D01*
X139166457Y-60374161D01*
X139261695Y-60421780D01*
X139404552Y-60421780D01*
X139499790Y-60374161D01*
X139547409Y-60326542D01*
X139880742Y-59755114D02*
X140261695Y-59755114D01*
X140023600Y-59421780D02*
X140023600Y-60278923D01*
X140071219Y-60374161D01*
X140166457Y-60421780D01*
X140261695Y-60421780D01*
X141261695Y-60517019D02*
X141166457Y-60469400D01*
X141071219Y-60374161D01*
X140928361Y-60231304D01*
X140833123Y-60183685D01*
X140737885Y-60183685D01*
X140785504Y-60421780D02*
X140690266Y-60374161D01*
X140595028Y-60278923D01*
X140547409Y-60088447D01*
X140547409Y-59755114D01*
X140595028Y-59564638D01*
X140690266Y-59469400D01*
X140785504Y-59421780D01*
X140975980Y-59421780D01*
X141071219Y-59469400D01*
X141166457Y-59564638D01*
X141214076Y-59755114D01*
X141214076Y-60088447D01*
X141166457Y-60278923D01*
X141071219Y-60374161D01*
X140975980Y-60421780D01*
X140785504Y-60421780D01*
X142166457Y-60421780D02*
X141595028Y-60421780D01*
X141880742Y-60421780D02*
X141880742Y-59421780D01*
X141785504Y-59564638D01*
X141690266Y-59659876D01*
X141595028Y-59707495D01*
X158972761Y-85440780D02*
X158972761Y-84440780D01*
X159448952Y-84774114D02*
X159448952Y-85440780D01*
X159448952Y-84869352D02*
X159496571Y-84821733D01*
X159591809Y-84774114D01*
X159734666Y-84774114D01*
X159829904Y-84821733D01*
X159877523Y-84916971D01*
X159877523Y-85440780D01*
X161020380Y-85536019D02*
X160925142Y-85488400D01*
X160829904Y-85393161D01*
X160687047Y-85250304D01*
X160591809Y-85202685D01*
X160496571Y-85202685D01*
X160544190Y-85440780D02*
X160448952Y-85393161D01*
X160353714Y-85297923D01*
X160306095Y-85107447D01*
X160306095Y-84774114D01*
X160353714Y-84583638D01*
X160448952Y-84488400D01*
X160544190Y-84440780D01*
X160734666Y-84440780D01*
X160829904Y-84488400D01*
X160925142Y-84583638D01*
X160972761Y-84774114D01*
X160972761Y-85107447D01*
X160925142Y-85297923D01*
X160829904Y-85393161D01*
X160734666Y-85440780D01*
X160544190Y-85440780D01*
X161306095Y-84440780D02*
X161972761Y-84440780D01*
X161544190Y-85440780D01*
X163306095Y-84440780D02*
X163496571Y-84440780D01*
X163591809Y-84488400D01*
X163687047Y-84583638D01*
X163734666Y-84774114D01*
X163734666Y-85107447D01*
X163687047Y-85297923D01*
X163591809Y-85393161D01*
X163496571Y-85440780D01*
X163306095Y-85440780D01*
X163210857Y-85393161D01*
X163115619Y-85297923D01*
X163068000Y-85107447D01*
X163068000Y-84774114D01*
X163115619Y-84583638D01*
X163210857Y-84488400D01*
X163306095Y-84440780D01*
X164591809Y-84774114D02*
X164591809Y-85440780D01*
X164163238Y-84774114D02*
X164163238Y-85297923D01*
X164210857Y-85393161D01*
X164306095Y-85440780D01*
X164448952Y-85440780D01*
X164544190Y-85393161D01*
X164591809Y-85345542D01*
X164925142Y-84774114D02*
X165306095Y-84774114D01*
X165068000Y-84440780D02*
X165068000Y-85297923D01*
X165115619Y-85393161D01*
X165210857Y-85440780D01*
X165306095Y-85440780D01*
X166306095Y-85536019D02*
X166210857Y-85488400D01*
X166115619Y-85393161D01*
X165972761Y-85250304D01*
X165877523Y-85202685D01*
X165782285Y-85202685D01*
X165829904Y-85440780D02*
X165734666Y-85393161D01*
X165639428Y-85297923D01*
X165591809Y-85107447D01*
X165591809Y-84774114D01*
X165639428Y-84583638D01*
X165734666Y-84488400D01*
X165829904Y-84440780D01*
X166020380Y-84440780D01*
X166115619Y-84488400D01*
X166210857Y-84583638D01*
X166258476Y-84774114D01*
X166258476Y-85107447D01*
X166210857Y-85297923D01*
X166115619Y-85393161D01*
X166020380Y-85440780D01*
X165829904Y-85440780D01*
X166639428Y-84536019D02*
X166687047Y-84488400D01*
X166782285Y-84440780D01*
X167020380Y-84440780D01*
X167115619Y-84488400D01*
X167163238Y-84536019D01*
X167210857Y-84631257D01*
X167210857Y-84726495D01*
X167163238Y-84869352D01*
X166591809Y-85440780D01*
X167210857Y-85440780D01*
X183788561Y-135453380D02*
X183788561Y-134453380D01*
X184264752Y-134786714D02*
X184264752Y-135453380D01*
X184264752Y-134881952D02*
X184312371Y-134834333D01*
X184407609Y-134786714D01*
X184550466Y-134786714D01*
X184645704Y-134834333D01*
X184693323Y-134929571D01*
X184693323Y-135453380D01*
X185836180Y-135548619D02*
X185740942Y-135501000D01*
X185645704Y-135405761D01*
X185502847Y-135262904D01*
X185407609Y-135215285D01*
X185312371Y-135215285D01*
X185359990Y-135453380D02*
X185264752Y-135405761D01*
X185169514Y-135310523D01*
X185121895Y-135120047D01*
X185121895Y-134786714D01*
X185169514Y-134596238D01*
X185264752Y-134501000D01*
X185359990Y-134453380D01*
X185550466Y-134453380D01*
X185645704Y-134501000D01*
X185740942Y-134596238D01*
X185788561Y-134786714D01*
X185788561Y-135120047D01*
X185740942Y-135310523D01*
X185645704Y-135405761D01*
X185550466Y-135453380D01*
X185359990Y-135453380D01*
X186359990Y-134881952D02*
X186264752Y-134834333D01*
X186217133Y-134786714D01*
X186169514Y-134691476D01*
X186169514Y-134643857D01*
X186217133Y-134548619D01*
X186264752Y-134501000D01*
X186359990Y-134453380D01*
X186550466Y-134453380D01*
X186645704Y-134501000D01*
X186693323Y-134548619D01*
X186740942Y-134643857D01*
X186740942Y-134691476D01*
X186693323Y-134786714D01*
X186645704Y-134834333D01*
X186550466Y-134881952D01*
X186359990Y-134881952D01*
X186264752Y-134929571D01*
X186217133Y-134977190D01*
X186169514Y-135072428D01*
X186169514Y-135262904D01*
X186217133Y-135358142D01*
X186264752Y-135405761D01*
X186359990Y-135453380D01*
X186550466Y-135453380D01*
X186645704Y-135405761D01*
X186693323Y-135358142D01*
X186740942Y-135262904D01*
X186740942Y-135072428D01*
X186693323Y-134977190D01*
X186645704Y-134929571D01*
X186550466Y-134881952D01*
X188121895Y-134453380D02*
X188312371Y-134453380D01*
X188407609Y-134501000D01*
X188502847Y-134596238D01*
X188550466Y-134786714D01*
X188550466Y-135120047D01*
X188502847Y-135310523D01*
X188407609Y-135405761D01*
X188312371Y-135453380D01*
X188121895Y-135453380D01*
X188026657Y-135405761D01*
X187931419Y-135310523D01*
X187883800Y-135120047D01*
X187883800Y-134786714D01*
X187931419Y-134596238D01*
X188026657Y-134501000D01*
X188121895Y-134453380D01*
X189407609Y-134786714D02*
X189407609Y-135453380D01*
X188979038Y-134786714D02*
X188979038Y-135310523D01*
X189026657Y-135405761D01*
X189121895Y-135453380D01*
X189264752Y-135453380D01*
X189359990Y-135405761D01*
X189407609Y-135358142D01*
X189740942Y-134786714D02*
X190121895Y-134786714D01*
X189883800Y-134453380D02*
X189883800Y-135310523D01*
X189931419Y-135405761D01*
X190026657Y-135453380D01*
X190121895Y-135453380D01*
X191121895Y-135548619D02*
X191026657Y-135501000D01*
X190931419Y-135405761D01*
X190788561Y-135262904D01*
X190693323Y-135215285D01*
X190598085Y-135215285D01*
X190645704Y-135453380D02*
X190550466Y-135405761D01*
X190455228Y-135310523D01*
X190407609Y-135120047D01*
X190407609Y-134786714D01*
X190455228Y-134596238D01*
X190550466Y-134501000D01*
X190645704Y-134453380D01*
X190836180Y-134453380D01*
X190931419Y-134501000D01*
X191026657Y-134596238D01*
X191074276Y-134786714D01*
X191074276Y-135120047D01*
X191026657Y-135310523D01*
X190931419Y-135405761D01*
X190836180Y-135453380D01*
X190645704Y-135453380D01*
X191931419Y-134786714D02*
X191931419Y-135453380D01*
X191693323Y-134405761D02*
X191455228Y-135120047D01*
X192074276Y-135120047D01*
X133979161Y-110485180D02*
X133979161Y-109485180D01*
X134455352Y-109818514D02*
X134455352Y-110485180D01*
X134455352Y-109913752D02*
X134502971Y-109866133D01*
X134598209Y-109818514D01*
X134741066Y-109818514D01*
X134836304Y-109866133D01*
X134883923Y-109961371D01*
X134883923Y-110485180D01*
X136026780Y-110580419D02*
X135931542Y-110532800D01*
X135836304Y-110437561D01*
X135693447Y-110294704D01*
X135598209Y-110247085D01*
X135502971Y-110247085D01*
X135550590Y-110485180D02*
X135455352Y-110437561D01*
X135360114Y-110342323D01*
X135312495Y-110151847D01*
X135312495Y-109818514D01*
X135360114Y-109628038D01*
X135455352Y-109532800D01*
X135550590Y-109485180D01*
X135741066Y-109485180D01*
X135836304Y-109532800D01*
X135931542Y-109628038D01*
X135979161Y-109818514D01*
X135979161Y-110151847D01*
X135931542Y-110342323D01*
X135836304Y-110437561D01*
X135741066Y-110485180D01*
X135550590Y-110485180D01*
X136836304Y-109485180D02*
X136645828Y-109485180D01*
X136550590Y-109532800D01*
X136502971Y-109580419D01*
X136407733Y-109723276D01*
X136360114Y-109913752D01*
X136360114Y-110294704D01*
X136407733Y-110389942D01*
X136455352Y-110437561D01*
X136550590Y-110485180D01*
X136741066Y-110485180D01*
X136836304Y-110437561D01*
X136883923Y-110389942D01*
X136931542Y-110294704D01*
X136931542Y-110056609D01*
X136883923Y-109961371D01*
X136836304Y-109913752D01*
X136741066Y-109866133D01*
X136550590Y-109866133D01*
X136455352Y-109913752D01*
X136407733Y-109961371D01*
X136360114Y-110056609D01*
X138312495Y-109485180D02*
X138502971Y-109485180D01*
X138598209Y-109532800D01*
X138693447Y-109628038D01*
X138741066Y-109818514D01*
X138741066Y-110151847D01*
X138693447Y-110342323D01*
X138598209Y-110437561D01*
X138502971Y-110485180D01*
X138312495Y-110485180D01*
X138217257Y-110437561D01*
X138122019Y-110342323D01*
X138074400Y-110151847D01*
X138074400Y-109818514D01*
X138122019Y-109628038D01*
X138217257Y-109532800D01*
X138312495Y-109485180D01*
X139598209Y-109818514D02*
X139598209Y-110485180D01*
X139169638Y-109818514D02*
X139169638Y-110342323D01*
X139217257Y-110437561D01*
X139312495Y-110485180D01*
X139455352Y-110485180D01*
X139550590Y-110437561D01*
X139598209Y-110389942D01*
X139931542Y-109818514D02*
X140312495Y-109818514D01*
X140074400Y-109485180D02*
X140074400Y-110342323D01*
X140122019Y-110437561D01*
X140217257Y-110485180D01*
X140312495Y-110485180D01*
X141312495Y-110580419D02*
X141217257Y-110532800D01*
X141122019Y-110437561D01*
X140979161Y-110294704D01*
X140883923Y-110247085D01*
X140788685Y-110247085D01*
X140836304Y-110485180D02*
X140741066Y-110437561D01*
X140645828Y-110342323D01*
X140598209Y-110151847D01*
X140598209Y-109818514D01*
X140645828Y-109628038D01*
X140741066Y-109532800D01*
X140836304Y-109485180D01*
X141026780Y-109485180D01*
X141122019Y-109532800D01*
X141217257Y-109628038D01*
X141264876Y-109818514D01*
X141264876Y-110151847D01*
X141217257Y-110342323D01*
X141122019Y-110437561D01*
X141026780Y-110485180D01*
X140836304Y-110485180D01*
X141598209Y-109485180D02*
X142217257Y-109485180D01*
X141883923Y-109866133D01*
X142026780Y-109866133D01*
X142122019Y-109913752D01*
X142169638Y-109961371D01*
X142217257Y-110056609D01*
X142217257Y-110294704D01*
X142169638Y-110389942D01*
X142122019Y-110437561D01*
X142026780Y-110485180D01*
X141741066Y-110485180D01*
X141645828Y-110437561D01*
X141598209Y-110389942D01*
D11*
X131041828Y-53982228D02*
X131113257Y-53910800D01*
X131256114Y-53839371D01*
X131613257Y-53839371D01*
X131756114Y-53910800D01*
X131827542Y-53982228D01*
X131898971Y-54125085D01*
X131898971Y-54267942D01*
X131827542Y-54482228D01*
X130970400Y-55339371D01*
X131898971Y-55339371D01*
X156319600Y-53839371D02*
X157248171Y-53839371D01*
X156748171Y-54410800D01*
X156962457Y-54410800D01*
X157105314Y-54482228D01*
X157176742Y-54553657D01*
X157248171Y-54696514D01*
X157248171Y-55053657D01*
X157176742Y-55196514D01*
X157105314Y-55267942D01*
X156962457Y-55339371D01*
X156533885Y-55339371D01*
X156391028Y-55267942D01*
X156319600Y-55196514D01*
D12*
X157301384Y-64400180D02*
X157491860Y-64400180D01*
X157581146Y-64447800D01*
X157664479Y-64543038D01*
X157688289Y-64733514D01*
X157646622Y-65066847D01*
X157575194Y-65257323D01*
X157468051Y-65352561D01*
X157366860Y-65400180D01*
X157176384Y-65400180D01*
X157087098Y-65352561D01*
X157003765Y-65257323D01*
X156979955Y-65066847D01*
X157021622Y-64733514D01*
X157093051Y-64543038D01*
X157200194Y-64447800D01*
X157301384Y-64400180D01*
X158545432Y-64733514D02*
X158462098Y-65400180D01*
X158116860Y-64733514D02*
X158051384Y-65257323D01*
X158087098Y-65352561D01*
X158176384Y-65400180D01*
X158319241Y-65400180D01*
X158420432Y-65352561D01*
X158474003Y-65304942D01*
X158878765Y-64733514D02*
X159259717Y-64733514D01*
X159063289Y-64400180D02*
X158956146Y-65257323D01*
X158991860Y-65352561D01*
X159081146Y-65400180D01*
X159176384Y-65400180D01*
X160164479Y-65495419D02*
X160075194Y-65447800D01*
X159991860Y-65352561D01*
X159866860Y-65209704D01*
X159777575Y-65162085D01*
X159682336Y-65162085D01*
X159700194Y-65400180D02*
X159610908Y-65352561D01*
X159527575Y-65257323D01*
X159503765Y-65066847D01*
X159545432Y-64733514D01*
X159616860Y-64543038D01*
X159724003Y-64447800D01*
X159825194Y-64400180D01*
X160015670Y-64400180D01*
X160104955Y-64447800D01*
X160188289Y-64543038D01*
X160212098Y-64733514D01*
X160170432Y-65066847D01*
X160099003Y-65257323D01*
X159991860Y-65352561D01*
X159890670Y-65400180D01*
X159700194Y-65400180D01*
X161081146Y-65400180D02*
X160509717Y-65400180D01*
X160795432Y-65400180D02*
X160920432Y-64400180D01*
X160807336Y-64543038D01*
X160700194Y-64638276D01*
X160599003Y-64685895D01*
X162033527Y-65400180D02*
X161462098Y-65400180D01*
X161747813Y-65400180D02*
X161872813Y-64400180D01*
X161759717Y-64543038D01*
X161652575Y-64638276D01*
X161551384Y-64685895D01*
X163224003Y-65400180D02*
X163349003Y-64400180D01*
X163783527Y-64733514D02*
X163700194Y-65400180D01*
X163771622Y-64828752D02*
X163825194Y-64781133D01*
X163926384Y-64733514D01*
X164069241Y-64733514D01*
X164158527Y-64781133D01*
X164194241Y-64876371D01*
X164128765Y-65400180D01*
X165259717Y-65495419D02*
X165170432Y-65447800D01*
X165087098Y-65352561D01*
X164962098Y-65209704D01*
X164872813Y-65162085D01*
X164777575Y-65162085D01*
X164795432Y-65400180D02*
X164706146Y-65352561D01*
X164622813Y-65257323D01*
X164599003Y-65066847D01*
X164640670Y-64733514D01*
X164712098Y-64543038D01*
X164819241Y-64447800D01*
X164920432Y-64400180D01*
X165110908Y-64400180D01*
X165200194Y-64447800D01*
X165283527Y-64543038D01*
X165307336Y-64733514D01*
X165265670Y-65066847D01*
X165194241Y-65257323D01*
X165087098Y-65352561D01*
X164985908Y-65400180D01*
X164795432Y-65400180D01*
X166176384Y-65400180D02*
X165604955Y-65400180D01*
X165890670Y-65400180D02*
X166015670Y-64400180D01*
X165902575Y-64543038D01*
X165795432Y-64638276D01*
X165694241Y-64685895D01*
X166634717Y-64400180D02*
X167253765Y-64400180D01*
X166872813Y-64781133D01*
X167015670Y-64781133D01*
X167104955Y-64828752D01*
X167146622Y-64876371D01*
X167182336Y-64971609D01*
X167152575Y-65209704D01*
X167093051Y-65304942D01*
X167039479Y-65352561D01*
X166938289Y-65400180D01*
X166652575Y-65400180D01*
X166563289Y-65352561D01*
X166521622Y-65304942D01*
D11*
X156330685Y-105961571D02*
X155473542Y-105961571D01*
X155902114Y-105961571D02*
X155902114Y-104461571D01*
X155759257Y-104675857D01*
X155616400Y-104818714D01*
X155473542Y-104890142D01*
X157759257Y-105961571D02*
X156902114Y-105961571D01*
X157330685Y-105961571D02*
X157330685Y-104461571D01*
X157187828Y-104675857D01*
X157044971Y-104818714D01*
X156902114Y-104890142D01*
D12*
X108171375Y-139355580D02*
X108361851Y-139355580D01*
X108451136Y-139403200D01*
X108534470Y-139498438D01*
X108558279Y-139688914D01*
X108516613Y-140022247D01*
X108445184Y-140212723D01*
X108338041Y-140307961D01*
X108236851Y-140355580D01*
X108046375Y-140355580D01*
X107957089Y-140307961D01*
X107873755Y-140212723D01*
X107849946Y-140022247D01*
X107891613Y-139688914D01*
X107963041Y-139498438D01*
X108070184Y-139403200D01*
X108171375Y-139355580D01*
X109415422Y-139688914D02*
X109332089Y-140355580D01*
X108986851Y-139688914D02*
X108921375Y-140212723D01*
X108957089Y-140307961D01*
X109046375Y-140355580D01*
X109189232Y-140355580D01*
X109290422Y-140307961D01*
X109343994Y-140260342D01*
X109748755Y-139688914D02*
X110129708Y-139688914D01*
X109933279Y-139355580D02*
X109826136Y-140212723D01*
X109861851Y-140307961D01*
X109951136Y-140355580D01*
X110046375Y-140355580D01*
X111034470Y-140450819D02*
X110945184Y-140403200D01*
X110861851Y-140307961D01*
X110736851Y-140165104D01*
X110647565Y-140117485D01*
X110552327Y-140117485D01*
X110570184Y-140355580D02*
X110480898Y-140307961D01*
X110397565Y-140212723D01*
X110373755Y-140022247D01*
X110415422Y-139688914D01*
X110486851Y-139498438D01*
X110593994Y-139403200D01*
X110695184Y-139355580D01*
X110885660Y-139355580D01*
X110974946Y-139403200D01*
X111058279Y-139498438D01*
X111082089Y-139688914D01*
X111040422Y-140022247D01*
X110968994Y-140212723D01*
X110861851Y-140307961D01*
X110760660Y-140355580D01*
X110570184Y-140355580D01*
X111474946Y-140355580D02*
X111665422Y-140355580D01*
X111766613Y-140307961D01*
X111820184Y-140260342D01*
X111933279Y-140117485D01*
X112004708Y-139927009D01*
X112052327Y-139546057D01*
X112016613Y-139450819D01*
X111974946Y-139403200D01*
X111885660Y-139355580D01*
X111695184Y-139355580D01*
X111593994Y-139403200D01*
X111540422Y-139450819D01*
X111480898Y-139546057D01*
X111451136Y-139784152D01*
X111486851Y-139879390D01*
X111528517Y-139927009D01*
X111617803Y-139974628D01*
X111808279Y-139974628D01*
X111909470Y-139927009D01*
X111963041Y-139879390D01*
X112022565Y-139784152D01*
X113141613Y-140355580D02*
X113266613Y-139355580D01*
X113701136Y-139688914D02*
X113617803Y-140355580D01*
X113689232Y-139784152D02*
X113742803Y-139736533D01*
X113843994Y-139688914D01*
X113986851Y-139688914D01*
X114076136Y-139736533D01*
X114111851Y-139831771D01*
X114046375Y-140355580D01*
X115177327Y-140450819D02*
X115088041Y-140403200D01*
X115004708Y-140307961D01*
X114879708Y-140165104D01*
X114790422Y-140117485D01*
X114695184Y-140117485D01*
X114713041Y-140355580D02*
X114623755Y-140307961D01*
X114540422Y-140212723D01*
X114516613Y-140022247D01*
X114558279Y-139688914D01*
X114629708Y-139498438D01*
X114736851Y-139403200D01*
X114838041Y-139355580D01*
X115028517Y-139355580D01*
X115117803Y-139403200D01*
X115201136Y-139498438D01*
X115224946Y-139688914D01*
X115183279Y-140022247D01*
X115111851Y-140212723D01*
X115004708Y-140307961D01*
X114903517Y-140355580D01*
X114713041Y-140355580D01*
X116093994Y-140355580D02*
X115522565Y-140355580D01*
X115808279Y-140355580D02*
X115933279Y-139355580D01*
X115820184Y-139498438D01*
X115713041Y-139593676D01*
X115611851Y-139641295D01*
X117076136Y-139355580D02*
X116885660Y-139355580D01*
X116784470Y-139403200D01*
X116730898Y-139450819D01*
X116617803Y-139593676D01*
X116546375Y-139784152D01*
X116498755Y-140165104D01*
X116534470Y-140260342D01*
X116576136Y-140307961D01*
X116665422Y-140355580D01*
X116855898Y-140355580D01*
X116957089Y-140307961D01*
X117010660Y-140260342D01*
X117070184Y-140165104D01*
X117099946Y-139927009D01*
X117064232Y-139831771D01*
X117022565Y-139784152D01*
X116933279Y-139736533D01*
X116742803Y-139736533D01*
X116641613Y-139784152D01*
X116588041Y-139831771D01*
X116528517Y-139927009D01*
X182218784Y-64400180D02*
X182409260Y-64400180D01*
X182498546Y-64447800D01*
X182581879Y-64543038D01*
X182605689Y-64733514D01*
X182564022Y-65066847D01*
X182492594Y-65257323D01*
X182385451Y-65352561D01*
X182284260Y-65400180D01*
X182093784Y-65400180D01*
X182004498Y-65352561D01*
X181921165Y-65257323D01*
X181897355Y-65066847D01*
X181939022Y-64733514D01*
X182010451Y-64543038D01*
X182117594Y-64447800D01*
X182218784Y-64400180D01*
X183462832Y-64733514D02*
X183379498Y-65400180D01*
X183034260Y-64733514D02*
X182968784Y-65257323D01*
X183004498Y-65352561D01*
X183093784Y-65400180D01*
X183236641Y-65400180D01*
X183337832Y-65352561D01*
X183391403Y-65304942D01*
X183796165Y-64733514D02*
X184177117Y-64733514D01*
X183980689Y-64400180D02*
X183873546Y-65257323D01*
X183909260Y-65352561D01*
X183998546Y-65400180D01*
X184093784Y-65400180D01*
X185081879Y-65495419D02*
X184992594Y-65447800D01*
X184909260Y-65352561D01*
X184784260Y-65209704D01*
X184694975Y-65162085D01*
X184599736Y-65162085D01*
X184617594Y-65400180D02*
X184528308Y-65352561D01*
X184444975Y-65257323D01*
X184421165Y-65066847D01*
X184462832Y-64733514D01*
X184534260Y-64543038D01*
X184641403Y-64447800D01*
X184742594Y-64400180D01*
X184933070Y-64400180D01*
X185022355Y-64447800D01*
X185105689Y-64543038D01*
X185129498Y-64733514D01*
X185087832Y-65066847D01*
X185016403Y-65257323D01*
X184909260Y-65352561D01*
X184808070Y-65400180D01*
X184617594Y-65400180D01*
X185998546Y-65400180D02*
X185427117Y-65400180D01*
X185712832Y-65400180D02*
X185837832Y-64400180D01*
X185724736Y-64543038D01*
X185617594Y-64638276D01*
X185516403Y-64685895D01*
X186492594Y-64495419D02*
X186546165Y-64447800D01*
X186647355Y-64400180D01*
X186885451Y-64400180D01*
X186974736Y-64447800D01*
X187016403Y-64495419D01*
X187052117Y-64590657D01*
X187040213Y-64685895D01*
X186974736Y-64828752D01*
X186331879Y-65400180D01*
X186950927Y-65400180D01*
X188141403Y-65400180D02*
X188266403Y-64400180D01*
X188700927Y-64733514D02*
X188617594Y-65400180D01*
X188689022Y-64828752D02*
X188742594Y-64781133D01*
X188843784Y-64733514D01*
X188986641Y-64733514D01*
X189075927Y-64781133D01*
X189111641Y-64876371D01*
X189046165Y-65400180D01*
X190177117Y-65495419D02*
X190087832Y-65447800D01*
X190004498Y-65352561D01*
X189879498Y-65209704D01*
X189790213Y-65162085D01*
X189694975Y-65162085D01*
X189712832Y-65400180D02*
X189623546Y-65352561D01*
X189540213Y-65257323D01*
X189516403Y-65066847D01*
X189558070Y-64733514D01*
X189629498Y-64543038D01*
X189736641Y-64447800D01*
X189837832Y-64400180D01*
X190028308Y-64400180D01*
X190117594Y-64447800D01*
X190200927Y-64543038D01*
X190224736Y-64733514D01*
X190183070Y-65066847D01*
X190111641Y-65257323D01*
X190004498Y-65352561D01*
X189903308Y-65400180D01*
X189712832Y-65400180D01*
X191093784Y-65400180D02*
X190522355Y-65400180D01*
X190808070Y-65400180D02*
X190933070Y-64400180D01*
X190819975Y-64543038D01*
X190712832Y-64638276D01*
X190611641Y-64685895D01*
X191552117Y-64400180D02*
X192171165Y-64400180D01*
X191790213Y-64781133D01*
X191933070Y-64781133D01*
X192022355Y-64828752D01*
X192064022Y-64876371D01*
X192099736Y-64971609D01*
X192069975Y-65209704D01*
X192010451Y-65304942D01*
X191956879Y-65352561D01*
X191855689Y-65400180D01*
X191569975Y-65400180D01*
X191480689Y-65352561D01*
X191439022Y-65304942D01*
X132256984Y-64323980D02*
X132447460Y-64323980D01*
X132536746Y-64371600D01*
X132620079Y-64466838D01*
X132643889Y-64657314D01*
X132602222Y-64990647D01*
X132530794Y-65181123D01*
X132423651Y-65276361D01*
X132322460Y-65323980D01*
X132131984Y-65323980D01*
X132042698Y-65276361D01*
X131959365Y-65181123D01*
X131935555Y-64990647D01*
X131977222Y-64657314D01*
X132048651Y-64466838D01*
X132155794Y-64371600D01*
X132256984Y-64323980D01*
X133501032Y-64657314D02*
X133417698Y-65323980D01*
X133072460Y-64657314D02*
X133006984Y-65181123D01*
X133042698Y-65276361D01*
X133131984Y-65323980D01*
X133274841Y-65323980D01*
X133376032Y-65276361D01*
X133429603Y-65228742D01*
X133834365Y-64657314D02*
X134215317Y-64657314D01*
X134018889Y-64323980D02*
X133911746Y-65181123D01*
X133947460Y-65276361D01*
X134036746Y-65323980D01*
X134131984Y-65323980D01*
X135120079Y-65419219D02*
X135030794Y-65371600D01*
X134947460Y-65276361D01*
X134822460Y-65133504D01*
X134733175Y-65085885D01*
X134637936Y-65085885D01*
X134655794Y-65323980D02*
X134566508Y-65276361D01*
X134483175Y-65181123D01*
X134459365Y-64990647D01*
X134501032Y-64657314D01*
X134572460Y-64466838D01*
X134679603Y-64371600D01*
X134780794Y-64323980D01*
X134971270Y-64323980D01*
X135060555Y-64371600D01*
X135143889Y-64466838D01*
X135167698Y-64657314D01*
X135126032Y-64990647D01*
X135054603Y-65181123D01*
X134947460Y-65276361D01*
X134846270Y-65323980D01*
X134655794Y-65323980D01*
X136036746Y-65323980D02*
X135465317Y-65323980D01*
X135751032Y-65323980D02*
X135876032Y-64323980D01*
X135762936Y-64466838D01*
X135655794Y-64562076D01*
X135554603Y-64609695D01*
X136780794Y-64323980D02*
X136876032Y-64323980D01*
X136965317Y-64371600D01*
X137006984Y-64419219D01*
X137042698Y-64514457D01*
X137066508Y-64704933D01*
X137036746Y-64943028D01*
X136965317Y-65133504D01*
X136905794Y-65228742D01*
X136852222Y-65276361D01*
X136751032Y-65323980D01*
X136655794Y-65323980D01*
X136566508Y-65276361D01*
X136524841Y-65228742D01*
X136489127Y-65133504D01*
X136465317Y-64943028D01*
X136495079Y-64704933D01*
X136566508Y-64514457D01*
X136626032Y-64419219D01*
X136679603Y-64371600D01*
X136780794Y-64323980D01*
X138179603Y-65323980D02*
X138304603Y-64323980D01*
X138739127Y-64657314D02*
X138655794Y-65323980D01*
X138727222Y-64752552D02*
X138780794Y-64704933D01*
X138881984Y-64657314D01*
X139024841Y-64657314D01*
X139114127Y-64704933D01*
X139149841Y-64800171D01*
X139084365Y-65323980D01*
X140215317Y-65419219D02*
X140126032Y-65371600D01*
X140042698Y-65276361D01*
X139917698Y-65133504D01*
X139828413Y-65085885D01*
X139733175Y-65085885D01*
X139751032Y-65323980D02*
X139661746Y-65276361D01*
X139578413Y-65181123D01*
X139554603Y-64990647D01*
X139596270Y-64657314D01*
X139667698Y-64466838D01*
X139774841Y-64371600D01*
X139876032Y-64323980D01*
X140066508Y-64323980D01*
X140155794Y-64371600D01*
X140239127Y-64466838D01*
X140262936Y-64657314D01*
X140221270Y-64990647D01*
X140149841Y-65181123D01*
X140042698Y-65276361D01*
X139941508Y-65323980D01*
X139751032Y-65323980D01*
X141131984Y-65323980D02*
X140560555Y-65323980D01*
X140846270Y-65323980D02*
X140971270Y-64323980D01*
X140858175Y-64466838D01*
X140751032Y-64562076D01*
X140649841Y-64609695D01*
X141590317Y-64323980D02*
X142209365Y-64323980D01*
X141828413Y-64704933D01*
X141971270Y-64704933D01*
X142060555Y-64752552D01*
X142102222Y-64800171D01*
X142137936Y-64895409D01*
X142108175Y-65133504D01*
X142048651Y-65228742D01*
X141995079Y-65276361D01*
X141893889Y-65323980D01*
X141608175Y-65323980D01*
X141518889Y-65276361D01*
X141477222Y-65228742D01*
D11*
X106089485Y-131209171D02*
X105232342Y-131209171D01*
X105660914Y-131209171D02*
X105660914Y-129709171D01*
X105518057Y-129923457D01*
X105375200Y-130066314D01*
X105232342Y-130137742D01*
X106589485Y-129709171D02*
X107518057Y-129709171D01*
X107018057Y-130280600D01*
X107232342Y-130280600D01*
X107375200Y-130352028D01*
X107446628Y-130423457D01*
X107518057Y-130566314D01*
X107518057Y-130923457D01*
X107446628Y-131066314D01*
X107375200Y-131137742D01*
X107232342Y-131209171D01*
X106803771Y-131209171D01*
X106660914Y-131137742D01*
X106589485Y-131066314D01*
X130879885Y-130980571D02*
X130022742Y-130980571D01*
X130451314Y-130980571D02*
X130451314Y-129480571D01*
X130308457Y-129694857D01*
X130165600Y-129837714D01*
X130022742Y-129909142D01*
X132165600Y-129980571D02*
X132165600Y-130980571D01*
X131808457Y-129409142D02*
X131451314Y-130480571D01*
X132379885Y-130480571D01*
D12*
X133979161Y-85389980D02*
X133979161Y-84389980D01*
X134455352Y-84723314D02*
X134455352Y-85389980D01*
X134455352Y-84818552D02*
X134502971Y-84770933D01*
X134598209Y-84723314D01*
X134741066Y-84723314D01*
X134836304Y-84770933D01*
X134883923Y-84866171D01*
X134883923Y-85389980D01*
X136026780Y-85485219D02*
X135931542Y-85437600D01*
X135836304Y-85342361D01*
X135693447Y-85199504D01*
X135598209Y-85151885D01*
X135502971Y-85151885D01*
X135550590Y-85389980D02*
X135455352Y-85342361D01*
X135360114Y-85247123D01*
X135312495Y-85056647D01*
X135312495Y-84723314D01*
X135360114Y-84532838D01*
X135455352Y-84437600D01*
X135550590Y-84389980D01*
X135741066Y-84389980D01*
X135836304Y-84437600D01*
X135931542Y-84532838D01*
X135979161Y-84723314D01*
X135979161Y-85056647D01*
X135931542Y-85247123D01*
X135836304Y-85342361D01*
X135741066Y-85389980D01*
X135550590Y-85389980D01*
X136836304Y-84389980D02*
X136645828Y-84389980D01*
X136550590Y-84437600D01*
X136502971Y-84485219D01*
X136407733Y-84628076D01*
X136360114Y-84818552D01*
X136360114Y-85199504D01*
X136407733Y-85294742D01*
X136455352Y-85342361D01*
X136550590Y-85389980D01*
X136741066Y-85389980D01*
X136836304Y-85342361D01*
X136883923Y-85294742D01*
X136931542Y-85199504D01*
X136931542Y-84961409D01*
X136883923Y-84866171D01*
X136836304Y-84818552D01*
X136741066Y-84770933D01*
X136550590Y-84770933D01*
X136455352Y-84818552D01*
X136407733Y-84866171D01*
X136360114Y-84961409D01*
X138312495Y-84389980D02*
X138502971Y-84389980D01*
X138598209Y-84437600D01*
X138693447Y-84532838D01*
X138741066Y-84723314D01*
X138741066Y-85056647D01*
X138693447Y-85247123D01*
X138598209Y-85342361D01*
X138502971Y-85389980D01*
X138312495Y-85389980D01*
X138217257Y-85342361D01*
X138122019Y-85247123D01*
X138074400Y-85056647D01*
X138074400Y-84723314D01*
X138122019Y-84532838D01*
X138217257Y-84437600D01*
X138312495Y-84389980D01*
X139598209Y-84723314D02*
X139598209Y-85389980D01*
X139169638Y-84723314D02*
X139169638Y-85247123D01*
X139217257Y-85342361D01*
X139312495Y-85389980D01*
X139455352Y-85389980D01*
X139550590Y-85342361D01*
X139598209Y-85294742D01*
X139931542Y-84723314D02*
X140312495Y-84723314D01*
X140074400Y-84389980D02*
X140074400Y-85247123D01*
X140122019Y-85342361D01*
X140217257Y-85389980D01*
X140312495Y-85389980D01*
X141312495Y-85485219D02*
X141217257Y-85437600D01*
X141122019Y-85342361D01*
X140979161Y-85199504D01*
X140883923Y-85151885D01*
X140788685Y-85151885D01*
X140836304Y-85389980D02*
X140741066Y-85342361D01*
X140645828Y-85247123D01*
X140598209Y-85056647D01*
X140598209Y-84723314D01*
X140645828Y-84532838D01*
X140741066Y-84437600D01*
X140836304Y-84389980D01*
X141026780Y-84389980D01*
X141122019Y-84437600D01*
X141217257Y-84532838D01*
X141264876Y-84723314D01*
X141264876Y-85056647D01*
X141217257Y-85247123D01*
X141122019Y-85342361D01*
X141026780Y-85389980D01*
X140836304Y-85389980D01*
X141645828Y-84485219D02*
X141693447Y-84437600D01*
X141788685Y-84389980D01*
X142026780Y-84389980D01*
X142122019Y-84437600D01*
X142169638Y-84485219D01*
X142217257Y-84580457D01*
X142217257Y-84675695D01*
X142169638Y-84818552D01*
X141598209Y-85389980D01*
X142217257Y-85389980D01*
X183737761Y-60523380D02*
X183737761Y-59523380D01*
X184213952Y-59856714D02*
X184213952Y-60523380D01*
X184213952Y-59951952D02*
X184261571Y-59904333D01*
X184356809Y-59856714D01*
X184499666Y-59856714D01*
X184594904Y-59904333D01*
X184642523Y-59999571D01*
X184642523Y-60523380D01*
X185785380Y-60618619D02*
X185690142Y-60571000D01*
X185594904Y-60475761D01*
X185452047Y-60332904D01*
X185356809Y-60285285D01*
X185261571Y-60285285D01*
X185309190Y-60523380D02*
X185213952Y-60475761D01*
X185118714Y-60380523D01*
X185071095Y-60190047D01*
X185071095Y-59856714D01*
X185118714Y-59666238D01*
X185213952Y-59571000D01*
X185309190Y-59523380D01*
X185499666Y-59523380D01*
X185594904Y-59571000D01*
X185690142Y-59666238D01*
X185737761Y-59856714D01*
X185737761Y-60190047D01*
X185690142Y-60380523D01*
X185594904Y-60475761D01*
X185499666Y-60523380D01*
X185309190Y-60523380D01*
X186309190Y-59951952D02*
X186213952Y-59904333D01*
X186166333Y-59856714D01*
X186118714Y-59761476D01*
X186118714Y-59713857D01*
X186166333Y-59618619D01*
X186213952Y-59571000D01*
X186309190Y-59523380D01*
X186499666Y-59523380D01*
X186594904Y-59571000D01*
X186642523Y-59618619D01*
X186690142Y-59713857D01*
X186690142Y-59761476D01*
X186642523Y-59856714D01*
X186594904Y-59904333D01*
X186499666Y-59951952D01*
X186309190Y-59951952D01*
X186213952Y-59999571D01*
X186166333Y-60047190D01*
X186118714Y-60142428D01*
X186118714Y-60332904D01*
X186166333Y-60428142D01*
X186213952Y-60475761D01*
X186309190Y-60523380D01*
X186499666Y-60523380D01*
X186594904Y-60475761D01*
X186642523Y-60428142D01*
X186690142Y-60332904D01*
X186690142Y-60142428D01*
X186642523Y-60047190D01*
X186594904Y-59999571D01*
X186499666Y-59951952D01*
X188071095Y-59523380D02*
X188261571Y-59523380D01*
X188356809Y-59571000D01*
X188452047Y-59666238D01*
X188499666Y-59856714D01*
X188499666Y-60190047D01*
X188452047Y-60380523D01*
X188356809Y-60475761D01*
X188261571Y-60523380D01*
X188071095Y-60523380D01*
X187975857Y-60475761D01*
X187880619Y-60380523D01*
X187833000Y-60190047D01*
X187833000Y-59856714D01*
X187880619Y-59666238D01*
X187975857Y-59571000D01*
X188071095Y-59523380D01*
X189356809Y-59856714D02*
X189356809Y-60523380D01*
X188928238Y-59856714D02*
X188928238Y-60380523D01*
X188975857Y-60475761D01*
X189071095Y-60523380D01*
X189213952Y-60523380D01*
X189309190Y-60475761D01*
X189356809Y-60428142D01*
X189690142Y-59856714D02*
X190071095Y-59856714D01*
X189833000Y-59523380D02*
X189833000Y-60380523D01*
X189880619Y-60475761D01*
X189975857Y-60523380D01*
X190071095Y-60523380D01*
X191071095Y-60618619D02*
X190975857Y-60571000D01*
X190880619Y-60475761D01*
X190737761Y-60332904D01*
X190642523Y-60285285D01*
X190547285Y-60285285D01*
X190594904Y-60523380D02*
X190499666Y-60475761D01*
X190404428Y-60380523D01*
X190356809Y-60190047D01*
X190356809Y-59856714D01*
X190404428Y-59666238D01*
X190499666Y-59571000D01*
X190594904Y-59523380D01*
X190785380Y-59523380D01*
X190880619Y-59571000D01*
X190975857Y-59666238D01*
X191023476Y-59856714D01*
X191023476Y-60190047D01*
X190975857Y-60380523D01*
X190880619Y-60475761D01*
X190785380Y-60523380D01*
X190594904Y-60523380D01*
X191975857Y-60523380D02*
X191404428Y-60523380D01*
X191690142Y-60523380D02*
X191690142Y-59523380D01*
X191594904Y-59666238D01*
X191499666Y-59761476D01*
X191404428Y-59809095D01*
D11*
X181679885Y-105758371D02*
X180822742Y-105758371D01*
X181251314Y-105758371D02*
X181251314Y-104258371D01*
X181108457Y-104472657D01*
X180965600Y-104615514D01*
X180822742Y-104686942D01*
X182251314Y-104401228D02*
X182322742Y-104329800D01*
X182465600Y-104258371D01*
X182822742Y-104258371D01*
X182965600Y-104329800D01*
X183037028Y-104401228D01*
X183108457Y-104544085D01*
X183108457Y-104686942D01*
X183037028Y-104901228D01*
X182179885Y-105758371D01*
X183108457Y-105758371D01*
D12*
X158921961Y-60472580D02*
X158921961Y-59472580D01*
X159398152Y-59805914D02*
X159398152Y-60472580D01*
X159398152Y-59901152D02*
X159445771Y-59853533D01*
X159541009Y-59805914D01*
X159683866Y-59805914D01*
X159779104Y-59853533D01*
X159826723Y-59948771D01*
X159826723Y-60472580D01*
X160969580Y-60567819D02*
X160874342Y-60520200D01*
X160779104Y-60424961D01*
X160636247Y-60282104D01*
X160541009Y-60234485D01*
X160445771Y-60234485D01*
X160493390Y-60472580D02*
X160398152Y-60424961D01*
X160302914Y-60329723D01*
X160255295Y-60139247D01*
X160255295Y-59805914D01*
X160302914Y-59615438D01*
X160398152Y-59520200D01*
X160493390Y-59472580D01*
X160683866Y-59472580D01*
X160779104Y-59520200D01*
X160874342Y-59615438D01*
X160921961Y-59805914D01*
X160921961Y-60139247D01*
X160874342Y-60329723D01*
X160779104Y-60424961D01*
X160683866Y-60472580D01*
X160493390Y-60472580D01*
X161255295Y-59472580D02*
X161921961Y-59472580D01*
X161493390Y-60472580D01*
X163255295Y-59472580D02*
X163445771Y-59472580D01*
X163541009Y-59520200D01*
X163636247Y-59615438D01*
X163683866Y-59805914D01*
X163683866Y-60139247D01*
X163636247Y-60329723D01*
X163541009Y-60424961D01*
X163445771Y-60472580D01*
X163255295Y-60472580D01*
X163160057Y-60424961D01*
X163064819Y-60329723D01*
X163017200Y-60139247D01*
X163017200Y-59805914D01*
X163064819Y-59615438D01*
X163160057Y-59520200D01*
X163255295Y-59472580D01*
X164541009Y-59805914D02*
X164541009Y-60472580D01*
X164112438Y-59805914D02*
X164112438Y-60329723D01*
X164160057Y-60424961D01*
X164255295Y-60472580D01*
X164398152Y-60472580D01*
X164493390Y-60424961D01*
X164541009Y-60377342D01*
X164874342Y-59805914D02*
X165255295Y-59805914D01*
X165017200Y-59472580D02*
X165017200Y-60329723D01*
X165064819Y-60424961D01*
X165160057Y-60472580D01*
X165255295Y-60472580D01*
X166255295Y-60567819D02*
X166160057Y-60520200D01*
X166064819Y-60424961D01*
X165921961Y-60282104D01*
X165826723Y-60234485D01*
X165731485Y-60234485D01*
X165779104Y-60472580D02*
X165683866Y-60424961D01*
X165588628Y-60329723D01*
X165541009Y-60139247D01*
X165541009Y-59805914D01*
X165588628Y-59615438D01*
X165683866Y-59520200D01*
X165779104Y-59472580D01*
X165969580Y-59472580D01*
X166064819Y-59520200D01*
X166160057Y-59615438D01*
X166207676Y-59805914D01*
X166207676Y-60139247D01*
X166160057Y-60329723D01*
X166064819Y-60424961D01*
X165969580Y-60472580D01*
X165779104Y-60472580D01*
X167160057Y-60472580D02*
X166588628Y-60472580D01*
X166874342Y-60472580D02*
X166874342Y-59472580D01*
X166779104Y-59615438D01*
X166683866Y-59710676D01*
X166588628Y-59758295D01*
X183788561Y-85491580D02*
X183788561Y-84491580D01*
X184264752Y-84824914D02*
X184264752Y-85491580D01*
X184264752Y-84920152D02*
X184312371Y-84872533D01*
X184407609Y-84824914D01*
X184550466Y-84824914D01*
X184645704Y-84872533D01*
X184693323Y-84967771D01*
X184693323Y-85491580D01*
X185836180Y-85586819D02*
X185740942Y-85539200D01*
X185645704Y-85443961D01*
X185502847Y-85301104D01*
X185407609Y-85253485D01*
X185312371Y-85253485D01*
X185359990Y-85491580D02*
X185264752Y-85443961D01*
X185169514Y-85348723D01*
X185121895Y-85158247D01*
X185121895Y-84824914D01*
X185169514Y-84634438D01*
X185264752Y-84539200D01*
X185359990Y-84491580D01*
X185550466Y-84491580D01*
X185645704Y-84539200D01*
X185740942Y-84634438D01*
X185788561Y-84824914D01*
X185788561Y-85158247D01*
X185740942Y-85348723D01*
X185645704Y-85443961D01*
X185550466Y-85491580D01*
X185359990Y-85491580D01*
X186359990Y-84920152D02*
X186264752Y-84872533D01*
X186217133Y-84824914D01*
X186169514Y-84729676D01*
X186169514Y-84682057D01*
X186217133Y-84586819D01*
X186264752Y-84539200D01*
X186359990Y-84491580D01*
X186550466Y-84491580D01*
X186645704Y-84539200D01*
X186693323Y-84586819D01*
X186740942Y-84682057D01*
X186740942Y-84729676D01*
X186693323Y-84824914D01*
X186645704Y-84872533D01*
X186550466Y-84920152D01*
X186359990Y-84920152D01*
X186264752Y-84967771D01*
X186217133Y-85015390D01*
X186169514Y-85110628D01*
X186169514Y-85301104D01*
X186217133Y-85396342D01*
X186264752Y-85443961D01*
X186359990Y-85491580D01*
X186550466Y-85491580D01*
X186645704Y-85443961D01*
X186693323Y-85396342D01*
X186740942Y-85301104D01*
X186740942Y-85110628D01*
X186693323Y-85015390D01*
X186645704Y-84967771D01*
X186550466Y-84920152D01*
X188121895Y-84491580D02*
X188312371Y-84491580D01*
X188407609Y-84539200D01*
X188502847Y-84634438D01*
X188550466Y-84824914D01*
X188550466Y-85158247D01*
X188502847Y-85348723D01*
X188407609Y-85443961D01*
X188312371Y-85491580D01*
X188121895Y-85491580D01*
X188026657Y-85443961D01*
X187931419Y-85348723D01*
X187883800Y-85158247D01*
X187883800Y-84824914D01*
X187931419Y-84634438D01*
X188026657Y-84539200D01*
X188121895Y-84491580D01*
X189407609Y-84824914D02*
X189407609Y-85491580D01*
X188979038Y-84824914D02*
X188979038Y-85348723D01*
X189026657Y-85443961D01*
X189121895Y-85491580D01*
X189264752Y-85491580D01*
X189359990Y-85443961D01*
X189407609Y-85396342D01*
X189740942Y-84824914D02*
X190121895Y-84824914D01*
X189883800Y-84491580D02*
X189883800Y-85348723D01*
X189931419Y-85443961D01*
X190026657Y-85491580D01*
X190121895Y-85491580D01*
X191121895Y-85586819D02*
X191026657Y-85539200D01*
X190931419Y-85443961D01*
X190788561Y-85301104D01*
X190693323Y-85253485D01*
X190598085Y-85253485D01*
X190645704Y-85491580D02*
X190550466Y-85443961D01*
X190455228Y-85348723D01*
X190407609Y-85158247D01*
X190407609Y-84824914D01*
X190455228Y-84634438D01*
X190550466Y-84539200D01*
X190645704Y-84491580D01*
X190836180Y-84491580D01*
X190931419Y-84539200D01*
X191026657Y-84634438D01*
X191074276Y-84824914D01*
X191074276Y-85158247D01*
X191026657Y-85348723D01*
X190931419Y-85443961D01*
X190836180Y-85491580D01*
X190645704Y-85491580D01*
X191455228Y-84586819D02*
X191502847Y-84539200D01*
X191598085Y-84491580D01*
X191836180Y-84491580D01*
X191931419Y-84539200D01*
X191979038Y-84586819D01*
X192026657Y-84682057D01*
X192026657Y-84777295D01*
X191979038Y-84920152D01*
X191407609Y-85491580D01*
X192026657Y-85491580D01*
D11*
X181578285Y-130777371D02*
X180721142Y-130777371D01*
X181149714Y-130777371D02*
X181149714Y-129277371D01*
X181006857Y-129491657D01*
X180864000Y-129634514D01*
X180721142Y-129705942D01*
X182864000Y-129277371D02*
X182578285Y-129277371D01*
X182435428Y-129348800D01*
X182364000Y-129420228D01*
X182221142Y-129634514D01*
X182149714Y-129920228D01*
X182149714Y-130491657D01*
X182221142Y-130634514D01*
X182292571Y-130705942D01*
X182435428Y-130777371D01*
X182721142Y-130777371D01*
X182864000Y-130705942D01*
X182935428Y-130634514D01*
X183006857Y-130491657D01*
X183006857Y-130134514D01*
X182935428Y-129991657D01*
X182864000Y-129920228D01*
X182721142Y-129848800D01*
X182435428Y-129848800D01*
X182292571Y-129920228D01*
X182221142Y-129991657D01*
X182149714Y-130134514D01*
D12*
X108120575Y-64425580D02*
X108311051Y-64425580D01*
X108400336Y-64473200D01*
X108483670Y-64568438D01*
X108507479Y-64758914D01*
X108465813Y-65092247D01*
X108394384Y-65282723D01*
X108287241Y-65377961D01*
X108186051Y-65425580D01*
X107995575Y-65425580D01*
X107906289Y-65377961D01*
X107822955Y-65282723D01*
X107799146Y-65092247D01*
X107840813Y-64758914D01*
X107912241Y-64568438D01*
X108019384Y-64473200D01*
X108120575Y-64425580D01*
X109364622Y-64758914D02*
X109281289Y-65425580D01*
X108936051Y-64758914D02*
X108870575Y-65282723D01*
X108906289Y-65377961D01*
X108995575Y-65425580D01*
X109138432Y-65425580D01*
X109239622Y-65377961D01*
X109293194Y-65330342D01*
X109697955Y-64758914D02*
X110078908Y-64758914D01*
X109882479Y-64425580D02*
X109775336Y-65282723D01*
X109811051Y-65377961D01*
X109900336Y-65425580D01*
X109995575Y-65425580D01*
X110983670Y-65520819D02*
X110894384Y-65473200D01*
X110811051Y-65377961D01*
X110686051Y-65235104D01*
X110596765Y-65187485D01*
X110501527Y-65187485D01*
X110519384Y-65425580D02*
X110430098Y-65377961D01*
X110346765Y-65282723D01*
X110322955Y-65092247D01*
X110364622Y-64758914D01*
X110436051Y-64568438D01*
X110543194Y-64473200D01*
X110644384Y-64425580D01*
X110834860Y-64425580D01*
X110924146Y-64473200D01*
X111007479Y-64568438D01*
X111031289Y-64758914D01*
X110989622Y-65092247D01*
X110918194Y-65282723D01*
X110811051Y-65377961D01*
X110709860Y-65425580D01*
X110519384Y-65425580D01*
X111424146Y-65425580D02*
X111614622Y-65425580D01*
X111715813Y-65377961D01*
X111769384Y-65330342D01*
X111882479Y-65187485D01*
X111953908Y-64997009D01*
X112001527Y-64616057D01*
X111965813Y-64520819D01*
X111924146Y-64473200D01*
X111834860Y-64425580D01*
X111644384Y-64425580D01*
X111543194Y-64473200D01*
X111489622Y-64520819D01*
X111430098Y-64616057D01*
X111400336Y-64854152D01*
X111436051Y-64949390D01*
X111477717Y-64997009D01*
X111567003Y-65044628D01*
X111757479Y-65044628D01*
X111858670Y-64997009D01*
X111912241Y-64949390D01*
X111971765Y-64854152D01*
X113090813Y-65425580D02*
X113215813Y-64425580D01*
X113650336Y-64758914D02*
X113567003Y-65425580D01*
X113638432Y-64854152D02*
X113692003Y-64806533D01*
X113793194Y-64758914D01*
X113936051Y-64758914D01*
X114025336Y-64806533D01*
X114061051Y-64901771D01*
X113995575Y-65425580D01*
X115126527Y-65520819D02*
X115037241Y-65473200D01*
X114953908Y-65377961D01*
X114828908Y-65235104D01*
X114739622Y-65187485D01*
X114644384Y-65187485D01*
X114662241Y-65425580D02*
X114572955Y-65377961D01*
X114489622Y-65282723D01*
X114465813Y-65092247D01*
X114507479Y-64758914D01*
X114578908Y-64568438D01*
X114686051Y-64473200D01*
X114787241Y-64425580D01*
X114977717Y-64425580D01*
X115067003Y-64473200D01*
X115150336Y-64568438D01*
X115174146Y-64758914D01*
X115132479Y-65092247D01*
X115061051Y-65282723D01*
X114953908Y-65377961D01*
X114852717Y-65425580D01*
X114662241Y-65425580D01*
X116043194Y-65425580D02*
X115471765Y-65425580D01*
X115757479Y-65425580D02*
X115882479Y-64425580D01*
X115769384Y-64568438D01*
X115662241Y-64663676D01*
X115561051Y-64711295D01*
X116501527Y-64425580D02*
X117120575Y-64425580D01*
X116739622Y-64806533D01*
X116882479Y-64806533D01*
X116971765Y-64854152D01*
X117013432Y-64901771D01*
X117049146Y-64997009D01*
X117019384Y-65235104D01*
X116959860Y-65330342D01*
X116906289Y-65377961D01*
X116805098Y-65425580D01*
X116519384Y-65425580D01*
X116430098Y-65377961D01*
X116388432Y-65330342D01*
X133979161Y-135351780D02*
X133979161Y-134351780D01*
X134455352Y-134685114D02*
X134455352Y-135351780D01*
X134455352Y-134780352D02*
X134502971Y-134732733D01*
X134598209Y-134685114D01*
X134741066Y-134685114D01*
X134836304Y-134732733D01*
X134883923Y-134827971D01*
X134883923Y-135351780D01*
X136026780Y-135447019D02*
X135931542Y-135399400D01*
X135836304Y-135304161D01*
X135693447Y-135161304D01*
X135598209Y-135113685D01*
X135502971Y-135113685D01*
X135550590Y-135351780D02*
X135455352Y-135304161D01*
X135360114Y-135208923D01*
X135312495Y-135018447D01*
X135312495Y-134685114D01*
X135360114Y-134494638D01*
X135455352Y-134399400D01*
X135550590Y-134351780D01*
X135741066Y-134351780D01*
X135836304Y-134399400D01*
X135931542Y-134494638D01*
X135979161Y-134685114D01*
X135979161Y-135018447D01*
X135931542Y-135208923D01*
X135836304Y-135304161D01*
X135741066Y-135351780D01*
X135550590Y-135351780D01*
X136836304Y-134351780D02*
X136645828Y-134351780D01*
X136550590Y-134399400D01*
X136502971Y-134447019D01*
X136407733Y-134589876D01*
X136360114Y-134780352D01*
X136360114Y-135161304D01*
X136407733Y-135256542D01*
X136455352Y-135304161D01*
X136550590Y-135351780D01*
X136741066Y-135351780D01*
X136836304Y-135304161D01*
X136883923Y-135256542D01*
X136931542Y-135161304D01*
X136931542Y-134923209D01*
X136883923Y-134827971D01*
X136836304Y-134780352D01*
X136741066Y-134732733D01*
X136550590Y-134732733D01*
X136455352Y-134780352D01*
X136407733Y-134827971D01*
X136360114Y-134923209D01*
X138312495Y-134351780D02*
X138502971Y-134351780D01*
X138598209Y-134399400D01*
X138693447Y-134494638D01*
X138741066Y-134685114D01*
X138741066Y-135018447D01*
X138693447Y-135208923D01*
X138598209Y-135304161D01*
X138502971Y-135351780D01*
X138312495Y-135351780D01*
X138217257Y-135304161D01*
X138122019Y-135208923D01*
X138074400Y-135018447D01*
X138074400Y-134685114D01*
X138122019Y-134494638D01*
X138217257Y-134399400D01*
X138312495Y-134351780D01*
X139598209Y-134685114D02*
X139598209Y-135351780D01*
X139169638Y-134685114D02*
X139169638Y-135208923D01*
X139217257Y-135304161D01*
X139312495Y-135351780D01*
X139455352Y-135351780D01*
X139550590Y-135304161D01*
X139598209Y-135256542D01*
X139931542Y-134685114D02*
X140312495Y-134685114D01*
X140074400Y-134351780D02*
X140074400Y-135208923D01*
X140122019Y-135304161D01*
X140217257Y-135351780D01*
X140312495Y-135351780D01*
X141312495Y-135447019D02*
X141217257Y-135399400D01*
X141122019Y-135304161D01*
X140979161Y-135161304D01*
X140883923Y-135113685D01*
X140788685Y-135113685D01*
X140836304Y-135351780D02*
X140741066Y-135304161D01*
X140645828Y-135208923D01*
X140598209Y-135018447D01*
X140598209Y-134685114D01*
X140645828Y-134494638D01*
X140741066Y-134399400D01*
X140836304Y-134351780D01*
X141026780Y-134351780D01*
X141122019Y-134399400D01*
X141217257Y-134494638D01*
X141264876Y-134685114D01*
X141264876Y-135018447D01*
X141217257Y-135208923D01*
X141122019Y-135304161D01*
X141026780Y-135351780D01*
X140836304Y-135351780D01*
X142122019Y-134685114D02*
X142122019Y-135351780D01*
X141883923Y-134304161D02*
X141645828Y-135018447D01*
X142264876Y-135018447D01*
X108909361Y-110510580D02*
X108909361Y-109510580D01*
X109385552Y-109843914D02*
X109385552Y-110510580D01*
X109385552Y-109939152D02*
X109433171Y-109891533D01*
X109528409Y-109843914D01*
X109671266Y-109843914D01*
X109766504Y-109891533D01*
X109814123Y-109986771D01*
X109814123Y-110510580D01*
X110956980Y-110605819D02*
X110861742Y-110558200D01*
X110766504Y-110462961D01*
X110623647Y-110320104D01*
X110528409Y-110272485D01*
X110433171Y-110272485D01*
X110480790Y-110510580D02*
X110385552Y-110462961D01*
X110290314Y-110367723D01*
X110242695Y-110177247D01*
X110242695Y-109843914D01*
X110290314Y-109653438D01*
X110385552Y-109558200D01*
X110480790Y-109510580D01*
X110671266Y-109510580D01*
X110766504Y-109558200D01*
X110861742Y-109653438D01*
X110909361Y-109843914D01*
X110909361Y-110177247D01*
X110861742Y-110367723D01*
X110766504Y-110462961D01*
X110671266Y-110510580D01*
X110480790Y-110510580D01*
X111814123Y-109510580D02*
X111337933Y-109510580D01*
X111290314Y-109986771D01*
X111337933Y-109939152D01*
X111433171Y-109891533D01*
X111671266Y-109891533D01*
X111766504Y-109939152D01*
X111814123Y-109986771D01*
X111861742Y-110082009D01*
X111861742Y-110320104D01*
X111814123Y-110415342D01*
X111766504Y-110462961D01*
X111671266Y-110510580D01*
X111433171Y-110510580D01*
X111337933Y-110462961D01*
X111290314Y-110415342D01*
X113242695Y-109510580D02*
X113433171Y-109510580D01*
X113528409Y-109558200D01*
X113623647Y-109653438D01*
X113671266Y-109843914D01*
X113671266Y-110177247D01*
X113623647Y-110367723D01*
X113528409Y-110462961D01*
X113433171Y-110510580D01*
X113242695Y-110510580D01*
X113147457Y-110462961D01*
X113052219Y-110367723D01*
X113004600Y-110177247D01*
X113004600Y-109843914D01*
X113052219Y-109653438D01*
X113147457Y-109558200D01*
X113242695Y-109510580D01*
X114528409Y-109843914D02*
X114528409Y-110510580D01*
X114099838Y-109843914D02*
X114099838Y-110367723D01*
X114147457Y-110462961D01*
X114242695Y-110510580D01*
X114385552Y-110510580D01*
X114480790Y-110462961D01*
X114528409Y-110415342D01*
X114861742Y-109843914D02*
X115242695Y-109843914D01*
X115004600Y-109510580D02*
X115004600Y-110367723D01*
X115052219Y-110462961D01*
X115147457Y-110510580D01*
X115242695Y-110510580D01*
X116242695Y-110605819D02*
X116147457Y-110558200D01*
X116052219Y-110462961D01*
X115909361Y-110320104D01*
X115814123Y-110272485D01*
X115718885Y-110272485D01*
X115766504Y-110510580D02*
X115671266Y-110462961D01*
X115576028Y-110367723D01*
X115528409Y-110177247D01*
X115528409Y-109843914D01*
X115576028Y-109653438D01*
X115671266Y-109558200D01*
X115766504Y-109510580D01*
X115956980Y-109510580D01*
X116052219Y-109558200D01*
X116147457Y-109653438D01*
X116195076Y-109843914D01*
X116195076Y-110177247D01*
X116147457Y-110367723D01*
X116052219Y-110462961D01*
X115956980Y-110510580D01*
X115766504Y-110510580D01*
X116528409Y-109510580D02*
X117147457Y-109510580D01*
X116814123Y-109891533D01*
X116956980Y-109891533D01*
X117052219Y-109939152D01*
X117099838Y-109986771D01*
X117147457Y-110082009D01*
X117147457Y-110320104D01*
X117099838Y-110415342D01*
X117052219Y-110462961D01*
X116956980Y-110510580D01*
X116671266Y-110510580D01*
X116576028Y-110462961D01*
X116528409Y-110415342D01*
D11*
X107108571Y-55567971D02*
X106251428Y-55567971D01*
X106680000Y-55567971D02*
X106680000Y-54067971D01*
X106537142Y-54282257D01*
X106394285Y-54425114D01*
X106251428Y-54496542D01*
D12*
X157301384Y-114514380D02*
X157491860Y-114514380D01*
X157581146Y-114562000D01*
X157664479Y-114657238D01*
X157688289Y-114847714D01*
X157646622Y-115181047D01*
X157575194Y-115371523D01*
X157468051Y-115466761D01*
X157366860Y-115514380D01*
X157176384Y-115514380D01*
X157087098Y-115466761D01*
X157003765Y-115371523D01*
X156979955Y-115181047D01*
X157021622Y-114847714D01*
X157093051Y-114657238D01*
X157200194Y-114562000D01*
X157301384Y-114514380D01*
X158545432Y-114847714D02*
X158462098Y-115514380D01*
X158116860Y-114847714D02*
X158051384Y-115371523D01*
X158087098Y-115466761D01*
X158176384Y-115514380D01*
X158319241Y-115514380D01*
X158420432Y-115466761D01*
X158474003Y-115419142D01*
X158878765Y-114847714D02*
X159259717Y-114847714D01*
X159063289Y-114514380D02*
X158956146Y-115371523D01*
X158991860Y-115466761D01*
X159081146Y-115514380D01*
X159176384Y-115514380D01*
X160164479Y-115609619D02*
X160075194Y-115562000D01*
X159991860Y-115466761D01*
X159866860Y-115323904D01*
X159777575Y-115276285D01*
X159682336Y-115276285D01*
X159700194Y-115514380D02*
X159610908Y-115466761D01*
X159527575Y-115371523D01*
X159503765Y-115181047D01*
X159545432Y-114847714D01*
X159616860Y-114657238D01*
X159724003Y-114562000D01*
X159825194Y-114514380D01*
X160015670Y-114514380D01*
X160104955Y-114562000D01*
X160188289Y-114657238D01*
X160212098Y-114847714D01*
X160170432Y-115181047D01*
X160099003Y-115371523D01*
X159991860Y-115466761D01*
X159890670Y-115514380D01*
X159700194Y-115514380D01*
X161081146Y-115514380D02*
X160509717Y-115514380D01*
X160795432Y-115514380D02*
X160920432Y-114514380D01*
X160807336Y-114657238D01*
X160700194Y-114752476D01*
X160599003Y-114800095D01*
X162033527Y-115514380D02*
X161462098Y-115514380D01*
X161747813Y-115514380D02*
X161872813Y-114514380D01*
X161759717Y-114657238D01*
X161652575Y-114752476D01*
X161551384Y-114800095D01*
X163224003Y-115514380D02*
X163349003Y-114514380D01*
X163783527Y-114847714D02*
X163700194Y-115514380D01*
X163771622Y-114942952D02*
X163825194Y-114895333D01*
X163926384Y-114847714D01*
X164069241Y-114847714D01*
X164158527Y-114895333D01*
X164194241Y-114990571D01*
X164128765Y-115514380D01*
X165259717Y-115609619D02*
X165170432Y-115562000D01*
X165087098Y-115466761D01*
X164962098Y-115323904D01*
X164872813Y-115276285D01*
X164777575Y-115276285D01*
X164795432Y-115514380D02*
X164706146Y-115466761D01*
X164622813Y-115371523D01*
X164599003Y-115181047D01*
X164640670Y-114847714D01*
X164712098Y-114657238D01*
X164819241Y-114562000D01*
X164920432Y-114514380D01*
X165110908Y-114514380D01*
X165200194Y-114562000D01*
X165283527Y-114657238D01*
X165307336Y-114847714D01*
X165265670Y-115181047D01*
X165194241Y-115371523D01*
X165087098Y-115466761D01*
X164985908Y-115514380D01*
X164795432Y-115514380D01*
X166176384Y-115514380D02*
X165604955Y-115514380D01*
X165890670Y-115514380D02*
X166015670Y-114514380D01*
X165902575Y-114657238D01*
X165795432Y-114752476D01*
X165694241Y-114800095D01*
X167206146Y-114514380D02*
X166729955Y-114514380D01*
X166622813Y-114990571D01*
X166676384Y-114942952D01*
X166777575Y-114895333D01*
X167015670Y-114895333D01*
X167104955Y-114942952D01*
X167146622Y-114990571D01*
X167182336Y-115085809D01*
X167152575Y-115323904D01*
X167093051Y-115419142D01*
X167039479Y-115466761D01*
X166938289Y-115514380D01*
X166700194Y-115514380D01*
X166610908Y-115466761D01*
X166569241Y-115419142D01*
D11*
X107138742Y-79213971D02*
X106424457Y-79213971D01*
X106353028Y-79928257D01*
X106424457Y-79856828D01*
X106567314Y-79785400D01*
X106924457Y-79785400D01*
X107067314Y-79856828D01*
X107138742Y-79928257D01*
X107210171Y-80071114D01*
X107210171Y-80428257D01*
X107138742Y-80571114D01*
X107067314Y-80642542D01*
X106924457Y-80713971D01*
X106567314Y-80713971D01*
X106424457Y-80642542D01*
X106353028Y-80571114D01*
D12*
X108858561Y-60447180D02*
X108858561Y-59447180D01*
X109334752Y-59780514D02*
X109334752Y-60447180D01*
X109334752Y-59875752D02*
X109382371Y-59828133D01*
X109477609Y-59780514D01*
X109620466Y-59780514D01*
X109715704Y-59828133D01*
X109763323Y-59923371D01*
X109763323Y-60447180D01*
X110906180Y-60542419D02*
X110810942Y-60494800D01*
X110715704Y-60399561D01*
X110572847Y-60256704D01*
X110477609Y-60209085D01*
X110382371Y-60209085D01*
X110429990Y-60447180D02*
X110334752Y-60399561D01*
X110239514Y-60304323D01*
X110191895Y-60113847D01*
X110191895Y-59780514D01*
X110239514Y-59590038D01*
X110334752Y-59494800D01*
X110429990Y-59447180D01*
X110620466Y-59447180D01*
X110715704Y-59494800D01*
X110810942Y-59590038D01*
X110858561Y-59780514D01*
X110858561Y-60113847D01*
X110810942Y-60304323D01*
X110715704Y-60399561D01*
X110620466Y-60447180D01*
X110429990Y-60447180D01*
X111763323Y-59447180D02*
X111287133Y-59447180D01*
X111239514Y-59923371D01*
X111287133Y-59875752D01*
X111382371Y-59828133D01*
X111620466Y-59828133D01*
X111715704Y-59875752D01*
X111763323Y-59923371D01*
X111810942Y-60018609D01*
X111810942Y-60256704D01*
X111763323Y-60351942D01*
X111715704Y-60399561D01*
X111620466Y-60447180D01*
X111382371Y-60447180D01*
X111287133Y-60399561D01*
X111239514Y-60351942D01*
X113191895Y-59447180D02*
X113382371Y-59447180D01*
X113477609Y-59494800D01*
X113572847Y-59590038D01*
X113620466Y-59780514D01*
X113620466Y-60113847D01*
X113572847Y-60304323D01*
X113477609Y-60399561D01*
X113382371Y-60447180D01*
X113191895Y-60447180D01*
X113096657Y-60399561D01*
X113001419Y-60304323D01*
X112953800Y-60113847D01*
X112953800Y-59780514D01*
X113001419Y-59590038D01*
X113096657Y-59494800D01*
X113191895Y-59447180D01*
X114477609Y-59780514D02*
X114477609Y-60447180D01*
X114049038Y-59780514D02*
X114049038Y-60304323D01*
X114096657Y-60399561D01*
X114191895Y-60447180D01*
X114334752Y-60447180D01*
X114429990Y-60399561D01*
X114477609Y-60351942D01*
X114810942Y-59780514D02*
X115191895Y-59780514D01*
X114953800Y-59447180D02*
X114953800Y-60304323D01*
X115001419Y-60399561D01*
X115096657Y-60447180D01*
X115191895Y-60447180D01*
X116191895Y-60542419D02*
X116096657Y-60494800D01*
X116001419Y-60399561D01*
X115858561Y-60256704D01*
X115763323Y-60209085D01*
X115668085Y-60209085D01*
X115715704Y-60447180D02*
X115620466Y-60399561D01*
X115525228Y-60304323D01*
X115477609Y-60113847D01*
X115477609Y-59780514D01*
X115525228Y-59590038D01*
X115620466Y-59494800D01*
X115715704Y-59447180D01*
X115906180Y-59447180D01*
X116001419Y-59494800D01*
X116096657Y-59590038D01*
X116144276Y-59780514D01*
X116144276Y-60113847D01*
X116096657Y-60304323D01*
X116001419Y-60399561D01*
X115906180Y-60447180D01*
X115715704Y-60447180D01*
X117096657Y-60447180D02*
X116525228Y-60447180D01*
X116810942Y-60447180D02*
X116810942Y-59447180D01*
X116715704Y-59590038D01*
X116620466Y-59685276D01*
X116525228Y-59732895D01*
X108171375Y-114488980D02*
X108361851Y-114488980D01*
X108451136Y-114536600D01*
X108534470Y-114631838D01*
X108558279Y-114822314D01*
X108516613Y-115155647D01*
X108445184Y-115346123D01*
X108338041Y-115441361D01*
X108236851Y-115488980D01*
X108046375Y-115488980D01*
X107957089Y-115441361D01*
X107873755Y-115346123D01*
X107849946Y-115155647D01*
X107891613Y-114822314D01*
X107963041Y-114631838D01*
X108070184Y-114536600D01*
X108171375Y-114488980D01*
X109415422Y-114822314D02*
X109332089Y-115488980D01*
X108986851Y-114822314D02*
X108921375Y-115346123D01*
X108957089Y-115441361D01*
X109046375Y-115488980D01*
X109189232Y-115488980D01*
X109290422Y-115441361D01*
X109343994Y-115393742D01*
X109748755Y-114822314D02*
X110129708Y-114822314D01*
X109933279Y-114488980D02*
X109826136Y-115346123D01*
X109861851Y-115441361D01*
X109951136Y-115488980D01*
X110046375Y-115488980D01*
X111034470Y-115584219D02*
X110945184Y-115536600D01*
X110861851Y-115441361D01*
X110736851Y-115298504D01*
X110647565Y-115250885D01*
X110552327Y-115250885D01*
X110570184Y-115488980D02*
X110480898Y-115441361D01*
X110397565Y-115346123D01*
X110373755Y-115155647D01*
X110415422Y-114822314D01*
X110486851Y-114631838D01*
X110593994Y-114536600D01*
X110695184Y-114488980D01*
X110885660Y-114488980D01*
X110974946Y-114536600D01*
X111058279Y-114631838D01*
X111082089Y-114822314D01*
X111040422Y-115155647D01*
X110968994Y-115346123D01*
X110861851Y-115441361D01*
X110760660Y-115488980D01*
X110570184Y-115488980D01*
X111474946Y-115488980D02*
X111665422Y-115488980D01*
X111766613Y-115441361D01*
X111820184Y-115393742D01*
X111933279Y-115250885D01*
X112004708Y-115060409D01*
X112052327Y-114679457D01*
X112016613Y-114584219D01*
X111974946Y-114536600D01*
X111885660Y-114488980D01*
X111695184Y-114488980D01*
X111593994Y-114536600D01*
X111540422Y-114584219D01*
X111480898Y-114679457D01*
X111451136Y-114917552D01*
X111486851Y-115012790D01*
X111528517Y-115060409D01*
X111617803Y-115108028D01*
X111808279Y-115108028D01*
X111909470Y-115060409D01*
X111963041Y-115012790D01*
X112022565Y-114917552D01*
X113141613Y-115488980D02*
X113266613Y-114488980D01*
X113701136Y-114822314D02*
X113617803Y-115488980D01*
X113689232Y-114917552D02*
X113742803Y-114869933D01*
X113843994Y-114822314D01*
X113986851Y-114822314D01*
X114076136Y-114869933D01*
X114111851Y-114965171D01*
X114046375Y-115488980D01*
X115177327Y-115584219D02*
X115088041Y-115536600D01*
X115004708Y-115441361D01*
X114879708Y-115298504D01*
X114790422Y-115250885D01*
X114695184Y-115250885D01*
X114713041Y-115488980D02*
X114623755Y-115441361D01*
X114540422Y-115346123D01*
X114516613Y-115155647D01*
X114558279Y-114822314D01*
X114629708Y-114631838D01*
X114736851Y-114536600D01*
X114838041Y-114488980D01*
X115028517Y-114488980D01*
X115117803Y-114536600D01*
X115201136Y-114631838D01*
X115224946Y-114822314D01*
X115183279Y-115155647D01*
X115111851Y-115346123D01*
X115004708Y-115441361D01*
X114903517Y-115488980D01*
X114713041Y-115488980D01*
X116093994Y-115488980D02*
X115522565Y-115488980D01*
X115808279Y-115488980D02*
X115933279Y-114488980D01*
X115820184Y-114631838D01*
X115713041Y-114727076D01*
X115611851Y-114774695D01*
X117123755Y-114488980D02*
X116647565Y-114488980D01*
X116540422Y-114965171D01*
X116593994Y-114917552D01*
X116695184Y-114869933D01*
X116933279Y-114869933D01*
X117022565Y-114917552D01*
X117064232Y-114965171D01*
X117099946Y-115060409D01*
X117070184Y-115298504D01*
X117010660Y-115393742D01*
X116957089Y-115441361D01*
X116855898Y-115488980D01*
X116617803Y-115488980D01*
X116528517Y-115441361D01*
X116486851Y-115393742D01*
X182142584Y-114615980D02*
X182333060Y-114615980D01*
X182422346Y-114663600D01*
X182505679Y-114758838D01*
X182529489Y-114949314D01*
X182487822Y-115282647D01*
X182416394Y-115473123D01*
X182309251Y-115568361D01*
X182208060Y-115615980D01*
X182017584Y-115615980D01*
X181928298Y-115568361D01*
X181844965Y-115473123D01*
X181821155Y-115282647D01*
X181862822Y-114949314D01*
X181934251Y-114758838D01*
X182041394Y-114663600D01*
X182142584Y-114615980D01*
X183386632Y-114949314D02*
X183303298Y-115615980D01*
X182958060Y-114949314D02*
X182892584Y-115473123D01*
X182928298Y-115568361D01*
X183017584Y-115615980D01*
X183160441Y-115615980D01*
X183261632Y-115568361D01*
X183315203Y-115520742D01*
X183719965Y-114949314D02*
X184100917Y-114949314D01*
X183904489Y-114615980D02*
X183797346Y-115473123D01*
X183833060Y-115568361D01*
X183922346Y-115615980D01*
X184017584Y-115615980D01*
X185005679Y-115711219D02*
X184916394Y-115663600D01*
X184833060Y-115568361D01*
X184708060Y-115425504D01*
X184618775Y-115377885D01*
X184523536Y-115377885D01*
X184541394Y-115615980D02*
X184452108Y-115568361D01*
X184368775Y-115473123D01*
X184344965Y-115282647D01*
X184386632Y-114949314D01*
X184458060Y-114758838D01*
X184565203Y-114663600D01*
X184666394Y-114615980D01*
X184856870Y-114615980D01*
X184946155Y-114663600D01*
X185029489Y-114758838D01*
X185053298Y-114949314D01*
X185011632Y-115282647D01*
X184940203Y-115473123D01*
X184833060Y-115568361D01*
X184731870Y-115615980D01*
X184541394Y-115615980D01*
X185922346Y-115615980D02*
X185350917Y-115615980D01*
X185636632Y-115615980D02*
X185761632Y-114615980D01*
X185648536Y-114758838D01*
X185541394Y-114854076D01*
X185440203Y-114901695D01*
X186416394Y-114711219D02*
X186469965Y-114663600D01*
X186571155Y-114615980D01*
X186809251Y-114615980D01*
X186898536Y-114663600D01*
X186940203Y-114711219D01*
X186975917Y-114806457D01*
X186964013Y-114901695D01*
X186898536Y-115044552D01*
X186255679Y-115615980D01*
X186874727Y-115615980D01*
X188065203Y-115615980D02*
X188190203Y-114615980D01*
X188624727Y-114949314D02*
X188541394Y-115615980D01*
X188612822Y-115044552D02*
X188666394Y-114996933D01*
X188767584Y-114949314D01*
X188910441Y-114949314D01*
X188999727Y-114996933D01*
X189035441Y-115092171D01*
X188969965Y-115615980D01*
X190100917Y-115711219D02*
X190011632Y-115663600D01*
X189928298Y-115568361D01*
X189803298Y-115425504D01*
X189714013Y-115377885D01*
X189618775Y-115377885D01*
X189636632Y-115615980D02*
X189547346Y-115568361D01*
X189464013Y-115473123D01*
X189440203Y-115282647D01*
X189481870Y-114949314D01*
X189553298Y-114758838D01*
X189660441Y-114663600D01*
X189761632Y-114615980D01*
X189952108Y-114615980D01*
X190041394Y-114663600D01*
X190124727Y-114758838D01*
X190148536Y-114949314D01*
X190106870Y-115282647D01*
X190035441Y-115473123D01*
X189928298Y-115568361D01*
X189827108Y-115615980D01*
X189636632Y-115615980D01*
X191017584Y-115615980D02*
X190446155Y-115615980D01*
X190731870Y-115615980D02*
X190856870Y-114615980D01*
X190743775Y-114758838D01*
X190636632Y-114854076D01*
X190535441Y-114901695D01*
X192047346Y-114615980D02*
X191571155Y-114615980D01*
X191464013Y-115092171D01*
X191517584Y-115044552D01*
X191618775Y-114996933D01*
X191856870Y-114996933D01*
X191946155Y-115044552D01*
X191987822Y-115092171D01*
X192023536Y-115187409D01*
X191993775Y-115425504D01*
X191934251Y-115520742D01*
X191880679Y-115568361D01*
X191779489Y-115615980D01*
X191541394Y-115615980D01*
X191452108Y-115568361D01*
X191410441Y-115520742D01*
D11*
X182127542Y-79425028D02*
X181984685Y-79353600D01*
X181913257Y-79282171D01*
X181841828Y-79139314D01*
X181841828Y-79067885D01*
X181913257Y-78925028D01*
X181984685Y-78853600D01*
X182127542Y-78782171D01*
X182413257Y-78782171D01*
X182556114Y-78853600D01*
X182627542Y-78925028D01*
X182698971Y-79067885D01*
X182698971Y-79139314D01*
X182627542Y-79282171D01*
X182556114Y-79353600D01*
X182413257Y-79425028D01*
X182127542Y-79425028D01*
X181984685Y-79496457D01*
X181913257Y-79567885D01*
X181841828Y-79710742D01*
X181841828Y-79996457D01*
X181913257Y-80139314D01*
X181984685Y-80210742D01*
X182127542Y-80282171D01*
X182413257Y-80282171D01*
X182556114Y-80210742D01*
X182627542Y-80139314D01*
X182698971Y-79996457D01*
X182698971Y-79710742D01*
X182627542Y-79567885D01*
X182556114Y-79496457D01*
X182413257Y-79425028D01*
D12*
X132155384Y-139304780D02*
X132345860Y-139304780D01*
X132435146Y-139352400D01*
X132518479Y-139447638D01*
X132542289Y-139638114D01*
X132500622Y-139971447D01*
X132429194Y-140161923D01*
X132322051Y-140257161D01*
X132220860Y-140304780D01*
X132030384Y-140304780D01*
X131941098Y-140257161D01*
X131857765Y-140161923D01*
X131833955Y-139971447D01*
X131875622Y-139638114D01*
X131947051Y-139447638D01*
X132054194Y-139352400D01*
X132155384Y-139304780D01*
X133399432Y-139638114D02*
X133316098Y-140304780D01*
X132970860Y-139638114D02*
X132905384Y-140161923D01*
X132941098Y-140257161D01*
X133030384Y-140304780D01*
X133173241Y-140304780D01*
X133274432Y-140257161D01*
X133328003Y-140209542D01*
X133732765Y-139638114D02*
X134113717Y-139638114D01*
X133917289Y-139304780D02*
X133810146Y-140161923D01*
X133845860Y-140257161D01*
X133935146Y-140304780D01*
X134030384Y-140304780D01*
X135018479Y-140400019D02*
X134929194Y-140352400D01*
X134845860Y-140257161D01*
X134720860Y-140114304D01*
X134631575Y-140066685D01*
X134536336Y-140066685D01*
X134554194Y-140304780D02*
X134464908Y-140257161D01*
X134381575Y-140161923D01*
X134357765Y-139971447D01*
X134399432Y-139638114D01*
X134470860Y-139447638D01*
X134578003Y-139352400D01*
X134679194Y-139304780D01*
X134869670Y-139304780D01*
X134958955Y-139352400D01*
X135042289Y-139447638D01*
X135066098Y-139638114D01*
X135024432Y-139971447D01*
X134953003Y-140161923D01*
X134845860Y-140257161D01*
X134744670Y-140304780D01*
X134554194Y-140304780D01*
X135935146Y-140304780D02*
X135363717Y-140304780D01*
X135649432Y-140304780D02*
X135774432Y-139304780D01*
X135661336Y-139447638D01*
X135554194Y-139542876D01*
X135453003Y-139590495D01*
X136679194Y-139304780D02*
X136774432Y-139304780D01*
X136863717Y-139352400D01*
X136905384Y-139400019D01*
X136941098Y-139495257D01*
X136964908Y-139685733D01*
X136935146Y-139923828D01*
X136863717Y-140114304D01*
X136804194Y-140209542D01*
X136750622Y-140257161D01*
X136649432Y-140304780D01*
X136554194Y-140304780D01*
X136464908Y-140257161D01*
X136423241Y-140209542D01*
X136387527Y-140114304D01*
X136363717Y-139923828D01*
X136393479Y-139685733D01*
X136464908Y-139495257D01*
X136524432Y-139400019D01*
X136578003Y-139352400D01*
X136679194Y-139304780D01*
X138078003Y-140304780D02*
X138203003Y-139304780D01*
X138637527Y-139638114D02*
X138554194Y-140304780D01*
X138625622Y-139733352D02*
X138679194Y-139685733D01*
X138780384Y-139638114D01*
X138923241Y-139638114D01*
X139012527Y-139685733D01*
X139048241Y-139780971D01*
X138982765Y-140304780D01*
X140113717Y-140400019D02*
X140024432Y-140352400D01*
X139941098Y-140257161D01*
X139816098Y-140114304D01*
X139726813Y-140066685D01*
X139631575Y-140066685D01*
X139649432Y-140304780D02*
X139560146Y-140257161D01*
X139476813Y-140161923D01*
X139453003Y-139971447D01*
X139494670Y-139638114D01*
X139566098Y-139447638D01*
X139673241Y-139352400D01*
X139774432Y-139304780D01*
X139964908Y-139304780D01*
X140054194Y-139352400D01*
X140137527Y-139447638D01*
X140161336Y-139638114D01*
X140119670Y-139971447D01*
X140048241Y-140161923D01*
X139941098Y-140257161D01*
X139839908Y-140304780D01*
X139649432Y-140304780D01*
X141030384Y-140304780D02*
X140458955Y-140304780D01*
X140744670Y-140304780D02*
X140869670Y-139304780D01*
X140756575Y-139447638D01*
X140649432Y-139542876D01*
X140548241Y-139590495D01*
X142012527Y-139304780D02*
X141822051Y-139304780D01*
X141720860Y-139352400D01*
X141667289Y-139400019D01*
X141554194Y-139542876D01*
X141482765Y-139733352D01*
X141435146Y-140114304D01*
X141470860Y-140209542D01*
X141512527Y-140257161D01*
X141601813Y-140304780D01*
X141792289Y-140304780D01*
X141893479Y-140257161D01*
X141947051Y-140209542D01*
X142006575Y-140114304D01*
X142036336Y-139876209D01*
X142000622Y-139780971D01*
X141958955Y-139733352D01*
X141869670Y-139685733D01*
X141679194Y-139685733D01*
X141578003Y-139733352D01*
X141524432Y-139780971D01*
X141464908Y-139876209D01*
D11*
X106191085Y-106190171D02*
X106476800Y-106190171D01*
X106619657Y-106118742D01*
X106691085Y-106047314D01*
X106833942Y-105833028D01*
X106905371Y-105547314D01*
X106905371Y-104975885D01*
X106833942Y-104833028D01*
X106762514Y-104761600D01*
X106619657Y-104690171D01*
X106333942Y-104690171D01*
X106191085Y-104761600D01*
X106119657Y-104833028D01*
X106048228Y-104975885D01*
X106048228Y-105333028D01*
X106119657Y-105475885D01*
X106191085Y-105547314D01*
X106333942Y-105618742D01*
X106619657Y-105618742D01*
X106762514Y-105547314D01*
X106833942Y-105475885D01*
X106905371Y-105333028D01*
X130981485Y-105961571D02*
X130124342Y-105961571D01*
X130552914Y-105961571D02*
X130552914Y-104461571D01*
X130410057Y-104675857D01*
X130267200Y-104818714D01*
X130124342Y-104890142D01*
X131910057Y-104461571D02*
X132052914Y-104461571D01*
X132195771Y-104533000D01*
X132267200Y-104604428D01*
X132338628Y-104747285D01*
X132410057Y-105033000D01*
X132410057Y-105390142D01*
X132338628Y-105675857D01*
X132267200Y-105818714D01*
X132195771Y-105890142D01*
X132052914Y-105961571D01*
X131910057Y-105961571D01*
X131767200Y-105890142D01*
X131695771Y-105818714D01*
X131624342Y-105675857D01*
X131552914Y-105390142D01*
X131552914Y-105033000D01*
X131624342Y-104747285D01*
X131695771Y-104604428D01*
X131767200Y-104533000D01*
X131910057Y-104461571D01*
D12*
X108171375Y-89393780D02*
X108361851Y-89393780D01*
X108451136Y-89441400D01*
X108534470Y-89536638D01*
X108558279Y-89727114D01*
X108516613Y-90060447D01*
X108445184Y-90250923D01*
X108338041Y-90346161D01*
X108236851Y-90393780D01*
X108046375Y-90393780D01*
X107957089Y-90346161D01*
X107873755Y-90250923D01*
X107849946Y-90060447D01*
X107891613Y-89727114D01*
X107963041Y-89536638D01*
X108070184Y-89441400D01*
X108171375Y-89393780D01*
X109415422Y-89727114D02*
X109332089Y-90393780D01*
X108986851Y-89727114D02*
X108921375Y-90250923D01*
X108957089Y-90346161D01*
X109046375Y-90393780D01*
X109189232Y-90393780D01*
X109290422Y-90346161D01*
X109343994Y-90298542D01*
X109748755Y-89727114D02*
X110129708Y-89727114D01*
X109933279Y-89393780D02*
X109826136Y-90250923D01*
X109861851Y-90346161D01*
X109951136Y-90393780D01*
X110046375Y-90393780D01*
X111034470Y-90489019D02*
X110945184Y-90441400D01*
X110861851Y-90346161D01*
X110736851Y-90203304D01*
X110647565Y-90155685D01*
X110552327Y-90155685D01*
X110570184Y-90393780D02*
X110480898Y-90346161D01*
X110397565Y-90250923D01*
X110373755Y-90060447D01*
X110415422Y-89727114D01*
X110486851Y-89536638D01*
X110593994Y-89441400D01*
X110695184Y-89393780D01*
X110885660Y-89393780D01*
X110974946Y-89441400D01*
X111058279Y-89536638D01*
X111082089Y-89727114D01*
X111040422Y-90060447D01*
X110968994Y-90250923D01*
X110861851Y-90346161D01*
X110760660Y-90393780D01*
X110570184Y-90393780D01*
X111474946Y-90393780D02*
X111665422Y-90393780D01*
X111766613Y-90346161D01*
X111820184Y-90298542D01*
X111933279Y-90155685D01*
X112004708Y-89965209D01*
X112052327Y-89584257D01*
X112016613Y-89489019D01*
X111974946Y-89441400D01*
X111885660Y-89393780D01*
X111695184Y-89393780D01*
X111593994Y-89441400D01*
X111540422Y-89489019D01*
X111480898Y-89584257D01*
X111451136Y-89822352D01*
X111486851Y-89917590D01*
X111528517Y-89965209D01*
X111617803Y-90012828D01*
X111808279Y-90012828D01*
X111909470Y-89965209D01*
X111963041Y-89917590D01*
X112022565Y-89822352D01*
X113141613Y-90393780D02*
X113266613Y-89393780D01*
X113701136Y-89727114D02*
X113617803Y-90393780D01*
X113689232Y-89822352D02*
X113742803Y-89774733D01*
X113843994Y-89727114D01*
X113986851Y-89727114D01*
X114076136Y-89774733D01*
X114111851Y-89869971D01*
X114046375Y-90393780D01*
X115177327Y-90489019D02*
X115088041Y-90441400D01*
X115004708Y-90346161D01*
X114879708Y-90203304D01*
X114790422Y-90155685D01*
X114695184Y-90155685D01*
X114713041Y-90393780D02*
X114623755Y-90346161D01*
X114540422Y-90250923D01*
X114516613Y-90060447D01*
X114558279Y-89727114D01*
X114629708Y-89536638D01*
X114736851Y-89441400D01*
X114838041Y-89393780D01*
X115028517Y-89393780D01*
X115117803Y-89441400D01*
X115201136Y-89536638D01*
X115224946Y-89727114D01*
X115183279Y-90060447D01*
X115111851Y-90250923D01*
X115004708Y-90346161D01*
X114903517Y-90393780D01*
X114713041Y-90393780D01*
X116093994Y-90393780D02*
X115522565Y-90393780D01*
X115808279Y-90393780D02*
X115933279Y-89393780D01*
X115820184Y-89536638D01*
X115713041Y-89631876D01*
X115611851Y-89679495D01*
X117034470Y-89727114D02*
X116951136Y-90393780D01*
X116843994Y-89346161D02*
X116516613Y-90060447D01*
X117135660Y-90060447D01*
X182218784Y-89469980D02*
X182409260Y-89469980D01*
X182498546Y-89517600D01*
X182581879Y-89612838D01*
X182605689Y-89803314D01*
X182564022Y-90136647D01*
X182492594Y-90327123D01*
X182385451Y-90422361D01*
X182284260Y-90469980D01*
X182093784Y-90469980D01*
X182004498Y-90422361D01*
X181921165Y-90327123D01*
X181897355Y-90136647D01*
X181939022Y-89803314D01*
X182010451Y-89612838D01*
X182117594Y-89517600D01*
X182218784Y-89469980D01*
X183462832Y-89803314D02*
X183379498Y-90469980D01*
X183034260Y-89803314D02*
X182968784Y-90327123D01*
X183004498Y-90422361D01*
X183093784Y-90469980D01*
X183236641Y-90469980D01*
X183337832Y-90422361D01*
X183391403Y-90374742D01*
X183796165Y-89803314D02*
X184177117Y-89803314D01*
X183980689Y-89469980D02*
X183873546Y-90327123D01*
X183909260Y-90422361D01*
X183998546Y-90469980D01*
X184093784Y-90469980D01*
X185081879Y-90565219D02*
X184992594Y-90517600D01*
X184909260Y-90422361D01*
X184784260Y-90279504D01*
X184694975Y-90231885D01*
X184599736Y-90231885D01*
X184617594Y-90469980D02*
X184528308Y-90422361D01*
X184444975Y-90327123D01*
X184421165Y-90136647D01*
X184462832Y-89803314D01*
X184534260Y-89612838D01*
X184641403Y-89517600D01*
X184742594Y-89469980D01*
X184933070Y-89469980D01*
X185022355Y-89517600D01*
X185105689Y-89612838D01*
X185129498Y-89803314D01*
X185087832Y-90136647D01*
X185016403Y-90327123D01*
X184909260Y-90422361D01*
X184808070Y-90469980D01*
X184617594Y-90469980D01*
X185998546Y-90469980D02*
X185427117Y-90469980D01*
X185712832Y-90469980D02*
X185837832Y-89469980D01*
X185724736Y-89612838D01*
X185617594Y-89708076D01*
X185516403Y-89755695D01*
X186492594Y-89565219D02*
X186546165Y-89517600D01*
X186647355Y-89469980D01*
X186885451Y-89469980D01*
X186974736Y-89517600D01*
X187016403Y-89565219D01*
X187052117Y-89660457D01*
X187040213Y-89755695D01*
X186974736Y-89898552D01*
X186331879Y-90469980D01*
X186950927Y-90469980D01*
X188141403Y-90469980D02*
X188266403Y-89469980D01*
X188700927Y-89803314D02*
X188617594Y-90469980D01*
X188689022Y-89898552D02*
X188742594Y-89850933D01*
X188843784Y-89803314D01*
X188986641Y-89803314D01*
X189075927Y-89850933D01*
X189111641Y-89946171D01*
X189046165Y-90469980D01*
X190177117Y-90565219D02*
X190087832Y-90517600D01*
X190004498Y-90422361D01*
X189879498Y-90279504D01*
X189790213Y-90231885D01*
X189694975Y-90231885D01*
X189712832Y-90469980D02*
X189623546Y-90422361D01*
X189540213Y-90327123D01*
X189516403Y-90136647D01*
X189558070Y-89803314D01*
X189629498Y-89612838D01*
X189736641Y-89517600D01*
X189837832Y-89469980D01*
X190028308Y-89469980D01*
X190117594Y-89517600D01*
X190200927Y-89612838D01*
X190224736Y-89803314D01*
X190183070Y-90136647D01*
X190111641Y-90327123D01*
X190004498Y-90422361D01*
X189903308Y-90469980D01*
X189712832Y-90469980D01*
X191093784Y-90469980D02*
X190522355Y-90469980D01*
X190808070Y-90469980D02*
X190933070Y-89469980D01*
X190819975Y-89612838D01*
X190712832Y-89708076D01*
X190611641Y-89755695D01*
X192034260Y-89803314D02*
X191950927Y-90469980D01*
X191843784Y-89422361D02*
X191516403Y-90136647D01*
X192135451Y-90136647D01*
X158972761Y-135402580D02*
X158972761Y-134402580D01*
X159448952Y-134735914D02*
X159448952Y-135402580D01*
X159448952Y-134831152D02*
X159496571Y-134783533D01*
X159591809Y-134735914D01*
X159734666Y-134735914D01*
X159829904Y-134783533D01*
X159877523Y-134878771D01*
X159877523Y-135402580D01*
X161020380Y-135497819D02*
X160925142Y-135450200D01*
X160829904Y-135354961D01*
X160687047Y-135212104D01*
X160591809Y-135164485D01*
X160496571Y-135164485D01*
X160544190Y-135402580D02*
X160448952Y-135354961D01*
X160353714Y-135259723D01*
X160306095Y-135069247D01*
X160306095Y-134735914D01*
X160353714Y-134545438D01*
X160448952Y-134450200D01*
X160544190Y-134402580D01*
X160734666Y-134402580D01*
X160829904Y-134450200D01*
X160925142Y-134545438D01*
X160972761Y-134735914D01*
X160972761Y-135069247D01*
X160925142Y-135259723D01*
X160829904Y-135354961D01*
X160734666Y-135402580D01*
X160544190Y-135402580D01*
X161306095Y-134402580D02*
X161972761Y-134402580D01*
X161544190Y-135402580D01*
X163306095Y-134402580D02*
X163496571Y-134402580D01*
X163591809Y-134450200D01*
X163687047Y-134545438D01*
X163734666Y-134735914D01*
X163734666Y-135069247D01*
X163687047Y-135259723D01*
X163591809Y-135354961D01*
X163496571Y-135402580D01*
X163306095Y-135402580D01*
X163210857Y-135354961D01*
X163115619Y-135259723D01*
X163068000Y-135069247D01*
X163068000Y-134735914D01*
X163115619Y-134545438D01*
X163210857Y-134450200D01*
X163306095Y-134402580D01*
X164591809Y-134735914D02*
X164591809Y-135402580D01*
X164163238Y-134735914D02*
X164163238Y-135259723D01*
X164210857Y-135354961D01*
X164306095Y-135402580D01*
X164448952Y-135402580D01*
X164544190Y-135354961D01*
X164591809Y-135307342D01*
X164925142Y-134735914D02*
X165306095Y-134735914D01*
X165068000Y-134402580D02*
X165068000Y-135259723D01*
X165115619Y-135354961D01*
X165210857Y-135402580D01*
X165306095Y-135402580D01*
X166306095Y-135497819D02*
X166210857Y-135450200D01*
X166115619Y-135354961D01*
X165972761Y-135212104D01*
X165877523Y-135164485D01*
X165782285Y-135164485D01*
X165829904Y-135402580D02*
X165734666Y-135354961D01*
X165639428Y-135259723D01*
X165591809Y-135069247D01*
X165591809Y-134735914D01*
X165639428Y-134545438D01*
X165734666Y-134450200D01*
X165829904Y-134402580D01*
X166020380Y-134402580D01*
X166115619Y-134450200D01*
X166210857Y-134545438D01*
X166258476Y-134735914D01*
X166258476Y-135069247D01*
X166210857Y-135259723D01*
X166115619Y-135354961D01*
X166020380Y-135402580D01*
X165829904Y-135402580D01*
X167115619Y-134735914D02*
X167115619Y-135402580D01*
X166877523Y-134354961D02*
X166639428Y-135069247D01*
X167258476Y-135069247D01*
D11*
X182454514Y-54136171D02*
X182454514Y-55136171D01*
X182097371Y-53564742D02*
X181740228Y-54636171D01*
X182668800Y-54636171D01*
X156421200Y-78985371D02*
X157421200Y-78985371D01*
X156778342Y-80485371D01*
X131857714Y-78985371D02*
X131572000Y-78985371D01*
X131429142Y-79056800D01*
X131357714Y-79128228D01*
X131214857Y-79342514D01*
X131143428Y-79628228D01*
X131143428Y-80199657D01*
X131214857Y-80342514D01*
X131286285Y-80413942D01*
X131429142Y-80485371D01*
X131714857Y-80485371D01*
X131857714Y-80413942D01*
X131929142Y-80342514D01*
X132000571Y-80199657D01*
X132000571Y-79842514D01*
X131929142Y-79699657D01*
X131857714Y-79628228D01*
X131714857Y-79556800D01*
X131429142Y-79556800D01*
X131286285Y-79628228D01*
X131214857Y-79699657D01*
X131143428Y-79842514D01*
D12*
X132206184Y-89368380D02*
X132396660Y-89368380D01*
X132485946Y-89416000D01*
X132569279Y-89511238D01*
X132593089Y-89701714D01*
X132551422Y-90035047D01*
X132479994Y-90225523D01*
X132372851Y-90320761D01*
X132271660Y-90368380D01*
X132081184Y-90368380D01*
X131991898Y-90320761D01*
X131908565Y-90225523D01*
X131884755Y-90035047D01*
X131926422Y-89701714D01*
X131997851Y-89511238D01*
X132104994Y-89416000D01*
X132206184Y-89368380D01*
X133450232Y-89701714D02*
X133366898Y-90368380D01*
X133021660Y-89701714D02*
X132956184Y-90225523D01*
X132991898Y-90320761D01*
X133081184Y-90368380D01*
X133224041Y-90368380D01*
X133325232Y-90320761D01*
X133378803Y-90273142D01*
X133783565Y-89701714D02*
X134164517Y-89701714D01*
X133968089Y-89368380D02*
X133860946Y-90225523D01*
X133896660Y-90320761D01*
X133985946Y-90368380D01*
X134081184Y-90368380D01*
X135069279Y-90463619D02*
X134979994Y-90416000D01*
X134896660Y-90320761D01*
X134771660Y-90177904D01*
X134682375Y-90130285D01*
X134587136Y-90130285D01*
X134604994Y-90368380D02*
X134515708Y-90320761D01*
X134432375Y-90225523D01*
X134408565Y-90035047D01*
X134450232Y-89701714D01*
X134521660Y-89511238D01*
X134628803Y-89416000D01*
X134729994Y-89368380D01*
X134920470Y-89368380D01*
X135009755Y-89416000D01*
X135093089Y-89511238D01*
X135116898Y-89701714D01*
X135075232Y-90035047D01*
X135003803Y-90225523D01*
X134896660Y-90320761D01*
X134795470Y-90368380D01*
X134604994Y-90368380D01*
X135985946Y-90368380D02*
X135414517Y-90368380D01*
X135700232Y-90368380D02*
X135825232Y-89368380D01*
X135712136Y-89511238D01*
X135604994Y-89606476D01*
X135503803Y-89654095D01*
X136729994Y-89368380D02*
X136825232Y-89368380D01*
X136914517Y-89416000D01*
X136956184Y-89463619D01*
X136991898Y-89558857D01*
X137015708Y-89749333D01*
X136985946Y-89987428D01*
X136914517Y-90177904D01*
X136854994Y-90273142D01*
X136801422Y-90320761D01*
X136700232Y-90368380D01*
X136604994Y-90368380D01*
X136515708Y-90320761D01*
X136474041Y-90273142D01*
X136438327Y-90177904D01*
X136414517Y-89987428D01*
X136444279Y-89749333D01*
X136515708Y-89558857D01*
X136575232Y-89463619D01*
X136628803Y-89416000D01*
X136729994Y-89368380D01*
X138128803Y-90368380D02*
X138253803Y-89368380D01*
X138688327Y-89701714D02*
X138604994Y-90368380D01*
X138676422Y-89796952D02*
X138729994Y-89749333D01*
X138831184Y-89701714D01*
X138974041Y-89701714D01*
X139063327Y-89749333D01*
X139099041Y-89844571D01*
X139033565Y-90368380D01*
X140164517Y-90463619D02*
X140075232Y-90416000D01*
X139991898Y-90320761D01*
X139866898Y-90177904D01*
X139777613Y-90130285D01*
X139682375Y-90130285D01*
X139700232Y-90368380D02*
X139610946Y-90320761D01*
X139527613Y-90225523D01*
X139503803Y-90035047D01*
X139545470Y-89701714D01*
X139616898Y-89511238D01*
X139724041Y-89416000D01*
X139825232Y-89368380D01*
X140015708Y-89368380D01*
X140104994Y-89416000D01*
X140188327Y-89511238D01*
X140212136Y-89701714D01*
X140170470Y-90035047D01*
X140099041Y-90225523D01*
X139991898Y-90320761D01*
X139890708Y-90368380D01*
X139700232Y-90368380D01*
X141081184Y-90368380D02*
X140509755Y-90368380D01*
X140795470Y-90368380D02*
X140920470Y-89368380D01*
X140807375Y-89511238D01*
X140700232Y-89606476D01*
X140599041Y-89654095D01*
X142021660Y-89701714D02*
X141938327Y-90368380D01*
X141831184Y-89320761D02*
X141503803Y-90035047D01*
X142122851Y-90035047D01*
X132155384Y-114438180D02*
X132345860Y-114438180D01*
X132435146Y-114485800D01*
X132518479Y-114581038D01*
X132542289Y-114771514D01*
X132500622Y-115104847D01*
X132429194Y-115295323D01*
X132322051Y-115390561D01*
X132220860Y-115438180D01*
X132030384Y-115438180D01*
X131941098Y-115390561D01*
X131857765Y-115295323D01*
X131833955Y-115104847D01*
X131875622Y-114771514D01*
X131947051Y-114581038D01*
X132054194Y-114485800D01*
X132155384Y-114438180D01*
X133399432Y-114771514D02*
X133316098Y-115438180D01*
X132970860Y-114771514D02*
X132905384Y-115295323D01*
X132941098Y-115390561D01*
X133030384Y-115438180D01*
X133173241Y-115438180D01*
X133274432Y-115390561D01*
X133328003Y-115342942D01*
X133732765Y-114771514D02*
X134113717Y-114771514D01*
X133917289Y-114438180D02*
X133810146Y-115295323D01*
X133845860Y-115390561D01*
X133935146Y-115438180D01*
X134030384Y-115438180D01*
X135018479Y-115533419D02*
X134929194Y-115485800D01*
X134845860Y-115390561D01*
X134720860Y-115247704D01*
X134631575Y-115200085D01*
X134536336Y-115200085D01*
X134554194Y-115438180D02*
X134464908Y-115390561D01*
X134381575Y-115295323D01*
X134357765Y-115104847D01*
X134399432Y-114771514D01*
X134470860Y-114581038D01*
X134578003Y-114485800D01*
X134679194Y-114438180D01*
X134869670Y-114438180D01*
X134958955Y-114485800D01*
X135042289Y-114581038D01*
X135066098Y-114771514D01*
X135024432Y-115104847D01*
X134953003Y-115295323D01*
X134845860Y-115390561D01*
X134744670Y-115438180D01*
X134554194Y-115438180D01*
X135935146Y-115438180D02*
X135363717Y-115438180D01*
X135649432Y-115438180D02*
X135774432Y-114438180D01*
X135661336Y-114581038D01*
X135554194Y-114676276D01*
X135453003Y-114723895D01*
X136679194Y-114438180D02*
X136774432Y-114438180D01*
X136863717Y-114485800D01*
X136905384Y-114533419D01*
X136941098Y-114628657D01*
X136964908Y-114819133D01*
X136935146Y-115057228D01*
X136863717Y-115247704D01*
X136804194Y-115342942D01*
X136750622Y-115390561D01*
X136649432Y-115438180D01*
X136554194Y-115438180D01*
X136464908Y-115390561D01*
X136423241Y-115342942D01*
X136387527Y-115247704D01*
X136363717Y-115057228D01*
X136393479Y-114819133D01*
X136464908Y-114628657D01*
X136524432Y-114533419D01*
X136578003Y-114485800D01*
X136679194Y-114438180D01*
X138078003Y-115438180D02*
X138203003Y-114438180D01*
X138637527Y-114771514D02*
X138554194Y-115438180D01*
X138625622Y-114866752D02*
X138679194Y-114819133D01*
X138780384Y-114771514D01*
X138923241Y-114771514D01*
X139012527Y-114819133D01*
X139048241Y-114914371D01*
X138982765Y-115438180D01*
X140113717Y-115533419D02*
X140024432Y-115485800D01*
X139941098Y-115390561D01*
X139816098Y-115247704D01*
X139726813Y-115200085D01*
X139631575Y-115200085D01*
X139649432Y-115438180D02*
X139560146Y-115390561D01*
X139476813Y-115295323D01*
X139453003Y-115104847D01*
X139494670Y-114771514D01*
X139566098Y-114581038D01*
X139673241Y-114485800D01*
X139774432Y-114438180D01*
X139964908Y-114438180D01*
X140054194Y-114485800D01*
X140137527Y-114581038D01*
X140161336Y-114771514D01*
X140119670Y-115104847D01*
X140048241Y-115295323D01*
X139941098Y-115390561D01*
X139839908Y-115438180D01*
X139649432Y-115438180D01*
X141030384Y-115438180D02*
X140458955Y-115438180D01*
X140744670Y-115438180D02*
X140869670Y-114438180D01*
X140756575Y-114581038D01*
X140649432Y-114676276D01*
X140548241Y-114723895D01*
X142060146Y-114438180D02*
X141583955Y-114438180D01*
X141476813Y-114914371D01*
X141530384Y-114866752D01*
X141631575Y-114819133D01*
X141869670Y-114819133D01*
X141958955Y-114866752D01*
X142000622Y-114914371D01*
X142036336Y-115009609D01*
X142006575Y-115247704D01*
X141947051Y-115342942D01*
X141893479Y-115390561D01*
X141792289Y-115438180D01*
X141554194Y-115438180D01*
X141464908Y-115390561D01*
X141423241Y-115342942D01*
X183788561Y-110586780D02*
X183788561Y-109586780D01*
X184264752Y-109920114D02*
X184264752Y-110586780D01*
X184264752Y-110015352D02*
X184312371Y-109967733D01*
X184407609Y-109920114D01*
X184550466Y-109920114D01*
X184645704Y-109967733D01*
X184693323Y-110062971D01*
X184693323Y-110586780D01*
X185836180Y-110682019D02*
X185740942Y-110634400D01*
X185645704Y-110539161D01*
X185502847Y-110396304D01*
X185407609Y-110348685D01*
X185312371Y-110348685D01*
X185359990Y-110586780D02*
X185264752Y-110539161D01*
X185169514Y-110443923D01*
X185121895Y-110253447D01*
X185121895Y-109920114D01*
X185169514Y-109729638D01*
X185264752Y-109634400D01*
X185359990Y-109586780D01*
X185550466Y-109586780D01*
X185645704Y-109634400D01*
X185740942Y-109729638D01*
X185788561Y-109920114D01*
X185788561Y-110253447D01*
X185740942Y-110443923D01*
X185645704Y-110539161D01*
X185550466Y-110586780D01*
X185359990Y-110586780D01*
X186359990Y-110015352D02*
X186264752Y-109967733D01*
X186217133Y-109920114D01*
X186169514Y-109824876D01*
X186169514Y-109777257D01*
X186217133Y-109682019D01*
X186264752Y-109634400D01*
X186359990Y-109586780D01*
X186550466Y-109586780D01*
X186645704Y-109634400D01*
X186693323Y-109682019D01*
X186740942Y-109777257D01*
X186740942Y-109824876D01*
X186693323Y-109920114D01*
X186645704Y-109967733D01*
X186550466Y-110015352D01*
X186359990Y-110015352D01*
X186264752Y-110062971D01*
X186217133Y-110110590D01*
X186169514Y-110205828D01*
X186169514Y-110396304D01*
X186217133Y-110491542D01*
X186264752Y-110539161D01*
X186359990Y-110586780D01*
X186550466Y-110586780D01*
X186645704Y-110539161D01*
X186693323Y-110491542D01*
X186740942Y-110396304D01*
X186740942Y-110205828D01*
X186693323Y-110110590D01*
X186645704Y-110062971D01*
X186550466Y-110015352D01*
X188121895Y-109586780D02*
X188312371Y-109586780D01*
X188407609Y-109634400D01*
X188502847Y-109729638D01*
X188550466Y-109920114D01*
X188550466Y-110253447D01*
X188502847Y-110443923D01*
X188407609Y-110539161D01*
X188312371Y-110586780D01*
X188121895Y-110586780D01*
X188026657Y-110539161D01*
X187931419Y-110443923D01*
X187883800Y-110253447D01*
X187883800Y-109920114D01*
X187931419Y-109729638D01*
X188026657Y-109634400D01*
X188121895Y-109586780D01*
X189407609Y-109920114D02*
X189407609Y-110586780D01*
X188979038Y-109920114D02*
X188979038Y-110443923D01*
X189026657Y-110539161D01*
X189121895Y-110586780D01*
X189264752Y-110586780D01*
X189359990Y-110539161D01*
X189407609Y-110491542D01*
X189740942Y-109920114D02*
X190121895Y-109920114D01*
X189883800Y-109586780D02*
X189883800Y-110443923D01*
X189931419Y-110539161D01*
X190026657Y-110586780D01*
X190121895Y-110586780D01*
X191121895Y-110682019D02*
X191026657Y-110634400D01*
X190931419Y-110539161D01*
X190788561Y-110396304D01*
X190693323Y-110348685D01*
X190598085Y-110348685D01*
X190645704Y-110586780D02*
X190550466Y-110539161D01*
X190455228Y-110443923D01*
X190407609Y-110253447D01*
X190407609Y-109920114D01*
X190455228Y-109729638D01*
X190550466Y-109634400D01*
X190645704Y-109586780D01*
X190836180Y-109586780D01*
X190931419Y-109634400D01*
X191026657Y-109729638D01*
X191074276Y-109920114D01*
X191074276Y-110253447D01*
X191026657Y-110443923D01*
X190931419Y-110539161D01*
X190836180Y-110586780D01*
X190645704Y-110586780D01*
X191407609Y-109586780D02*
X192026657Y-109586780D01*
X191693323Y-109967733D01*
X191836180Y-109967733D01*
X191931419Y-110015352D01*
X191979038Y-110062971D01*
X192026657Y-110158209D01*
X192026657Y-110396304D01*
X191979038Y-110491542D01*
X191931419Y-110539161D01*
X191836180Y-110586780D01*
X191550466Y-110586780D01*
X191455228Y-110539161D01*
X191407609Y-110491542D01*
M02*
